<?xml version="1.0" standalone="no"?><!DOCTYPE svg PUBLIC "-//W3C//DTD SVG 1.1//EN" "http://www.w3.org/Graphics/SVG/1.1/DTD/svg11.dtd"><svg height="1600" node-id="1" sillyvg="true" template-height="1600" template-width="1600" version="1.1" viewBox="0 0 1600 1600" width="1600" xmlns="http://www.w3.org/2000/svg" xmlns:xlink="http://www.w3.org/1999/xlink"><defs node-id="101"><linearGradient gradientUnits="objectBoundingBox" id="linearGradient-3" node-id="6" spreadMethod="pad" x1="0.80712813" x2="0.28439847" y1="0.64765275" y2="0.56588763"><stop offset="0" stop-color="#8ea9ff"></stop><stop offset="1" stop-color="#c8d5fe"></stop></linearGradient><linearGradient gradientUnits="objectBoundingBox" id="linearGradient-4" node-id="9" spreadMethod="pad" x1="0.80712813" x2="0.28439847" y1="0.64765275" y2="0.56588763"><stop offset="0" stop-color="#8ea9ff"></stop><stop offset="1" stop-color="#c8d5fe"></stop></linearGradient><linearGradient gradientUnits="objectBoundingBox" id="linearGradient-5" node-id="12" spreadMethod="pad" x1="0.4328755" x2="0.4328755" y1="0.059067015" y2="0.36765012"><stop offset="0" stop-color="#d8e2ff"></stop><stop offset="1" stop-color="#e3ebfe" stop-opacity="0.67616284"></stop></linearGradient><linearGradient gradientUnits="objectBoundingBox" id="linearGradient-6" node-id="15" spreadMethod="pad" x1="0.4328755" x2="0.4328755" y1="0.059067015" y2="0.36765012"><stop offset="0" stop-color="#d8e2ff"></stop><stop offset="1" stop-color="#e3ebfe" stop-opacity="0.67616284"></stop></linearGradient><linearGradient gradientUnits="objectBoundingBox" id="linearGradient-7" node-id="18" spreadMethod="pad" x1="0.017900473" x2="0.899358" y1="0.47986585" y2="0.5119843"><stop offset="0" stop-color="#a6bbfe"></stop><stop offset="1" stop-color="#ecf2fd" stop-opacity="0.8897304"></stop></linearGradient><linearGradient gradientUnits="objectBoundingBox" id="linearGradient1" node-id="133" spreadMethod="pad" x1="1" x2="0.21857457" y1="0.5" y2="0.5187227"><stop offset="0" stop-color="#a2b4dd" stop-opacity="0"></stop><stop offset="1" stop-color="#5578df"></stop></linearGradient><linearGradient gradientUnits="objectBoundingBox" id="linearGradient-8" node-id="21" spreadMethod="pad" x1="1" x2="0.21857457" y1="0.5" y2="0.5187227"><stop offset="0" stop-color="#a2b4dd" stop-opacity="0"></stop><stop offset="1" stop-color="#5578df"></stop></linearGradient><linearGradient gradientUnits="objectBoundingBox" id="linearGradient-16" node-id="33" spreadMethod="pad" x1="0.70790184" x2="0.5715089" y1="0.15469879" y2="0.39914286"><stop offset="0" stop-color="#c0d5ff"></stop><stop offset="1" stop-color="#8cabff"></stop></linearGradient><linearGradient gradientUnits="objectBoundingBox" id="linearGradient-17" node-id="36" spreadMethod="pad" x1="0.75486463" x2="0.5646357" y1="0.0974534" y2="0.85357475"><stop offset="0" stop-color="#f0f4ff"></stop><stop offset="0.39755315" stop-color="#e1e9ff"></stop><stop offset="1" stop-color="#ffffff" stop-opacity="0"></stop></linearGradient><filter height="72.99997" id="filter-9" node-id="24" width="129.97" x="157.50919" y="215.2103"><feGaussianBlur color-interpolation-filters="linearRGB" in="SourceGraphic" result="result1" stdDeviation="8 8"></feGaussianBlur></filter><filter height="72.99997" id="filter-10" node-id="26" width="129.96997" x="835.50916" y="215.2103"><feGaussianBlur color-interpolation-filters="linearRGB" in="SourceGraphic" result="result1" stdDeviation="8 8"></feGaussianBlur></filter><mask height="132" id="mask-2" maskUnits="userSpaceOnUse" node-id="42" width="199.20001" x="288.43478" y="734"><path d="M 1464.00 800.00 L 1463.80 817.70 L 1463.10 835.20 L 1461.90 852.70 L 1460.30 870.00 L 1458.20 887.30 L 1455.70 904.50 L 1452.80 921.70 L 1449.40 938.70 L 1445.50 955.60 L 1441.20 972.30 L 1436.50 989.00 L 1431.40 1005.50 L 1425.80 1021.90 L 1419.90 1038.10 L 1413.50 1054.10 L 1406.60 1070.00 L 1399.40 1085.60 L 1391.80 1101.20 L 1383.70 1116.50 L 1375.30 1131.60 L 1366.50 1146.40 L 1357.20 1161.10 L 1347.60 1175.50 L 1337.60 1189.80 L 1327.20 1203.70 L 1316.40 1217.40 L 1305.30 1230.80 L 1293.70 1244.00 L 1281.80 1256.90 L 1269.50 1269.50 L 1256.90 1281.80 L 1244.00 1293.70 L 1230.80 1305.30 L 1217.40 1316.40 L 1203.70 1327.20 L 1189.80 1337.60 L 1175.50 1347.60 L 1161.10 1357.20 L 1146.40 1366.50 L 1131.60 1375.30 L 1116.50 1383.70 L 1101.20 1391.80 L 1085.60 1399.40 L 1070.00 1406.60 L 1054.10 1413.50 L 1038.10 1419.90 L 1021.90 1425.80 L 1005.50 1431.40 L 989.00 1436.50 L 972.30 1441.20 L 955.60 1445.50 L 938.70 1449.40 L 921.70 1452.80 L 904.50 1455.70 L 887.30 1458.20 L 870.00 1460.30 L 852.70 1461.90 L 835.20 1463.10 L 817.70 1463.80 L 800.00 1464.00 L 782.30 1463.80 L 764.80 1463.10 L 747.30 1461.90 L 730.00 1460.30 L 712.70 1458.20 L 695.50 1455.70 L 678.30 1452.80 L 661.30 1449.40 L 644.40 1445.50 L 627.70 1441.20 L 611.00 1436.50 L 594.50 1431.40 L 578.10 1425.80 L 561.90 1419.90 L 545.90 1413.50 L 530.00 1406.60 L 514.40 1399.40 L 498.80 1391.80 L 483.50 1383.70 L 468.40 1375.30 L 453.60 1366.50 L 438.90 1357.20 L 424.50 1347.60 L 410.20 1337.60 L 396.30 1327.20 L 382.60 1316.40 L 369.20 1305.30 L 356.00 1293.70 L 343.10 1281.80 L 330.50 1269.50 L 318.20 1256.90 L 306.30 1244.00 L 294.70 1230.80 L 283.60 1217.40 L 272.80 1203.70 L 262.40 1189.80 L 252.40 1175.50 L 242.80 1161.10 L 233.50 1146.40 L 224.70 1131.60 L 216.30 1116.50 L 208.20 1101.20 L 200.60 1085.60 L 193.40 1070.00 L 186.50 1054.10 L 180.10 1038.10 L 174.20 1021.90 L 168.60 1005.50 L 163.50 989.00 L 158.80 972.30 L 154.50 955.60 L 150.60 938.70 L 147.20 921.70 L 144.30 904.50 L 141.80 887.30 L 139.70 870.00 L 138.10 852.70 L 136.90 835.20 L 136.20 817.70 L 136.00 800.00 L 136.20 782.30 L 136.90 764.80 L 138.10 747.30 L 139.70 730.00 L 141.80 712.70 L 144.30 695.50 L 147.20 678.30 L 150.60 661.30 L 154.50 644.40 L 158.80 627.70 L 163.50 611.00 L 168.60 594.50 L 174.20 578.10 L 180.10 561.90 L 186.50 545.90 L 193.40 530.00 L 200.60 514.40 L 208.20 498.80 L 216.30 483.50 L 224.70 468.40 L 233.50 453.60 L 242.80 438.90 L 252.40 424.50 L 262.40 410.20 L 272.80 396.30 L 283.60 382.60 L 294.70 369.20 L 306.30 356.00 L 318.20 343.10 L 330.50 330.50 L 343.10 318.20 L 356.00 306.30 L 369.20 294.70 L 382.60 283.60 L 396.30 272.80 L 410.20 262.40 L 424.50 252.40 L 438.90 242.80 L 453.60 233.50 L 468.40 224.70 L 483.50 216.30 L 498.80 208.20 L 514.40 200.60 L 530.00 193.40 L 545.90 186.50 L 561.90 180.10 L 578.10 174.20 L 594.50 168.60 L 611.00 163.50 L 627.70 158.80 L 644.40 154.50 L 661.30 150.60 L 678.30 147.20 L 695.50 144.30 L 712.70 141.80 L 730.00 139.70 L 747.30 138.10 L 764.80 136.90 L 782.30 136.20 L 800.00 136.00 L 817.70 136.20 L 835.20 136.90 L 852.70 138.10 L 870.00 139.70 L 887.30 141.80 L 904.50 144.30 L 921.70 147.20 L 938.70 150.60 L 955.60 154.50 L 972.30 158.80 L 989.00 163.50 L 1005.50 168.60 L 1021.90 174.20 L 1038.10 180.10 L 1054.10 186.50 L 1070.00 193.40 L 1085.60 200.60 L 1101.20 208.20 L 1116.50 216.30 L 1131.60 224.70 L 1146.40 233.50 L 1161.10 242.80 L 1175.50 252.40 L 1189.80 262.40 L 1203.70 272.80 L 1217.40 283.60 L 1230.80 294.70 L 1244.00 306.30 L 1256.90 318.20 L 1269.50 330.50 L 1281.80 343.10 L 1293.70 356.00 L 1305.30 369.20 L 1316.40 382.60 L 1327.20 396.30 L 1337.60 410.20 L 1347.60 424.50 L 1357.20 438.90 L 1366.50 453.60 L 1375.30 468.40 L 1383.70 483.50 L 1391.80 498.80 L 1399.40 514.40 L 1406.60 530.00 L 1413.50 545.90 L 1419.90 561.90 L 1425.80 578.10 L 1431.40 594.50 L 1436.50 611.00 L 1441.20 627.70 L 1445.50 644.40 L 1449.40 661.30 L 1452.80 678.30 L 1455.70 695.50 L 1458.20 712.70 L 1460.30 730.00 L 1461.90 747.30 L 1463.10 764.80 L 1463.80 782.30 L 1464.00 800.00 Z" fill="#ffffff" fill-rule="evenodd" node-id="171" stroke="none" target-height="1328" target-width="1328" target-x="136" target-y="136"></path></mask><mask height="103.373535" id="mask1" maskUnits="userSpaceOnUse" node-id="175" width="156" x="1175.4517" y="587.879"><path d="M 1464.00 800.00 L 1463.80 817.70 L 1463.10 835.20 L 1461.90 852.70 L 1460.30 870.00 L 1458.20 887.30 L 1455.70 904.50 L 1452.80 921.70 L 1449.40 938.70 L 1445.50 955.60 L 1441.20 972.30 L 1436.50 989.00 L 1431.40 1005.50 L 1425.80 1021.90 L 1419.90 1038.10 L 1413.50 1054.10 L 1406.60 1070.00 L 1399.40 1085.60 L 1391.80 1101.20 L 1383.70 1116.50 L 1375.30 1131.60 L 1366.50 1146.40 L 1357.20 1161.10 L 1347.60 1175.50 L 1337.60 1189.80 L 1327.20 1203.70 L 1316.40 1217.40 L 1305.30 1230.80 L 1293.70 1244.00 L 1281.80 1256.90 L 1269.50 1269.50 L 1256.90 1281.80 L 1244.00 1293.70 L 1230.80 1305.30 L 1217.40 1316.40 L 1203.70 1327.20 L 1189.80 1337.60 L 1175.50 1347.60 L 1161.10 1357.20 L 1146.40 1366.50 L 1131.60 1375.30 L 1116.50 1383.70 L 1101.20 1391.80 L 1085.60 1399.40 L 1070.00 1406.60 L 1054.10 1413.50 L 1038.10 1419.90 L 1021.90 1425.80 L 1005.50 1431.40 L 989.00 1436.50 L 972.30 1441.20 L 955.60 1445.50 L 938.70 1449.40 L 921.70 1452.80 L 904.50 1455.70 L 887.30 1458.20 L 870.00 1460.30 L 852.70 1461.90 L 835.20 1463.10 L 817.70 1463.80 L 800.00 1464.00 L 782.30 1463.80 L 764.80 1463.10 L 747.30 1461.90 L 730.00 1460.30 L 712.70 1458.20 L 695.50 1455.70 L 678.30 1452.80 L 661.30 1449.40 L 644.40 1445.50 L 627.70 1441.20 L 611.00 1436.50 L 594.50 1431.40 L 578.10 1425.80 L 561.90 1419.90 L 545.90 1413.50 L 530.00 1406.60 L 514.40 1399.40 L 498.80 1391.80 L 483.50 1383.70 L 468.40 1375.30 L 453.60 1366.50 L 438.90 1357.20 L 424.50 1347.60 L 410.20 1337.60 L 396.30 1327.20 L 382.60 1316.40 L 369.20 1305.30 L 356.00 1293.70 L 343.10 1281.80 L 330.50 1269.50 L 318.20 1256.90 L 306.30 1244.00 L 294.70 1230.80 L 283.60 1217.40 L 272.80 1203.70 L 262.40 1189.80 L 252.40 1175.50 L 242.80 1161.10 L 233.50 1146.40 L 224.70 1131.60 L 216.30 1116.50 L 208.20 1101.20 L 200.60 1085.60 L 193.40 1070.00 L 186.50 1054.10 L 180.10 1038.10 L 174.20 1021.90 L 168.60 1005.50 L 163.50 989.00 L 158.80 972.30 L 154.50 955.60 L 150.60 938.70 L 147.20 921.70 L 144.30 904.50 L 141.80 887.30 L 139.70 870.00 L 138.10 852.70 L 136.90 835.20 L 136.20 817.70 L 136.00 800.00 L 136.20 782.30 L 136.90 764.80 L 138.10 747.30 L 139.70 730.00 L 141.80 712.70 L 144.30 695.50 L 147.20 678.30 L 150.60 661.30 L 154.50 644.40 L 158.80 627.70 L 163.50 611.00 L 168.60 594.50 L 174.20 578.10 L 180.10 561.90 L 186.50 545.90 L 193.40 530.00 L 200.60 514.40 L 208.20 498.80 L 216.30 483.50 L 224.70 468.40 L 233.50 453.60 L 242.80 438.90 L 252.40 424.50 L 262.40 410.20 L 272.80 396.30 L 283.60 382.60 L 294.70 369.20 L 306.30 356.00 L 318.20 343.10 L 330.50 330.50 L 343.10 318.20 L 356.00 306.30 L 369.20 294.70 L 382.60 283.60 L 396.30 272.80 L 410.20 262.40 L 424.50 252.40 L 438.90 242.80 L 453.60 233.50 L 468.40 224.70 L 483.50 216.30 L 498.80 208.20 L 514.40 200.60 L 530.00 193.40 L 545.90 186.50 L 561.90 180.10 L 578.10 174.20 L 594.50 168.60 L 611.00 163.50 L 627.70 158.80 L 644.40 154.50 L 661.30 150.60 L 678.30 147.20 L 695.50 144.30 L 712.70 141.80 L 730.00 139.70 L 747.30 138.10 L 764.80 136.90 L 782.30 136.20 L 800.00 136.00 L 817.70 136.20 L 835.20 136.90 L 852.70 138.10 L 870.00 139.70 L 887.30 141.80 L 904.50 144.30 L 921.70 147.20 L 938.70 150.60 L 955.60 154.50 L 972.30 158.80 L 989.00 163.50 L 1005.50 168.60 L 1021.90 174.20 L 1038.10 180.10 L 1054.10 186.50 L 1070.00 193.40 L 1085.60 200.60 L 1101.20 208.20 L 1116.50 216.30 L 1131.60 224.70 L 1146.40 233.50 L 1161.10 242.80 L 1175.50 252.40 L 1189.80 262.40 L 1203.70 272.80 L 1217.40 283.60 L 1230.80 294.70 L 1244.00 306.30 L 1256.90 318.20 L 1269.50 330.50 L 1281.80 343.10 L 1293.70 356.00 L 1305.30 369.20 L 1316.40 382.60 L 1327.20 396.30 L 1337.60 410.20 L 1347.60 424.50 L 1357.20 438.90 L 1366.50 453.60 L 1375.30 468.40 L 1383.70 483.50 L 1391.80 498.80 L 1399.40 514.40 L 1406.60 530.00 L 1413.50 545.90 L 1419.90 561.90 L 1425.80 578.10 L 1431.40 594.50 L 1436.50 611.00 L 1441.20 627.70 L 1445.50 644.40 L 1449.40 661.30 L 1452.80 678.30 L 1455.70 695.50 L 1458.20 712.70 L 1460.30 730.00 L 1461.90 747.30 L 1463.10 764.80 L 1463.80 782.30 L 1464.00 800.00 Z" fill="#ffffff" fill-rule="evenodd" node-id="179" stroke="none" target-height="1328" target-width="1328" target-x="136" target-y="136"></path></mask><mask height="410.40002" id="mask2" maskUnits="userSpaceOnUse" node-id="183" width="784.71655" x="78.676544" y="978.8097"><path d="M 1464.00 800.00 L 1463.80 817.70 L 1463.10 835.20 L 1461.90 852.70 L 1460.30 870.00 L 1458.20 887.30 L 1455.70 904.50 L 1452.80 921.70 L 1449.40 938.70 L 1445.50 955.60 L 1441.20 972.30 L 1436.50 989.00 L 1431.40 1005.50 L 1425.80 1021.90 L 1419.90 1038.10 L 1413.50 1054.10 L 1406.60 1070.00 L 1399.40 1085.60 L 1391.80 1101.20 L 1383.70 1116.50 L 1375.30 1131.60 L 1366.50 1146.40 L 1357.20 1161.10 L 1347.60 1175.50 L 1337.60 1189.80 L 1327.20 1203.70 L 1316.40 1217.40 L 1305.30 1230.80 L 1293.70 1244.00 L 1281.80 1256.90 L 1269.50 1269.50 L 1256.90 1281.80 L 1244.00 1293.70 L 1230.80 1305.30 L 1217.40 1316.40 L 1203.70 1327.20 L 1189.80 1337.60 L 1175.50 1347.60 L 1161.10 1357.20 L 1146.40 1366.50 L 1131.60 1375.30 L 1116.50 1383.70 L 1101.20 1391.80 L 1085.60 1399.40 L 1070.00 1406.60 L 1054.10 1413.50 L 1038.10 1419.90 L 1021.90 1425.80 L 1005.50 1431.40 L 989.00 1436.50 L 972.30 1441.20 L 955.60 1445.50 L 938.70 1449.40 L 921.70 1452.80 L 904.50 1455.70 L 887.30 1458.20 L 870.00 1460.30 L 852.70 1461.90 L 835.20 1463.10 L 817.70 1463.80 L 800.00 1464.00 L 782.30 1463.80 L 764.80 1463.10 L 747.30 1461.90 L 730.00 1460.30 L 712.70 1458.20 L 695.50 1455.70 L 678.30 1452.80 L 661.30 1449.40 L 644.40 1445.50 L 627.70 1441.20 L 611.00 1436.50 L 594.50 1431.40 L 578.10 1425.80 L 561.90 1419.90 L 545.90 1413.50 L 530.00 1406.60 L 514.40 1399.40 L 498.80 1391.80 L 483.50 1383.70 L 468.40 1375.30 L 453.60 1366.50 L 438.90 1357.20 L 424.50 1347.60 L 410.20 1337.60 L 396.30 1327.20 L 382.60 1316.40 L 369.20 1305.30 L 356.00 1293.70 L 343.10 1281.80 L 330.50 1269.50 L 318.20 1256.90 L 306.30 1244.00 L 294.70 1230.80 L 283.60 1217.40 L 272.80 1203.70 L 262.40 1189.80 L 252.40 1175.50 L 242.80 1161.10 L 233.50 1146.40 L 224.70 1131.60 L 216.30 1116.50 L 208.20 1101.20 L 200.60 1085.60 L 193.40 1070.00 L 186.50 1054.10 L 180.10 1038.10 L 174.20 1021.90 L 168.60 1005.50 L 163.50 989.00 L 158.80 972.30 L 154.50 955.60 L 150.60 938.70 L 147.20 921.70 L 144.30 904.50 L 141.80 887.30 L 139.70 870.00 L 138.10 852.70 L 136.90 835.20 L 136.20 817.70 L 136.00 800.00 L 136.20 782.30 L 136.90 764.80 L 138.10 747.30 L 139.70 730.00 L 141.80 712.70 L 144.30 695.50 L 147.20 678.30 L 150.60 661.30 L 154.50 644.40 L 158.80 627.70 L 163.50 611.00 L 168.60 594.50 L 174.20 578.10 L 180.10 561.90 L 186.50 545.90 L 193.40 530.00 L 200.60 514.40 L 208.20 498.80 L 216.30 483.50 L 224.70 468.40 L 233.50 453.60 L 242.80 438.90 L 252.40 424.50 L 262.40 410.20 L 272.80 396.30 L 283.60 382.60 L 294.70 369.20 L 306.30 356.00 L 318.20 343.10 L 330.50 330.50 L 343.10 318.20 L 356.00 306.30 L 369.20 294.70 L 382.60 283.60 L 396.30 272.80 L 410.20 262.40 L 424.50 252.40 L 438.90 242.80 L 453.60 233.50 L 468.40 224.70 L 483.50 216.30 L 498.80 208.20 L 514.40 200.60 L 530.00 193.40 L 545.90 186.50 L 561.90 180.10 L 578.10 174.20 L 594.50 168.60 L 611.00 163.50 L 627.70 158.80 L 644.40 154.50 L 661.30 150.60 L 678.30 147.20 L 695.50 144.30 L 712.70 141.80 L 730.00 139.70 L 747.30 138.10 L 764.80 136.90 L 782.30 136.20 L 800.00 136.00 L 817.70 136.20 L 835.20 136.90 L 852.70 138.10 L 870.00 139.70 L 887.30 141.80 L 904.50 144.30 L 921.70 147.20 L 938.70 150.60 L 955.60 154.50 L 972.30 158.80 L 989.00 163.50 L 1005.50 168.60 L 1021.90 174.20 L 1038.10 180.10 L 1054.10 186.50 L 1070.00 193.40 L 1085.60 200.60 L 1101.20 208.20 L 1116.50 216.30 L 1131.60 224.70 L 1146.40 233.50 L 1161.10 242.80 L 1175.50 252.40 L 1189.80 262.40 L 1203.70 272.80 L 1217.40 283.60 L 1230.80 294.70 L 1244.00 306.30 L 1256.90 318.20 L 1269.50 330.50 L 1281.80 343.10 L 1293.70 356.00 L 1305.30 369.20 L 1316.40 382.60 L 1327.20 396.30 L 1337.60 410.20 L 1347.60 424.50 L 1357.20 438.90 L 1366.50 453.60 L 1375.30 468.40 L 1383.70 483.50 L 1391.80 498.80 L 1399.40 514.40 L 1406.60 530.00 L 1413.50 545.90 L 1419.90 561.90 L 1425.80 578.10 L 1431.40 594.50 L 1436.50 611.00 L 1441.20 627.70 L 1445.50 644.40 L 1449.40 661.30 L 1452.80 678.30 L 1455.70 695.50 L 1458.20 712.70 L 1460.30 730.00 L 1461.90 747.30 L 1463.10 764.80 L 1463.80 782.30 L 1464.00 800.00 Z" fill="#ffffff" fill-rule="evenodd" node-id="187" stroke="none" target-height="1328" target-width="1328" target-x="136" target-y="136"></path></mask><mask height="119.3949" id="mask3" maskUnits="userSpaceOnUse" node-id="191" width="503.7456" x="897.8817" y="1048.5553"><path d="M 1464.00 800.00 L 1463.80 817.70 L 1463.10 835.20 L 1461.90 852.70 L 1460.30 870.00 L 1458.20 887.30 L 1455.70 904.50 L 1452.80 921.70 L 1449.40 938.70 L 1445.50 955.60 L 1441.20 972.30 L 1436.50 989.00 L 1431.40 1005.50 L 1425.80 1021.90 L 1419.90 1038.10 L 1413.50 1054.10 L 1406.60 1070.00 L 1399.40 1085.60 L 1391.80 1101.20 L 1383.70 1116.50 L 1375.30 1131.60 L 1366.50 1146.40 L 1357.20 1161.10 L 1347.60 1175.50 L 1337.60 1189.80 L 1327.20 1203.70 L 1316.40 1217.40 L 1305.30 1230.80 L 1293.70 1244.00 L 1281.80 1256.90 L 1269.50 1269.50 L 1256.90 1281.80 L 1244.00 1293.70 L 1230.80 1305.30 L 1217.40 1316.40 L 1203.70 1327.20 L 1189.80 1337.60 L 1175.50 1347.60 L 1161.10 1357.20 L 1146.40 1366.50 L 1131.60 1375.30 L 1116.50 1383.70 L 1101.20 1391.80 L 1085.60 1399.40 L 1070.00 1406.60 L 1054.10 1413.50 L 1038.10 1419.90 L 1021.90 1425.80 L 1005.50 1431.40 L 989.00 1436.50 L 972.30 1441.20 L 955.60 1445.50 L 938.70 1449.40 L 921.70 1452.80 L 904.50 1455.70 L 887.30 1458.20 L 870.00 1460.30 L 852.70 1461.90 L 835.20 1463.10 L 817.70 1463.80 L 800.00 1464.00 L 782.30 1463.80 L 764.80 1463.10 L 747.30 1461.90 L 730.00 1460.30 L 712.70 1458.20 L 695.50 1455.70 L 678.30 1452.80 L 661.30 1449.40 L 644.40 1445.50 L 627.70 1441.20 L 611.00 1436.50 L 594.50 1431.40 L 578.10 1425.80 L 561.90 1419.90 L 545.90 1413.50 L 530.00 1406.60 L 514.40 1399.40 L 498.80 1391.80 L 483.50 1383.70 L 468.40 1375.30 L 453.60 1366.50 L 438.90 1357.20 L 424.50 1347.60 L 410.20 1337.60 L 396.30 1327.20 L 382.60 1316.40 L 369.20 1305.30 L 356.00 1293.70 L 343.10 1281.80 L 330.50 1269.50 L 318.20 1256.90 L 306.30 1244.00 L 294.70 1230.80 L 283.60 1217.40 L 272.80 1203.70 L 262.40 1189.80 L 252.40 1175.50 L 242.80 1161.10 L 233.50 1146.40 L 224.70 1131.60 L 216.30 1116.50 L 208.20 1101.20 L 200.60 1085.60 L 193.40 1070.00 L 186.50 1054.10 L 180.10 1038.10 L 174.20 1021.90 L 168.60 1005.50 L 163.50 989.00 L 158.80 972.30 L 154.50 955.60 L 150.60 938.70 L 147.20 921.70 L 144.30 904.50 L 141.80 887.30 L 139.70 870.00 L 138.10 852.70 L 136.90 835.20 L 136.20 817.70 L 136.00 800.00 L 136.20 782.30 L 136.90 764.80 L 138.10 747.30 L 139.70 730.00 L 141.80 712.70 L 144.30 695.50 L 147.20 678.30 L 150.60 661.30 L 154.50 644.40 L 158.80 627.70 L 163.50 611.00 L 168.60 594.50 L 174.20 578.10 L 180.10 561.90 L 186.50 545.90 L 193.40 530.00 L 200.60 514.40 L 208.20 498.80 L 216.30 483.50 L 224.70 468.40 L 233.50 453.60 L 242.80 438.90 L 252.40 424.50 L 262.40 410.20 L 272.80 396.30 L 283.60 382.60 L 294.70 369.20 L 306.30 356.00 L 318.20 343.10 L 330.50 330.50 L 343.10 318.20 L 356.00 306.30 L 369.20 294.70 L 382.60 283.60 L 396.30 272.80 L 410.20 262.40 L 424.50 252.40 L 438.90 242.80 L 453.60 233.50 L 468.40 224.70 L 483.50 216.30 L 498.80 208.20 L 514.40 200.60 L 530.00 193.40 L 545.90 186.50 L 561.90 180.10 L 578.10 174.20 L 594.50 168.60 L 611.00 163.50 L 627.70 158.80 L 644.40 154.50 L 661.30 150.60 L 678.30 147.20 L 695.50 144.30 L 712.70 141.80 L 730.00 139.70 L 747.30 138.10 L 764.80 136.90 L 782.30 136.20 L 800.00 136.00 L 817.70 136.20 L 835.20 136.90 L 852.70 138.10 L 870.00 139.70 L 887.30 141.80 L 904.50 144.30 L 921.70 147.20 L 938.70 150.60 L 955.60 154.50 L 972.30 158.80 L 989.00 163.50 L 1005.50 168.60 L 1021.90 174.20 L 1038.10 180.10 L 1054.10 186.50 L 1070.00 193.40 L 1085.60 200.60 L 1101.20 208.20 L 1116.50 216.30 L 1131.60 224.70 L 1146.40 233.50 L 1161.10 242.80 L 1175.50 252.40 L 1189.80 262.40 L 1203.70 272.80 L 1217.40 283.60 L 1230.80 294.70 L 1244.00 306.30 L 1256.90 318.20 L 1269.50 330.50 L 1281.80 343.10 L 1293.70 356.00 L 1305.30 369.20 L 1316.40 382.60 L 1327.20 396.30 L 1337.60 410.20 L 1347.60 424.50 L 1357.20 438.90 L 1366.50 453.60 L 1375.30 468.40 L 1383.70 483.50 L 1391.80 498.80 L 1399.40 514.40 L 1406.60 530.00 L 1413.50 545.90 L 1419.90 561.90 L 1425.80 578.10 L 1431.40 594.50 L 1436.50 611.00 L 1441.20 627.70 L 1445.50 644.40 L 1449.40 661.30 L 1452.80 678.30 L 1455.70 695.50 L 1458.20 712.70 L 1460.30 730.00 L 1461.90 747.30 L 1463.10 764.80 L 1463.80 782.30 L 1464.00 800.00 Z" fill="#ffffff" fill-rule="evenodd" node-id="195" stroke="none" target-height="1328" target-width="1328" target-x="136" target-y="136"></path></mask><mask height="367.20007" id="mask4" maskUnits="userSpaceOnUse" node-id="199" width="1682.4" x="-48.199997" y="1127.4"><path d="M 1464.00 800.00 L 1463.80 817.70 L 1463.10 835.20 L 1461.90 852.70 L 1460.30 870.00 L 1458.20 887.30 L 1455.70 904.50 L 1452.80 921.70 L 1449.40 938.70 L 1445.50 955.60 L 1441.20 972.30 L 1436.50 989.00 L 1431.40 1005.50 L 1425.80 1021.90 L 1419.90 1038.10 L 1413.50 1054.10 L 1406.60 1070.00 L 1399.40 1085.60 L 1391.80 1101.20 L 1383.70 1116.50 L 1375.30 1131.60 L 1366.50 1146.40 L 1357.20 1161.10 L 1347.60 1175.50 L 1337.60 1189.80 L 1327.20 1203.70 L 1316.40 1217.40 L 1305.30 1230.80 L 1293.70 1244.00 L 1281.80 1256.90 L 1269.50 1269.50 L 1256.90 1281.80 L 1244.00 1293.70 L 1230.80 1305.30 L 1217.40 1316.40 L 1203.70 1327.20 L 1189.80 1337.60 L 1175.50 1347.60 L 1161.10 1357.20 L 1146.40 1366.50 L 1131.60 1375.30 L 1116.50 1383.70 L 1101.20 1391.80 L 1085.60 1399.40 L 1070.00 1406.60 L 1054.10 1413.50 L 1038.10 1419.90 L 1021.90 1425.80 L 1005.50 1431.40 L 989.00 1436.50 L 972.30 1441.20 L 955.60 1445.50 L 938.70 1449.40 L 921.70 1452.80 L 904.50 1455.70 L 887.30 1458.20 L 870.00 1460.30 L 852.70 1461.90 L 835.20 1463.10 L 817.70 1463.80 L 800.00 1464.00 L 782.30 1463.80 L 764.80 1463.10 L 747.30 1461.90 L 730.00 1460.30 L 712.70 1458.20 L 695.50 1455.70 L 678.30 1452.80 L 661.30 1449.40 L 644.40 1445.50 L 627.70 1441.20 L 611.00 1436.50 L 594.50 1431.40 L 578.10 1425.80 L 561.90 1419.90 L 545.90 1413.50 L 530.00 1406.60 L 514.40 1399.40 L 498.80 1391.80 L 483.50 1383.70 L 468.40 1375.30 L 453.60 1366.50 L 438.90 1357.20 L 424.50 1347.60 L 410.20 1337.60 L 396.30 1327.20 L 382.60 1316.40 L 369.20 1305.30 L 356.00 1293.70 L 343.10 1281.80 L 330.50 1269.50 L 318.20 1256.90 L 306.30 1244.00 L 294.70 1230.80 L 283.60 1217.40 L 272.80 1203.70 L 262.40 1189.80 L 252.40 1175.50 L 242.80 1161.10 L 233.50 1146.40 L 224.70 1131.60 L 216.30 1116.50 L 208.20 1101.20 L 200.60 1085.60 L 193.40 1070.00 L 186.50 1054.10 L 180.10 1038.10 L 174.20 1021.90 L 168.60 1005.50 L 163.50 989.00 L 158.80 972.30 L 154.50 955.60 L 150.60 938.70 L 147.20 921.70 L 144.30 904.50 L 141.80 887.30 L 139.70 870.00 L 138.10 852.70 L 136.90 835.20 L 136.20 817.70 L 136.00 800.00 L 136.20 782.30 L 136.90 764.80 L 138.10 747.30 L 139.70 730.00 L 141.80 712.70 L 144.30 695.50 L 147.20 678.30 L 150.60 661.30 L 154.50 644.40 L 158.80 627.70 L 163.50 611.00 L 168.60 594.50 L 174.20 578.10 L 180.10 561.90 L 186.50 545.90 L 193.40 530.00 L 200.60 514.40 L 208.20 498.80 L 216.30 483.50 L 224.70 468.40 L 233.50 453.60 L 242.80 438.90 L 252.40 424.50 L 262.40 410.20 L 272.80 396.30 L 283.60 382.60 L 294.70 369.20 L 306.30 356.00 L 318.20 343.10 L 330.50 330.50 L 343.10 318.20 L 356.00 306.30 L 369.20 294.70 L 382.60 283.60 L 396.30 272.80 L 410.20 262.40 L 424.50 252.40 L 438.90 242.80 L 453.60 233.50 L 468.40 224.70 L 483.50 216.30 L 498.80 208.20 L 514.40 200.60 L 530.00 193.40 L 545.90 186.50 L 561.90 180.10 L 578.10 174.20 L 594.50 168.60 L 611.00 163.50 L 627.70 158.80 L 644.40 154.50 L 661.30 150.60 L 678.30 147.20 L 695.50 144.30 L 712.70 141.80 L 730.00 139.70 L 747.30 138.10 L 764.80 136.90 L 782.30 136.20 L 800.00 136.00 L 817.70 136.20 L 835.20 136.90 L 852.70 138.10 L 870.00 139.70 L 887.30 141.80 L 904.50 144.30 L 921.70 147.20 L 938.70 150.60 L 955.60 154.50 L 972.30 158.80 L 989.00 163.50 L 1005.50 168.60 L 1021.90 174.20 L 1038.10 180.10 L 1054.10 186.50 L 1070.00 193.40 L 1085.60 200.60 L 1101.20 208.20 L 1116.50 216.30 L 1131.60 224.70 L 1146.40 233.50 L 1161.10 242.80 L 1175.50 252.40 L 1189.80 262.40 L 1203.70 272.80 L 1217.40 283.60 L 1230.80 294.70 L 1244.00 306.30 L 1256.90 318.20 L 1269.50 330.50 L 1281.80 343.10 L 1293.70 356.00 L 1305.30 369.20 L 1316.40 382.60 L 1327.20 396.30 L 1337.60 410.20 L 1347.60 424.50 L 1357.20 438.90 L 1366.50 453.60 L 1375.30 468.40 L 1383.70 483.50 L 1391.80 498.80 L 1399.40 514.40 L 1406.60 530.00 L 1413.50 545.90 L 1419.90 561.90 L 1425.80 578.10 L 1431.40 594.50 L 1436.50 611.00 L 1441.20 627.70 L 1445.50 644.40 L 1449.40 661.30 L 1452.80 678.30 L 1455.70 695.50 L 1458.20 712.70 L 1460.30 730.00 L 1461.90 747.30 L 1463.10 764.80 L 1463.80 782.30 L 1464.00 800.00 Z" fill="#ffffff" fill-rule="evenodd" node-id="203" stroke="none" target-height="1328" target-width="1328" target-x="136" target-y="136"></path></mask><mask height="16527.592" id="mask5" maskUnits="userSpaceOnUse" node-id="207" width="16527.592" x="-30327.201" y="5827.8745"><path d="M -21624.20 13564.80 L -21612.30 13577.90 L -21600.90 13591.20 L -21589.80 13604.70 L -21568.90 13632.60 L -21549.50 13661.40 L -21540.30 13676.20 L -21531.60 13691.20 L -21523.30 13706.30 L -21515.40 13721.70 L -21507.90 13737.30 L -21500.80 13753.10 L -21494.10 13769.00 L -21487.90 13785.10 L -21482.00 13801.30 L -21476.60 13817.70 L -21467.10 13851.00 L -21463.00 13867.80 L -21459.30 13884.70 L -21456.00 13901.70 L -21453.20 13918.80 L -21450.80 13936.10 L -21448.90 13953.40 L -21447.50 13970.70 L -21446.50 13988.10 L -21445.90 14005.60 L -21445.90 14023.20 L -21446.20 14040.80 L -21447.10 14058.40 L -21448.40 14076.00 L -21450.20 14093.40 L -21452.40 14110.70 L -21455.00 14127.80 L -21458.10 14145.00 L -21461.70 14162.00 L -21470.10 14195.60 L -21475.00 14212.20 L -21480.30 14228.70 L -21486.00 14245.00 L -21492.10 14261.20 L -21498.70 14277.20 L -21505.60 14293.00 L -21513.00 14308.60 L -21520.70 14324.00 L -21537.50 14354.30 L -21546.50 14369.10 L -21555.80 14383.60 L -21565.50 14398.00 L -21575.70 14412.10 L -21586.20 14425.90 L -21597.10 14439.50 L -21608.30 14452.80 L -21619.90 14465.80 L -21631.90 14478.60 L -21644.20 14491.00 L -21657.00 14503.30 L -21670.00 14515.10 L -21683.40 14526.60 L -21696.90 14537.60 L -21710.70 14548.30 L -21724.70 14558.60 L -21739.00 14568.50 L -21753.60 14578.00 L -21768.40 14587.10 L -21783.40 14595.80 L -21813.90 14612.00 L -21845.30 14626.70 L -21877.30 14639.60 L -21893.50 14645.40 L -21909.90 14650.80 L -21926.50 14655.80 L -21943.20 14660.40 L -21960.00 14664.50 L -21976.90 14668.20 L -21993.90 14671.40 L -22011.00 14674.20 L -22028.30 14676.60 L -22045.50 14678.50 L -22080.30 14681.00 L -22133.00 14681.20 L -22150.60 14680.40 L -22168.10 14679.10 L -22185.50 14677.30 L -22202.80 14675.10 L -22220.00 14672.40 L -22237.10 14669.30 L -22254.20 14665.70 L -22271.10 14661.80 L -22287.80 14657.30 L -22304.40 14652.50 L -22320.90 14647.20 L -22337.20 14641.50 L -22353.40 14635.30 L -22369.40 14628.80 L -22385.20 14621.80 L -22400.80 14614.50 L -22431.50 14598.50 L -22446.50 14590.00 L -22461.30 14581.00 L -22475.80 14571.70 L -22490.10 14561.90 L -22518.10 14541.30 L -22531.70 14530.40 L -22545.00 14519.20 L -22558.00 14507.60 L -22583.20 14483.20 L -22618.80 14444.10 L -22640.50 14416.70 L -22660.70 14388.40 L -22670.20 14373.80 L -22679.30 14359.10 L -22688.00 14344.10 L -22696.30 14328.90 L -22704.20 14313.60 L -22711.70 14298.00 L -22718.80 14282.20 L -22725.50 14266.30 L -22731.80 14250.20 L -22737.60 14233.90 L -22748.00 14201.00 L -22752.60 14184.30 L -22756.70 14167.50 L -22763.60 14133.60 L -22768.80 14099.20 L -22770.70 14081.90 L -22772.20 14064.60 L -22773.70 14029.70 L -22773.80 14012.10 L -22773.40 13994.50 L -22772.60 13976.80 L -22771.30 13959.30 L -22769.50 13941.90 L -22764.60 13907.40 L -22761.50 13890.30 L -22757.90 13873.30 L -22753.90 13856.40 L -22749.50 13839.60 L -22744.70 13823.00 L -22739.40 13806.60 L -22727.50 13774.10 L -22721.00 13758.10 L -22714.00 13742.30 L -22706.70 13726.70 L -22698.90 13711.20 L -22690.70 13696.00 L -22682.20 13681.00 L -22663.80 13651.60 L -22654.10 13637.30 L -22644.00 13623.20 L -22633.50 13609.30 L -22622.60 13595.80 L -22599.80 13569.50 L -22587.80 13556.70 L -22575.40 13544.20 L -22562.70 13532.00 L -22549.60 13520.10 L -22522.70 13497.60 L -22508.90 13487.00 L -22494.90 13476.70 L -22466.00 13457.30 L -22451.30 13448.10 L -22436.30 13439.40 L -22421.10 13431.10 L -22405.70 13423.20 L -22390.20 13415.70 L -22374.40 13408.60 L -22358.40 13401.90 L -22342.40 13395.70 L -22326.10 13389.80 L -22309.70 13384.40 L -22293.10 13379.40 L -22276.50 13374.90 L -22259.70 13370.80 L -22242.80 13367.10 L -22208.60 13361.00 L -22191.40 13358.70 L -22174.10 13356.70 L -22156.80 13355.30 L -22139.30 13354.30 L -22121.90 13353.70 L -22104.30 13353.70 L -22086.70 13354.00 L -22034.10 13358.00 L -21999.60 13362.80 L -21965.50 13369.50 L -21931.80 13377.90 L -21898.80 13388.10 L -21882.40 13393.80 L -21866.20 13399.90 L -21850.30 13406.50 L -21834.50 13413.40 L -21818.90 13420.80 L -21803.40 13428.50 L -21788.20 13436.70 L -21773.20 13445.30 L -21758.40 13454.30 L -21743.80 13463.60 L -21729.50 13473.30 L -21715.40 13483.50 L -21701.50 13494.00 L -21688.00 13504.90 L -21674.70 13516.10 L -21661.60 13527.70 L -21648.90 13539.70 L -21624.20 13564.80 Z" fill="#ffffff" fill-rule="evenodd" node-id="211" stroke="none" target-height="1327.5" target-width="1327.9004" target-x="-22773.8" target-y="13353.7"></path></mask></defs><g node-id="344"><g node-id="345"><path d="M 1464.00 800.00 L 1463.80 817.70 L 1463.10 835.20 L 1461.90 852.70 L 1460.30 870.00 L 1458.20 887.30 L 1455.70 904.50 L 1452.80 921.70 L 1449.40 938.70 L 1445.50 955.60 L 1441.20 972.30 L 1436.50 989.00 L 1431.40 1005.50 L 1425.80 1021.90 L 1419.90 1038.10 L 1413.50 1054.10 L 1406.60 1070.00 L 1399.40 1085.60 L 1391.80 1101.20 L 1383.70 1116.50 L 1375.30 1131.60 L 1366.50 1146.40 L 1357.20 1161.10 L 1347.60 1175.50 L 1337.60 1189.80 L 1327.20 1203.70 L 1316.40 1217.40 L 1305.30 1230.80 L 1293.70 1244.00 L 1281.80 1256.90 L 1269.50 1269.50 L 1256.90 1281.80 L 1244.00 1293.70 L 1230.80 1305.30 L 1217.40 1316.40 L 1203.70 1327.20 L 1189.80 1337.60 L 1175.50 1347.60 L 1161.10 1357.20 L 1146.40 1366.50 L 1131.60 1375.30 L 1116.50 1383.70 L 1101.20 1391.80 L 1085.60 1399.40 L 1070.00 1406.60 L 1054.10 1413.50 L 1038.10 1419.90 L 1021.90 1425.80 L 1005.50 1431.40 L 989.00 1436.50 L 972.30 1441.20 L 955.60 1445.50 L 938.70 1449.40 L 921.70 1452.80 L 904.50 1455.70 L 887.30 1458.20 L 870.00 1460.30 L 852.70 1461.90 L 835.20 1463.10 L 817.70 1463.80 L 800.00 1464.00 L 782.30 1463.80 L 764.80 1463.10 L 747.30 1461.90 L 730.00 1460.30 L 712.70 1458.20 L 695.50 1455.70 L 678.30 1452.80 L 661.30 1449.40 L 644.40 1445.50 L 627.70 1441.20 L 611.00 1436.50 L 594.50 1431.40 L 578.10 1425.80 L 561.90 1419.90 L 545.90 1413.50 L 530.00 1406.60 L 514.40 1399.40 L 498.80 1391.80 L 483.50 1383.70 L 468.40 1375.30 L 453.60 1366.50 L 438.90 1357.20 L 424.50 1347.60 L 410.20 1337.60 L 396.30 1327.20 L 382.60 1316.40 L 369.20 1305.30 L 356.00 1293.70 L 343.10 1281.80 L 330.50 1269.50 L 318.20 1256.90 L 306.30 1244.00 L 294.70 1230.80 L 283.60 1217.40 L 272.80 1203.70 L 262.40 1189.80 L 252.40 1175.50 L 242.80 1161.10 L 233.50 1146.40 L 224.70 1131.60 L 216.30 1116.50 L 208.20 1101.20 L 200.60 1085.60 L 193.40 1070.00 L 186.50 1054.10 L 180.10 1038.10 L 174.20 1021.90 L 168.60 1005.50 L 163.50 989.00 L 158.80 972.30 L 154.50 955.60 L 150.60 938.70 L 147.20 921.70 L 144.30 904.50 L 141.80 887.30 L 139.70 870.00 L 138.10 852.70 L 136.90 835.20 L 136.20 817.70 L 136.00 800.00 L 136.20 782.30 L 136.90 764.80 L 138.10 747.30 L 139.70 730.00 L 141.80 712.70 L 144.30 695.50 L 147.20 678.30 L 150.60 661.30 L 154.50 644.40 L 158.80 627.70 L 163.50 611.00 L 168.60 594.50 L 174.20 578.10 L 180.10 561.90 L 186.50 545.90 L 193.40 530.00 L 200.60 514.40 L 208.20 498.80 L 216.30 483.50 L 224.70 468.40 L 233.50 453.60 L 242.80 438.90 L 252.40 424.50 L 262.40 410.20 L 272.80 396.30 L 283.60 382.60 L 294.70 369.20 L 306.30 356.00 L 318.20 343.10 L 330.50 330.50 L 343.10 318.20 L 356.00 306.30 L 369.20 294.70 L 382.60 283.60 L 396.30 272.80 L 410.20 262.40 L 424.50 252.40 L 438.90 242.80 L 453.60 233.50 L 468.40 224.70 L 483.50 216.30 L 498.80 208.20 L 514.40 200.60 L 530.00 193.40 L 545.90 186.50 L 561.90 180.10 L 578.10 174.20 L 594.50 168.60 L 611.00 163.50 L 627.70 158.80 L 644.40 154.50 L 661.30 150.60 L 678.30 147.20 L 695.50 144.30 L 712.70 141.80 L 730.00 139.70 L 747.30 138.10 L 764.80 136.90 L 782.30 136.20 L 800.00 136.00 L 817.70 136.20 L 835.20 136.90 L 852.70 138.10 L 870.00 139.70 L 887.30 141.80 L 904.50 144.30 L 921.70 147.20 L 938.70 150.60 L 955.60 154.50 L 972.30 158.80 L 989.00 163.50 L 1005.50 168.60 L 1021.90 174.20 L 1038.10 180.10 L 1054.10 186.50 L 1070.00 193.40 L 1085.60 200.60 L 1101.20 208.20 L 1116.50 216.30 L 1131.60 224.70 L 1146.40 233.50 L 1161.10 242.80 L 1175.50 252.40 L 1189.80 262.40 L 1203.70 272.80 L 1217.40 283.60 L 1230.80 294.70 L 1244.00 306.30 L 1256.90 318.20 L 1269.50 330.50 L 1281.80 343.10 L 1293.70 356.00 L 1305.30 369.20 L 1316.40 382.60 L 1327.20 396.30 L 1337.60 410.20 L 1347.60 424.50 L 1357.20 438.90 L 1366.50 453.60 L 1375.30 468.40 L 1383.70 483.50 L 1391.80 498.80 L 1399.40 514.40 L 1406.60 530.00 L 1413.50 545.90 L 1419.90 561.90 L 1425.80 578.10 L 1431.40 594.50 L 1436.50 611.00 L 1441.20 627.70 L 1445.50 644.40 L 1449.40 661.30 L 1452.80 678.30 L 1455.70 695.50 L 1458.20 712.70 L 1460.30 730.00 L 1461.90 747.30 L 1463.10 764.80 L 1463.80 782.30 L 1464.00 800.00 Z" fill="#f0f4ff" fill-rule="evenodd" group-id="1,2" node-id="219" stroke="none" target-height="1328" target-width="1328" target-x="136" target-y="136"></path></g><g node-id="346"><path d="M 388.70 745.00 L 393.10 745.20 L 401.10 746.80 L 408.60 749.80 L 415.40 754.00 L 418.40 756.60 L 423.70 762.50 L 427.90 769.30 L 430.80 776.80 L 432.30 785.00 L 440.80 785.30 L 445.40 786.30 L 449.70 787.80 L 453.70 789.80 L 457.40 792.30 L 460.80 795.30 L 463.70 798.60 L 466.20 802.30 L 468.30 806.40 L 469.80 810.70 L 470.70 815.20 L 471.00 820.00 L 470.70 824.80 L 469.80 829.30 L 468.30 833.60 L 466.20 837.70 L 463.70 841.40 L 460.80 844.70 L 457.40 847.70 L 453.70 850.20 L 449.70 852.20 L 445.40 853.70 L 440.80 854.70 L 436.00 855.00 L 340.00 855.00 L 335.20 854.70 L 330.70 853.70 L 326.40 852.20 L 322.30 850.20 L 318.70 847.70 L 315.30 844.70 L 312.30 841.40 L 309.80 837.70 L 307.80 833.60 L 306.30 829.30 L 305.40 824.80 L 305.00 820.00 L 305.40 815.20 L 306.30 810.70 L 307.80 806.40 L 309.80 802.30 L 312.30 798.60 L 315.30 795.30 L 318.70 792.30 L 322.30 789.80 L 326.40 787.80 L 330.70 786.30 L 335.20 785.30 L 345.20 785.00 L 346.70 776.80 L 349.60 769.30 L 353.80 762.50 L 359.10 756.60 L 365.40 751.80 L 372.50 748.10 L 380.30 745.80 L 388.70 745.00 Z" fill="url(#linearGradient-3)" fill-opacity="0.33277312" fill-rule="evenodd" group-id="1,3" id="形状结合" node-id="45" stroke="none" target-height="110" target-width="166" target-x="305" target-y="745"></path></g><g node-id="347"><path d="M 1254.00 596.50 L 1258.50 596.80 L 1262.70 597.60 L 1266.70 598.90 L 1270.50 600.70 L 1274.00 602.90 L 1277.20 605.60 L 1280.10 608.60 L 1282.60 611.90 L 1284.70 615.50 L 1286.30 619.40 L 1287.50 623.50 L 1288.10 627.80 L 1294.80 628.10 L 1298.40 628.80 L 1301.70 630.00 L 1304.90 631.60 L 1307.80 633.50 L 1310.40 635.80 L 1312.70 638.50 L 1314.70 641.40 L 1316.30 644.60 L 1317.50 647.90 L 1318.20 651.50 L 1318.50 655.20 L 1318.20 659.00 L 1317.50 662.50 L 1316.30 665.90 L 1314.70 669.10 L 1312.70 672.00 L 1310.40 674.60 L 1307.80 676.90 L 1304.90 678.90 L 1301.70 680.50 L 1298.40 681.70 L 1294.80 682.40 L 1291.00 682.60 L 1215.90 682.60 L 1212.10 682.40 L 1208.60 681.70 L 1205.20 680.50 L 1202.00 678.90 L 1199.10 676.90 L 1196.50 674.60 L 1194.20 672.00 L 1192.20 669.10 L 1190.60 665.90 L 1189.40 662.50 L 1188.70 659.00 L 1188.50 655.20 L 1188.70 651.50 L 1189.40 647.90 L 1190.60 644.60 L 1192.20 641.40 L 1194.20 638.50 L 1196.50 635.80 L 1199.10 633.50 L 1202.00 631.60 L 1205.20 630.00 L 1208.60 628.80 L 1212.10 628.10 L 1219.90 627.80 L 1220.60 623.50 L 1221.70 619.40 L 1223.30 615.50 L 1225.40 611.90 L 1227.90 608.60 L 1230.80 605.60 L 1234.00 602.90 L 1237.50 600.70 L 1241.30 598.90 L 1245.30 597.60 L 1249.50 596.80 L 1254.00 596.50 Z" fill="url(#linearGradient-4)" fill-opacity="0.33277312" fill-rule="evenodd" group-id="1,4" id="形状结合备份" node-id="46" stroke="none" target-height="86.099976" target-width="130" target-x="1188.5" target-y="596.5"></path></g><g node-id="348"><path d="M 444.00 1355.00 L 462.50 1354.70 L 481.10 1353.80 L 499.80 1352.30 L 518.50 1350.20 L 537.10 1347.50 L 555.50 1344.30 L 573.90 1340.60 L 591.80 1336.40 L 609.40 1331.70 L 626.90 1326.40 L 643.70 1320.80 L 659.80 1314.80 L 683.40 1304.80 L 704.90 1294.20 L 715.40 1288.40 L 725.30 1282.50 L 734.40 1276.40 L 743.00 1270.30 L 751.50 1263.70 L 759.20 1257.10 L 766.10 1250.40 L 772.40 1243.70 L 777.20 1237.90 L 781.50 1232.10 L 785.30 1226.30 L 788.50 1220.60 L 791.30 1214.70 L 793.70 1208.70 L 795.60 1202.60 L 796.90 1196.40 L 797.70 1190.30 L 798.00 1184.00 L 797.70 1177.80 L 796.90 1171.60 L 795.60 1165.50 L 793.70 1159.40 L 791.30 1153.30 L 788.50 1147.50 L 785.30 1141.70 L 781.50 1135.90 L 777.20 1130.10 L 772.40 1124.30 L 766.10 1117.60 L 759.20 1110.90 L 751.50 1104.30 L 743.00 1097.70 L 734.40 1091.60 L 725.30 1085.60 L 715.40 1079.60 L 704.90 1073.80 L 683.40 1063.20 L 659.80 1053.20 L 643.70 1047.20 L 626.90 1041.60 L 609.40 1036.40 L 591.80 1031.70 L 573.90 1027.40 L 555.50 1023.70 L 537.10 1020.50 L 518.50 1017.90 L 499.80 1015.80 L 481.10 1014.20 L 462.50 1013.30 L 444.00 1013.00 L 426.20 1013.30 L 408.80 1014.20 L 391.80 1015.60 L 375.30 1017.50 L 358.60 1020.00 L 342.60 1023.00 L 327.10 1026.50 L 312.10 1030.40 L 297.20 1034.90 L 282.90 1039.80 L 269.30 1045.00 L 256.40 1050.60 L 246.10 1055.50 L 236.30 1060.70 L 227.00 1066.00 L 218.30 1071.40 L 210.00 1077.10 L 201.70 1083.20 L 194.10 1089.40 L 187.00 1095.80 L 180.50 1102.20 L 174.60 1108.80 L 168.80 1115.90 L 163.70 1123.00 L 159.30 1130.20 L 155.30 1137.40 L 152.00 1144.80 L 149.20 1152.50 L 146.90 1160.20 L 145.40 1168.00 L 144.40 1175.90 L 144.10 1184.00 L 144.40 1192.10 L 145.40 1200.00 L 146.90 1207.80 L 149.20 1215.60 L 152.00 1223.20 L 155.30 1230.60 L 159.30 1237.90 L 163.70 1245.10 L 168.80 1252.20 L 174.60 1259.20 L 180.50 1265.80 L 187.00 1272.30 L 194.10 1278.60 L 201.70 1284.80 L 210.00 1291.00 L 218.30 1296.60 L 227.00 1302.10 L 236.30 1307.40 L 246.10 1312.50 L 256.40 1317.40 L 269.30 1323.00 L 282.90 1328.30 L 297.20 1333.10 L 312.10 1337.60 L 327.10 1341.50 L 342.60 1345.00 L 358.60 1348.00 L 375.30 1350.50 L 391.80 1352.40 L 408.80 1353.80 L 426.20 1354.70 L 444.00 1355.00 Z" fill="url(#linearGradient-5)" fill-rule="evenodd" group-id="1,5" id="椭圆形" node-id="47" stroke="none" target-height="342" target-width="653.9" target-x="144.1" target-y="1013"></path></g><g node-id="349"><path d="M 1132.50 1058.50 L 1146.90 1058.80 L 1161.40 1059.70 L 1176.00 1061.10 L 1190.60 1063.00 L 1205.00 1065.50 L 1219.20 1068.50 L 1233.20 1071.90 L 1246.80 1075.80 L 1259.90 1080.10 L 1272.80 1084.90 L 1285.00 1090.00 L 1296.30 1095.40 L 1304.70 1099.90 L 1312.50 1104.40 L 1319.70 1109.10 L 1326.40 1113.90 L 1332.90 1119.10 L 1338.70 1124.30 L 1343.70 1129.60 L 1348.20 1134.90 L 1351.40 1139.50 L 1354.20 1144.10 L 1356.50 1148.70 L 1358.30 1153.30 L 1359.60 1158.00 L 939.90 1158.00 L 941.10 1152.50 L 942.70 1147.10 L 944.80 1141.80 L 947.40 1136.50 L 950.50 1131.20 L 954.80 1125.10 L 959.70 1119.10 L 965.30 1113.20 L 971.70 1107.40 L 978.40 1102.10 L 985.60 1097.00 L 993.50 1092.00 L 1002.10 1087.30 L 1010.80 1083.10 L 1020.00 1079.10 L 1029.70 1075.30 L 1040.00 1071.90 L 1050.40 1068.90 L 1061.10 1066.30 L 1072.30 1063.90 L 1084.00 1062.00 L 1095.60 1060.50 L 1107.60 1059.40 L 1119.90 1058.70 L 1132.50 1058.50 Z" fill="url(#linearGradient-6)" fill-opacity="0.5517084" fill-rule="evenodd" group-id="1,6" id="形状结合" node-id="48" stroke="none" target-height="99.5" target-width="419.69995" target-x="939.9" target-y="1058.5"></path></g><g node-id="350"><path d="M 92.00 1158.00 L 1494.00 1158.00 L 1494.00 1464.00 L 92.00 1464.00 Z" fill="url(#linearGradient-7)" fill-rule="evenodd" group-id="1,7" id="矩形" node-id="49" stroke="none" target-height="306" target-width="1402" target-x="92" target-y="1158"></path></g><g node-id="351"><g node-id="352"><g node-id="353"><g node-id="355"><g node-id="367"><path d="M 495.60 1198.10 L 545.90 1169.10 L 549.90 1167.60 L 554.00 1167.60 L 557.80 1169.00 L 561.00 1171.60 L 563.70 1176.30 L 564.40 1180.40 L 563.60 1184.40 L 561.60 1188.00 L 558.40 1190.70 L 508.10 1219.70 L 504.10 1221.20 L 500.00 1221.10 L 496.20 1219.70 L 493.00 1217.10 L 491.70 1215.30 L 490.30 1212.40 L 489.60 1208.40 L 490.30 1204.40 L 492.40 1200.80 L 495.60 1198.10 Z" fill="url(#linearGradient1)" fill-rule="evenodd" filter="url(#filter-9)" group-id="1,8,9,10,12,24" id="矩形" node-id="54" stroke="none" target-height="53.599976" target-width="74.80002" target-x="489.6" target-y="1167.6"></path></g><g node-id="368"><path d="M 1173.60 1198.10 L 1223.90 1169.10 L 1227.90 1167.60 L 1232.00 1167.60 L 1235.80 1169.00 L 1239.00 1171.60 L 1240.20 1173.40 L 1241.70 1176.30 L 1242.40 1180.40 L 1241.60 1184.40 L 1239.60 1188.00 L 1236.40 1190.70 L 1186.10 1219.70 L 1182.10 1221.20 L 1178.00 1221.10 L 1174.20 1219.70 L 1172.50 1218.60 L 1171.00 1217.10 L 1169.20 1214.40 L 1168.30 1212.40 L 1167.60 1208.40 L 1168.30 1204.40 L 1170.40 1200.80 L 1173.60 1198.10 Z" fill="url(#linearGradient-8)" fill-rule="evenodd" filter="url(#filter-10)" group-id="1,8,9,10,12,25" id="矩形备份-11" node-id="55" stroke="none" target-height="53.599976" target-width="74.80005" target-x="1167.6" target-y="1167.6"></path></g><g node-id="369"><path d="M 501.20 1221.70 L 469.30 1221.70 L 467.60 1221.50 L 466.20 1220.90 L 464.00 1218.70 L 463.50 1217.30 L 463.20 1215.60 L 463.20 998.60 L 463.50 997.00 L 464.00 995.60 L 465.00 994.30 L 466.20 993.40 L 467.60 992.80 L 469.30 992.60 L 501.20 992.60 L 502.80 992.80 L 504.20 993.40 L 506.40 995.60 L 507.00 997.00 L 507.20 998.60 L 507.20 1215.60 L 507.00 1217.30 L 506.40 1218.70 L 505.50 1219.90 L 504.20 1220.90 L 502.80 1221.50 L 501.20 1221.70 Z" fill="#95affe" fill-rule="evenodd" group-id="1,8,9,10,12,26" id="矩形备份-7" node-id="56" stroke="none" target-height="229.09998" target-width="44" target-x="463.2" target-y="992.6"></path></g><g node-id="370"><path d="M 577.00 1102.60 L 577.00 1134.40 L 576.80 1136.10 L 576.20 1137.50 L 575.30 1138.70 L 574.00 1139.70 L 571.00 1140.50 L 331.20 1140.50 L 329.60 1140.30 L 328.10 1139.70 L 326.00 1137.50 L 325.40 1136.10 L 325.10 1134.40 L 325.10 1102.60 L 325.40 1100.90 L 326.00 1099.50 L 328.10 1097.30 L 329.60 1096.70 L 331.20 1096.50 L 571.00 1096.50 L 572.60 1096.70 L 575.30 1098.30 L 576.20 1099.50 L 576.80 1100.90 L 577.00 1102.60 Z" fill="#83a2ff" fill-rule="evenodd" group-id="1,8,9,10,12,27" id="矩形备份-6" node-id="57" stroke="none" target-height="44" target-width="251.9" target-x="325.1" target-y="1096.5"></path></g><g node-id="371"><path d="M 484.70 944.80 L 511.50 971.60 L 512.20 972.70 L 512.40 973.80 L 512.20 974.90 L 511.50 975.90 L 351.10 1136.30 L 348.80 1138.30 L 343.80 1141.20 L 341.20 1142.10 L 337.40 1142.70 L 333.70 1142.70 L 330.00 1142.10 L 324.70 1140.00 L 320.00 1136.30 L 318.00 1134.00 L 316.40 1131.60 L 314.30 1126.40 L 313.60 1122.60 L 313.60 1118.90 L 314.30 1115.20 L 316.40 1110.00 L 318.00 1107.50 L 320.00 1105.20 L 480.40 944.80 L 481.40 944.10 L 482.60 943.90 L 483.70 944.10 L 484.70 944.80 Z" fill="#9ab3ff" fill-rule="evenodd" group-id="1,8,9,10,12,28" id="矩形" node-id="58" stroke="none" target-height="198.79993" target-width="198.80002" target-x="313.6" target-y="943.9"></path></g><path d="M 344.40 1118.50 L 343.80 1121.90 L 343.10 1123.40 L 341.60 1125.30 L 339.60 1126.80 L 338.10 1127.50 L 334.80 1128.10 L 331.40 1127.50 L 329.90 1126.80 L 328.00 1125.30 L 326.40 1123.40 L 325.30 1120.30 L 325.10 1118.50 L 325.70 1115.10 L 326.40 1113.70 L 328.00 1111.70 L 329.90 1110.20 L 331.40 1109.50 L 334.80 1108.90 L 338.10 1109.50 L 339.60 1110.20 L 341.60 1111.70 L 343.10 1113.70 L 343.80 1115.10 L 344.40 1118.50 Z" fill="#ffbdbd" fill-rule="evenodd" group-id="1,8,9,10,12" id="椭圆形" node-id="59" stroke="none" target-height="19.199951" target-width="19.299988" target-x="325.1" target-y="1108.9"></path></g><g node-id="356"><g node-id="372"><path d="M 1186.60 1221.70 L 1154.70 1221.70 L 1153.10 1221.50 L 1151.60 1220.90 L 1150.40 1219.90 L 1149.50 1218.70 L 1148.60 1215.60 L 1148.60 998.60 L 1148.90 997.00 L 1149.50 995.60 L 1150.40 994.30 L 1153.10 992.80 L 1154.70 992.60 L 1186.60 992.60 L 1188.20 992.80 L 1189.60 993.40 L 1191.80 995.60 L 1192.60 998.60 L 1192.60 1215.60 L 1192.40 1217.30 L 1191.80 1218.70 L 1190.90 1219.90 L 1189.60 1220.90 L 1188.20 1221.50 L 1186.60 1221.70 Z" fill="#95affe" fill-rule="evenodd" group-id="1,8,9,10,13,29" id="矩形备份-7" node-id="61" stroke="none" target-height="229.09998" target-width="44" target-x="1148.6" target-y="992.6"></path></g><g node-id="373"><path d="M 1262.50 1102.60 L 1262.50 1134.40 L 1262.20 1136.10 L 1261.60 1137.50 L 1259.40 1139.70 L 1258.00 1140.30 L 1256.40 1140.50 L 1016.60 1140.50 L 1015.00 1140.30 L 1013.60 1139.70 L 1012.30 1138.70 L 1011.40 1137.50 L 1010.80 1136.10 L 1010.50 1134.40 L 1010.50 1102.60 L 1010.80 1100.90 L 1011.40 1099.50 L 1012.30 1098.30 L 1013.60 1097.30 L 1016.60 1096.50 L 1256.40 1096.50 L 1258.00 1096.70 L 1259.40 1097.30 L 1260.70 1098.30 L 1261.60 1099.50 L 1262.20 1100.90 L 1262.50 1102.60 Z" fill="#83a2ff" fill-rule="evenodd" group-id="1,8,9,10,13,30" id="矩形备份-6" node-id="62" stroke="none" target-height="44" target-width="252" target-x="1010.5" target-y="1096.5"></path></g><g node-id="374"><path d="M 1170.10 944.80 L 1197.00 971.60 L 1197.60 972.70 L 1197.80 973.80 L 1197.60 974.90 L 1197.00 975.90 L 1036.50 1136.30 L 1034.20 1138.30 L 1029.30 1141.20 L 1026.60 1142.10 L 1022.80 1142.70 L 1019.10 1142.70 L 1015.40 1142.10 L 1010.20 1140.00 L 1005.40 1136.30 L 1003.40 1134.00 L 1001.80 1131.60 L 1000.60 1129.10 L 999.70 1126.40 L 999.10 1122.60 L 999.10 1118.90 L 999.70 1115.20 L 1001.80 1110.00 L 1003.40 1107.50 L 1005.40 1105.20 L 1165.80 944.80 L 1166.90 944.10 L 1168.00 943.90 L 1169.10 944.10 L 1170.10 944.80 Z" fill="#9ab3ff" fill-rule="evenodd" group-id="1,8,9,10,13,31" id="矩形" node-id="63" stroke="none" target-height="198.79993" target-width="198.70007" target-x="999.1" target-y="943.9"></path></g><path d="M 1029.80 1118.50 L 1029.20 1121.90 L 1028.50 1123.40 L 1027.00 1125.30 L 1025.00 1126.80 L 1023.50 1127.50 L 1020.20 1128.10 L 1016.80 1127.50 L 1015.30 1126.80 L 1013.40 1125.30 L 1011.90 1123.40 L 1010.70 1120.30 L 1010.50 1118.50 L 1011.20 1115.10 L 1013.40 1111.70 L 1015.30 1110.20 L 1016.80 1109.50 L 1020.20 1108.90 L 1023.50 1109.50 L 1027.00 1111.70 L 1028.50 1113.70 L 1029.20 1115.10 L 1029.80 1118.50 Z" fill="#ffbdbd" fill-rule="evenodd" group-id="1,8,9,10,13" id="椭圆形" node-id="64" stroke="none" target-height="19.199951" target-width="19.300049" target-x="1010.5" target-y="1108.9"></path></g><path d="M 673.40 1032.80 L 914.70 1032.80 L 917.80 1033.60 L 919.00 1034.60 L 920.00 1035.80 L 920.60 1037.20 L 920.80 1038.80 L 920.80 1176.90 L 920.00 1180.00 L 919.00 1181.20 L 917.80 1182.20 L 916.40 1182.80 L 914.70 1183.00 L 673.40 1183.00 L 670.40 1182.20 L 669.10 1181.20 L 668.20 1180.00 L 667.40 1176.90 L 667.40 1038.80 L 667.60 1037.20 L 669.10 1034.60 L 670.40 1033.60 L 671.80 1033.00 L 673.40 1032.80 Z" fill="#7e9dfb" fill-rule="evenodd" group-id="1,8,9,10" id="矩形备份-8" node-id="65" stroke="none" target-height="150.19995" target-width="253.39996" target-x="667.4" target-y="1032.8"></path><g node-id="357"><g node-id="375"><g node-id="380"><path d="M 702.70 1057.40 L 703.60 1057.60 L 704.30 1058.20 L 704.90 1060.20 L 703.10 1073.10 L 687.00 1073.10 L 686.00 1072.90 L 685.30 1072.40 L 684.80 1070.60 L 686.60 1057.40 L 702.70 1057.40 Z M 693.40 1060.90 L 692.00 1069.50 L 696.20 1069.50 L 697.70 1060.90 L 693.40 1060.90 Z" fill="#ffffff" fill-rule="nonzero" group-id="1,8,9,10,14,32,37" node-id="289" stroke="none" target-height="15.699951" target-width="20.100037" target-x="684.8" target-y="1057.4"></path></g><path d="M 702.70 1057.40 L 703.60 1057.60 L 704.30 1058.20 L 704.90 1060.20 L 703.10 1073.10 L 687.00 1073.10 L 686.00 1072.90 L 685.30 1072.40 L 684.80 1070.60 L 686.60 1057.40 L 702.70 1057.40 Z M 693.40 1060.90 L 692.00 1069.50 L 696.20 1069.50 L 697.70 1060.90 L 693.40 1060.90 Z" fill="#ffffff" fill-opacity="0.7077364" fill-rule="nonzero" group-id="1,8,9,10,14,32,38" node-id="294" stroke="none" target-height="15.699951" target-width="20.100037" target-x="684.8" target-y="1057.4"></path></g><g node-id="376"><g node-id="382"><path d="M 729.50 1057.40 L 730.50 1057.60 L 731.10 1058.20 L 731.70 1060.20 L 729.90 1073.10 L 713.80 1073.10 L 712.80 1072.90 L 712.20 1072.40 L 711.60 1070.60 L 713.40 1057.40 L 729.50 1057.40 Z M 720.20 1060.90 L 718.80 1069.50 L 723.10 1069.50 L 724.50 1060.90 L 720.20 1060.90 Z" fill="#ffffff" fill-rule="nonzero" group-id="1,8,9,10,14,33,39" node-id="301" stroke="none" target-height="15.699951" target-width="20.100037" target-x="711.6" target-y="1057.4"></path></g><path d="M 729.50 1057.40 L 730.50 1057.60 L 731.10 1058.20 L 731.70 1060.20 L 729.90 1073.10 L 713.80 1073.10 L 712.80 1072.90 L 712.20 1072.40 L 711.60 1070.60 L 713.40 1057.40 L 729.50 1057.40 Z M 720.20 1060.90 L 718.80 1069.50 L 723.10 1069.50 L 724.50 1060.90 L 720.20 1060.90 Z" fill="#ffffff" fill-opacity="0.7077364" fill-rule="nonzero" group-id="1,8,9,10,14,33,40" node-id="306" stroke="none" target-height="15.699951" target-width="20.100037" target-x="711.6" target-y="1057.4"></path></g><g node-id="377"><g node-id="384"><path d="M 760.40 1057.40 L 758.60 1070.60 L 758.20 1071.60 L 757.50 1072.40 L 755.70 1073.10 L 746.80 1073.10 L 745.60 1080.90 L 738.40 1080.90 L 741.70 1058.40 L 740.70 1057.40 L 760.40 1057.40 Z M 748.60 1060.90 L 747.20 1069.80 L 751.50 1069.80 L 752.90 1060.90 L 748.60 1060.90 Z" fill="#ffffff" fill-rule="nonzero" group-id="1,8,9,10,14,34,41" node-id="313" stroke="none" target-height="23.5" target-width="22" target-x="738.4" target-y="1057.4"></path></g><path d="M 760.40 1057.40 L 758.60 1070.60 L 758.20 1071.60 L 757.50 1072.40 L 755.70 1073.10 L 746.80 1073.10 L 745.60 1080.90 L 738.40 1080.90 L 741.70 1058.40 L 740.70 1057.40 L 760.40 1057.40 Z M 748.60 1060.90 L 747.20 1069.80 L 751.50 1069.80 L 752.90 1060.90 L 748.60 1060.90 Z" fill="#ffffff" fill-opacity="0.7077364" fill-rule="nonzero" group-id="1,8,9,10,14,34,42" node-id="318" stroke="none" target-height="23.5" target-width="22" target-x="738.4" target-y="1057.4"></path></g><g node-id="378"><g node-id="386"><path d="M 778.20 1069.50 L 778.60 1067.00 L 767.80 1067.00 L 769.30 1057.40 L 786.50 1057.40 L 785.70 1062.00 L 779.60 1062.00 L 779.70 1060.90 L 775.40 1060.90 L 775.00 1063.40 L 785.40 1063.40 L 784.70 1070.60 L 783.50 1072.40 L 781.50 1073.10 L 767.10 1073.10 L 767.80 1068.10 L 768.90 1069.50 L 778.20 1069.50 Z" fill="#ffffff" fill-rule="nonzero" group-id="1,8,9,10,14,35,43" node-id="325" stroke="none" target-height="15.699951" target-width="19.400024" target-x="767.1" target-y="1057.4"></path></g><path d="M 778.20 1069.50 L 778.60 1067.00 L 767.80 1067.00 L 769.30 1057.40 L 786.50 1057.40 L 785.70 1062.00 L 779.60 1062.00 L 779.70 1060.90 L 775.40 1060.90 L 775.00 1063.40 L 785.40 1063.40 L 784.70 1070.60 L 783.50 1072.40 L 781.50 1073.10 L 767.10 1073.10 L 767.80 1068.10 L 768.90 1069.50 L 778.20 1069.50 Z" fill="#ffffff" fill-opacity="0.7077364" fill-rule="nonzero" group-id="1,8,9,10,14,35,44" node-id="330" stroke="none" target-height="15.699951" target-width="19.400024" target-x="767.1" target-y="1057.4"></path></g><g node-id="379"><g node-id="388"><path d="M 807.70 1064.40 L 813.60 1062.60 L 812.90 1067.20 L 807.00 1068.90 L 799.10 1066.20 L 793.00 1067.90 L 793.70 1063.30 L 799.60 1061.60 Z" fill="#ffffff" fill-rule="nonzero" group-id="1,8,9,10,14,36,45" node-id="337" stroke="none" target-height="7.300049" target-width="20.599976" target-x="793" target-y="1061.6"></path></g><path d="M 807.70 1064.40 L 813.60 1062.60 L 812.90 1067.20 L 807.00 1068.90 L 799.10 1066.20 L 793.00 1067.90 L 793.70 1063.30 L 799.60 1061.60 Z" fill="#ffffff" fill-opacity="0.7077364" fill-rule="nonzero" group-id="1,8,9,10,14,36,46" node-id="342" stroke="none" target-height="7.300049" target-width="20.599976" target-x="793" target-y="1061.6"></path></g></g><path d="M 653.30 970.90 L 934.80 970.90 L 936.50 971.20 L 937.90 971.80 L 940.10 973.90 L 940.70 975.40 L 940.90 977.00 L 940.90 1025.60 L 940.70 1027.20 L 940.10 1028.60 L 937.90 1030.80 L 936.50 1031.40 L 934.80 1031.60 L 653.30 1031.60 L 651.70 1031.40 L 650.30 1030.80 L 649.00 1029.90 L 648.10 1028.60 L 647.50 1027.20 L 647.20 1025.60 L 647.20 977.00 L 647.50 975.40 L 648.10 973.90 L 649.00 972.70 L 650.30 971.80 L 651.70 971.20 L 653.30 970.90 Z" fill="#cfdcff" fill-rule="evenodd" group-id="1,8,9,10" id="矩形" node-id="82" stroke="#ffffff" stroke-linecap="butt" stroke-width="2.259434" target-height="60.69995" target-width="293.7" target-x="647.2" target-y="970.9"></path><path d="M 920.80 1002.80 L 920.10 1006.40 L 918.40 1009.40 L 915.70 1011.60 L 914.10 1012.40 L 910.50 1013.00 L 907.00 1012.40 L 905.40 1011.60 L 902.70 1009.40 L 900.90 1006.40 L 900.30 1002.80 L 900.90 999.20 L 901.70 997.60 L 903.90 995.00 L 907.00 993.20 L 910.50 992.60 L 914.10 993.20 L 917.10 995.00 L 919.40 997.60 L 920.10 999.20 L 920.80 1002.80 Z" fill="#95affe" fill-rule="evenodd" group-id="1,8,9,10" id="椭圆形" node-id="83" stroke="none" target-height="20.400024" target-width="20.5" target-x="900.3" target-y="992.6"></path><path d="M 653.30 1096.90 L 934.80 1096.90 L 936.50 1097.10 L 937.90 1097.70 L 939.10 1098.70 L 940.10 1099.90 L 940.90 1103.00 L 940.90 1151.50 L 940.10 1154.60 L 937.90 1156.80 L 936.50 1157.40 L 934.80 1157.60 L 653.30 1157.60 L 651.70 1157.40 L 650.30 1156.80 L 649.00 1155.80 L 648.10 1154.60 L 647.50 1153.20 L 647.20 1151.50 L 647.20 1103.00 L 647.50 1101.30 L 648.10 1099.90 L 649.00 1098.70 L 651.70 1097.10 L 653.30 1096.90 Z" fill="#cfdcff" fill-rule="evenodd" group-id="1,8,9,10" id="矩形备份-9" node-id="84" stroke="#ffffff" stroke-linecap="butt" stroke-width="2.259434" target-height="60.69995" target-width="293.7" target-x="647.2" target-y="1096.9"></path><path d="M 653.30 1169.70 L 934.80 1169.70 L 936.50 1170.00 L 937.90 1170.50 L 940.10 1172.70 L 940.90 1175.80 L 940.90 1224.40 L 940.70 1226.00 L 940.10 1227.40 L 939.10 1228.70 L 937.90 1229.60 L 936.50 1230.20 L 934.80 1230.40 L 653.30 1230.40 L 651.70 1230.20 L 650.30 1229.60 L 648.10 1227.40 L 647.50 1226.00 L 647.20 1224.40 L 647.20 1175.80 L 647.50 1174.10 L 648.10 1172.70 L 649.00 1171.50 L 650.30 1170.50 L 651.70 1170.00 L 653.30 1169.70 Z" fill="#cfdcff" fill-rule="evenodd" group-id="1,8,9,10" id="矩形备份-10" node-id="85" stroke="#ffffff" stroke-linecap="butt" stroke-width="2.259434" target-height="60.700073" target-width="293.7" target-x="647.2" target-y="1169.7"></path><path d="M 920.80 1127.20 L 920.10 1130.80 L 918.40 1133.80 L 915.70 1136.10 L 914.10 1136.80 L 910.50 1137.50 L 907.00 1136.80 L 905.40 1136.10 L 902.70 1133.80 L 900.90 1130.80 L 900.30 1127.20 L 900.90 1123.70 L 901.70 1122.10 L 903.90 1119.40 L 907.00 1117.60 L 910.50 1117.00 L 914.10 1117.60 L 917.20 1119.40 L 919.40 1122.10 L 920.10 1123.70 L 920.80 1127.20 Z" fill="#95affe" fill-rule="evenodd" group-id="1,8,9,10" id="椭圆形备份-22" node-id="86" stroke="none" target-height="20.5" target-width="20.5" target-x="900.3" target-y="1117"></path><path d="M 920.80 1200.10 L 920.10 1203.70 L 919.40 1205.20 L 917.20 1207.90 L 914.10 1209.70 L 910.50 1210.30 L 907.00 1209.70 L 903.90 1207.90 L 901.70 1205.20 L 900.50 1201.90 L 900.50 1198.20 L 900.90 1196.50 L 902.70 1193.50 L 905.40 1191.20 L 907.00 1190.50 L 910.50 1189.80 L 914.10 1190.50 L 917.10 1192.30 L 919.40 1194.90 L 920.10 1196.50 L 920.80 1200.10 Z" fill="#95affe" fill-rule="evenodd" group-id="1,8,9,10" id="椭圆形备份-23" node-id="87" stroke="none" target-height="20.5" target-width="20.299988" target-x="900.5" target-y="1189.8"></path></g><g node-id="354"><path d="M 1006.40 641.90 L 1006.10 648.90 L 1005.30 655.60 L 1003.90 662.20 L 1002.10 668.70 L 999.70 675.00 L 996.90 681.10 L 993.60 687.00 L 989.80 692.80 L 985.70 698.20 L 981.20 703.40 L 976.20 708.40 L 970.90 713.20 L 965.30 717.50 L 959.30 721.60 L 953.00 725.40 L 946.30 728.90 L 939.50 732.00 L 932.40 734.70 L 925.10 737.10 L 917.40 739.10 L 909.70 740.60 L 901.70 741.70 L 893.60 742.40 L 885.20 742.70 L 876.80 742.40 L 868.60 741.70 L 860.70 740.60 L 852.90 739.10 L 845.20 737.10 L 837.90 734.70 L 830.80 732.00 L 824.00 728.90 L 817.30 725.40 L 811.00 721.60 L 805.10 717.50 L 799.40 713.20 L 794.10 708.40 L 789.10 703.40 L 784.60 698.20 L 780.50 692.80 L 776.70 687.00 L 773.40 681.10 L 770.60 675.00 L 768.30 668.70 L 766.40 662.20 L 765.00 655.60 L 764.20 648.90 L 763.90 641.90 L 764.20 635.00 L 765.00 628.20 L 766.40 621.60 L 768.30 615.10 L 770.60 608.80 L 773.40 602.70 L 776.70 596.80 L 780.50 591.10 L 784.60 585.60 L 789.10 580.40 L 794.10 575.40 L 799.40 570.70 L 805.10 566.30 L 811.00 562.20 L 817.30 558.40 L 824.00 554.90 L 830.80 551.80 L 837.90 549.10 L 845.20 546.80 L 852.90 544.80 L 860.70 543.20 L 868.60 542.10 L 876.80 541.40 L 885.20 541.20 L 893.60 541.40 L 901.70 542.10 L 909.70 543.20 L 917.40 544.80 L 925.10 546.80 L 932.40 549.10 L 939.50 551.80 L 946.30 554.90 L 953.00 558.40 L 959.30 562.20 L 965.30 566.30 L 970.90 570.70 L 976.20 575.40 L 981.20 580.40 L 985.70 585.60 L 989.80 591.10 L 993.60 596.80 L 996.90 602.70 L 999.70 608.80 L 1002.10 615.10 L 1003.90 621.60 L 1005.30 628.20 L 1006.10 635.00 L 1006.40 641.90 Z" fill="url(#linearGradient-16)" fill-rule="evenodd" group-id="1,8,9,11" id="椭圆形" node-id="89" stroke="none" target-height="201.5" target-width="242.5" target-x="763.9" target-y="541.2"></path><g node-id="358"><path d="M 1176.90 720.90 L 1176.00 723.50 L 1174.60 725.90 L 1172.60 728.30 L 1169.80 730.70 L 1166.00 733.00 L 1161.40 735.20 L 1155.70 737.30 L 1148.70 739.30 L 1140.40 741.10 L 1129.40 742.80 L 1116.60 744.10 L 1101.70 745.00 L 1086.90 745.50 L 1070.40 745.50 L 1052.10 745.00 L 1014.40 742.70 L 972.50 738.70 L 927.50 732.70 L 904.60 729.20 L 856.40 720.50 L 808.50 710.50 L 785.90 705.20 L 741.90 693.80 L 701.60 681.90 L 665.70 669.90 L 648.60 663.50 L 633.30 657.30 L 619.70 651.30 L 606.20 644.90 L 594.90 638.80 L 585.40 633.20 L 578.30 628.40 L 572.60 624.00 L 568.10 619.90 L 564.60 616.10 L 562.00 612.60 L 560.30 609.30 L 559.30 606.30 L 558.90 603.50 L 559.10 600.80 L 559.90 598.30 L 561.30 595.80 L 563.40 593.40 L 566.20 591.10 L 569.90 588.70 L 574.60 586.60 L 580.30 584.50 L 587.20 582.50 L 595.60 580.70 L 606.50 579.00 L 619.30 577.70 L 634.20 576.70 L 649.10 576.30 L 665.60 576.30 L 683.80 576.80 L 702.00 577.70 L 721.60 579.00 L 763.50 583.10 L 808.40 589.00 L 831.40 592.60 L 879.60 601.20 L 927.50 611.30 L 950.10 616.60 L 994.00 627.90 L 1034.40 639.80 L 1070.20 651.90 L 1087.30 658.30 L 1102.60 664.50 L 1116.30 670.40 L 1129.70 676.90 L 1141.10 682.90 L 1150.60 688.60 L 1157.70 693.40 L 1163.40 697.80 L 1167.90 701.90 L 1171.40 705.70 L 1174.00 709.20 L 1175.70 712.40 L 1176.70 715.40 L 1177.10 718.20 L 1176.90 720.90 Z" fill="#c8d6ff" fill-rule="evenodd" group-id="1,8,9,11,15" id="椭圆形" node-id="90" stroke="none" target-height="169.20001" target-width="618.19995" target-x="558.9" target-y="576.3"></path></g><g node-id="359"><path d="M 647.90 589.00 L 647.10 590.30 L 643.30 592.10 L 635.80 593.70 L 631.20 594.20 L 626.60 594.30 L 619.00 593.80 L 616.40 593.20 L 614.20 592.00 L 614.20 590.70 L 614.80 590.00 L 618.60 588.30 L 626.10 586.70 L 630.70 586.20 L 635.30 586.00 L 642.90 586.50 L 646.90 587.80 L 647.90 589.00 Z" fill="#ffffff" fill-opacity="0.41434762" fill-rule="evenodd" group-id="1,8,9,11,16" id="椭圆形" node-id="91" stroke="none" target-height="8.299988" target-width="33.700012" target-x="614.2" target-y="586"></path></g><g node-id="360"><path d="M 744.40 593.50 L 743.50 594.70 L 739.50 595.90 L 731.80 596.40 L 727.20 596.30 L 722.60 595.80 L 715.10 594.20 L 712.70 593.30 L 710.70 591.70 L 710.50 591.10 L 710.80 590.50 L 711.50 589.90 L 715.50 588.60 L 723.10 588.10 L 727.80 588.30 L 732.40 588.80 L 739.90 590.40 L 743.60 592.10 L 744.40 593.50 Z" fill="#ffffff" fill-opacity="0.41434762" fill-rule="evenodd" group-id="1,8,9,11,17" id="椭圆形备份-24" node-id="92" stroke="none" target-height="8.300049" target-width="33.900024" target-x="710.5" target-y="588.1"></path></g><g node-id="361"><path d="M 833.30 607.00 L 832.20 608.20 L 828.10 609.00 L 820.50 608.90 L 815.90 608.30 L 811.30 607.40 L 804.00 605.20 L 801.70 604.10 L 799.80 602.40 L 799.70 601.70 L 800.00 601.10 L 800.80 600.60 L 804.90 599.70 L 812.50 599.80 L 817.10 600.40 L 821.70 601.30 L 829.00 603.50 L 832.60 605.60 L 833.30 607.00 Z" fill="#ffffff" fill-opacity="0.41434762" fill-rule="evenodd" group-id="1,8,9,11,18" id="椭圆形备份-25" node-id="93" stroke="none" target-height="9.299988" target-width="33.599976" target-x="799.7" target-y="599.7"></path></g><g node-id="362"><path d="M 917.20 624.50 L 916.80 625.00 L 916.00 625.50 L 911.80 626.00 L 904.20 625.20 L 899.70 624.20 L 895.30 623.00 L 888.20 620.10 L 886.00 618.80 L 884.20 616.90 L 884.20 616.20 L 884.50 615.70 L 885.40 615.20 L 889.50 614.70 L 897.10 615.50 L 901.60 616.50 L 906.10 617.70 L 913.20 620.60 L 916.60 623.00 L 917.20 624.50 Z" fill="#ffffff" fill-opacity="0.41434762" fill-rule="evenodd" group-id="1,8,9,11,19" id="椭圆形备份-26" node-id="94" stroke="none" target-height="11.299988" target-width="33" target-x="884.2" target-y="614.7"></path></g><g node-id="363"><path d="M 1009.70 645.70 L 1008.60 646.80 L 1004.40 647.40 L 996.80 646.90 L 992.30 646.10 L 987.70 645.00 L 980.60 642.30 L 978.30 641.10 L 976.50 639.30 L 976.80 638.10 L 977.60 637.50 L 981.70 636.90 L 989.30 637.40 L 993.90 638.20 L 998.40 639.40 L 1005.60 642.00 L 1009.10 644.20 L 1009.70 645.70 Z" fill="#ffffff" fill-opacity="0.41434762" fill-rule="evenodd" group-id="1,8,9,11,20" id="椭圆形备份-27" node-id="95" stroke="none" target-height="10.5" target-width="33.200012" target-x="976.5" target-y="636.9"></path></g><g node-id="364"><path d="M 1076.70 667.80 L 1075.40 668.60 L 1071.20 668.40 L 1063.80 666.50 L 1059.50 664.80 L 1055.30 662.80 L 1048.80 658.90 L 1046.80 657.20 L 1045.40 655.10 L 1045.90 654.00 L 1046.80 653.60 L 1050.90 653.80 L 1058.30 655.80 L 1062.60 657.40 L 1066.90 659.40 L 1073.40 663.30 L 1076.40 666.20 L 1076.70 667.80 Z" fill="#ffffff" fill-opacity="0.41434762" fill-rule="evenodd" group-id="1,8,9,11,21" id="椭圆形备份-28" node-id="96" stroke="none" target-height="15" target-width="31.299927" target-x="1045.4" target-y="653.6"></path></g><g node-id="365"><path d="M 1133.50 693.70 L 1132.10 694.40 L 1128.40 694.10 L 1122.00 691.80 L 1118.40 689.90 L 1114.90 687.80 L 1109.60 683.60 L 1107.30 680.70 L 1107.20 679.20 L 1108.60 678.40 L 1112.30 678.80 L 1118.60 681.10 L 1122.30 682.90 L 1125.80 685.00 L 1131.10 689.20 L 1133.40 692.20 L 1133.50 693.70 Z" fill="#ffffff" fill-opacity="0.41434762" fill-rule="evenodd" group-id="1,8,9,11,22" id="椭圆形备份-29" node-id="97" stroke="none" target-height="16" target-width="26.300049" target-x="1107.2" target-y="678.4"></path></g><g node-id="366"><path d="M 953.50 726.20 L 952.80 728.90 L 951.50 731.30 L 949.40 733.80 L 946.60 736.10 L 943.70 738.00 L 935.80 741.50 L 930.70 743.10 L 923.90 744.70 L 916.20 746.00 L 907.40 746.90 L 898.60 747.40 L 889.00 747.60 L 878.60 747.30 L 868.20 746.60 L 857.40 745.50 L 846.00 743.90 L 834.70 741.90 L 814.00 737.00 L 804.00 734.10 L 795.00 731.00 L 786.70 727.80 L 778.60 724.20 L 771.70 720.60 L 765.80 717.00 L 757.90 711.00 L 752.70 705.40 L 750.80 702.30 L 749.60 699.40 L 749.10 696.60 L 749.20 693.90 L 750.00 691.30 L 751.30 688.80 L 753.30 686.40 L 756.10 684.00 L 762.70 680.30 L 767.00 678.60 L 772.10 677.00 L 778.80 675.40 L 786.60 674.10 L 795.40 673.20 L 804.20 672.70 L 813.80 672.50 L 834.50 673.50 L 856.70 676.20 L 868.00 678.20 L 888.80 683.10 L 898.70 686.00 L 907.80 689.10 L 916.00 692.30 L 924.10 695.90 L 931.10 699.50 L 937.00 703.10 L 941.30 706.20 L 947.80 712.00 L 950.00 714.70 L 952.00 717.80 L 953.10 720.70 L 953.60 723.50 L 953.50 726.20 Z" fill="#d8e2ff" fill-rule="evenodd" group-id="1,8,9,11,23" id="椭圆形" node-id="98" stroke="none" target-height="75.099976" target-width="204.5" target-x="749.1" target-y="672.5"></path></g><path d="M 749.00 695.40 L 513.00 1086.60 L 956.70 1117.20 L 948.00 734.70 L 923.60 733.40 L 901.10 731.60 L 880.30 729.50 L 861.20 726.90 L 843.60 724.10 L 829.00 721.20 L 813.90 717.50 L 798.40 713.20 L 782.40 708.10 L 766.00 702.10 L 749.00 695.40 Z" fill="url(#linearGradient-17)" fill-rule="evenodd" group-id="1,8,9,11" id="路径-19" node-id="99" stroke="none" target-height="421.79993" target-width="443.7" target-x="513" target-y="695.4"></path></g></g></g></g></svg>