<?xml version="1.0" standalone="no"?><!DOCTYPE svg PUBLIC "-//W3C//DTD SVG 1.1//EN" "http://www.w3.org/Graphics/SVG/1.1/DTD/svg11.dtd"><svg t="1721801754450" class="icon" viewBox="0 0 1029 1024" version="1.1" xmlns="http://www.w3.org/2000/svg" p-id="3004" xmlns:xlink="http://www.w3.org/1999/xlink" width="200.9765625" height="200"><path d="M1020.835581 368.09697L864.649723 121.793939C850.944672 100.331313 822.500228 93.99596 800.908309 107.442424L21.401238 600.565657c-21.462626 13.705051-27.79798 42.149495-14.351515 63.612121L163.364874 910.480808c13.705051 21.462626 42.149495 27.79798 63.612122 14.222222l779.50707-493.123232c21.462626-13.575758 27.927273-42.020202 14.351515-63.482828z m-31.159596 37.10707L210.168915 898.327273c-6.852525 4.39596-15.90303 2.327273-20.29899-4.525253L33.684066 647.49899c-4.39596-6.852525-2.327273-15.90303 4.525253-20.29899l779.50707-493.123232c6.852525-4.266667 15.90303-2.327273 20.169697 4.654545l156.185859 246.30303c4.39596 6.593939 2.456566 15.644444-4.39596 20.169697zM317.740632 248.888889l12.929293 31.030303 16.808081-29.090909 33.486868-2.715152-22.626262-24.953535 7.628283-32.711111-30.513132 13.834343-28.832323-17.454545 3.620202 33.486869-25.470707 21.721212 32.969697 6.852525zM516.205278 156.444444l-16.161616-29.60808-13.575757 30.90101-33.09899 6.335353 24.953535 22.367677-4.266667 33.357576 29.220202-16.808081 30.383839 14.480808-6.981818-32.969697 23.014141-24.436364-33.486869-3.620202z m302.545455 495.19192l-26.634344-20.428283-0.129292 33.616161-27.79798 18.876768 32.064646 10.60202 9.438384 32.19394 19.911111-27.151515 33.616162 0.90505-19.781818-27.280808 11.377777-31.547475-32.064646 10.214142zM710.015379 785.454545l-12.670707-31.159596-17.066666 28.961617-33.486869 2.456565 22.367677 25.082829-8.016162 32.581818 30.771717-13.446465 28.703031 17.842424-3.361617-33.486868 25.470708-21.721212-32.711112-7.111112z m-199.240404 91.022223l15.903031 29.737373 13.963636-30.642424 33.09899-5.947475-24.824243-22.755555 4.525253-33.357576-29.349495 16.549495-30.254545-14.610101 6.723232 32.840404-23.272727 24.436364 33.486868 3.749495zM212.366895 378.957576l26.50505 20.816161 0.387879-33.616161 27.927273-18.747475-31.935354-10.731313-9.179798-32.323232-20.169697 26.892929-33.616162-1.163637 19.523233 27.410101-11.636364 31.547475 32.19394-10.084848z m-118.303031 145.066666c-3.490909-142.222222 65.680808-282.892929 194.585859-364.347474S574.257804 75.894949 701.611339 139.765657l30.771717-19.39394c-37.624242-21.074747-78.222222-36.460606-120.888889-46.028283-57.018182-12.8-115.070707-14.480808-172.476767-5.042424-59.474747 9.826263-115.717172 31.288889-167.046465 63.870707-51.329293 32.581818-94.771717 74.084848-129.163636 123.604041-33.228283 47.709091-56.630303 100.977778-69.430303 157.866666-9.567677 42.666667-12.929293 85.850505-9.955556 128.905051l30.642424-19.523233zM931.106288 502.30303c3.620202 142.222222-65.551515 282.892929-194.327272 364.347475-128.905051 81.583838-285.608081 83.911111-412.832323 20.040404l-30.771718 19.523232c37.624242 20.945455 78.222222 36.460606 120.888889 46.028283 57.018182 12.8 115.070707 14.480808 172.476768 5.042424 59.474747-9.826263 115.717172-31.288889 166.917172-63.741414 51.329293-32.581818 94.771717-74.084848 129.163636-123.60404 33.09899-47.838384 56.50101-100.977778 69.30101-157.866667 9.567677-42.666667 12.929293-85.850505 9.955556-128.90505L931.106288 502.30303zM381.482046 306.424242c36.072727-22.755556 75.765657-34.909091 115.717172-37.365656l47.579798-30.125253c-62.836364-7.369697-125.80202 6.723232-180.105051 40.985859-54.173737 34.262626-93.866667 85.20404-114.036363 145.066667l47.579798-30.125253c19.264646-35.038384 47.191919-65.680808 83.264646-88.436364z m262.206061 413.608081c-36.072727 22.884848-75.765657 35.038384-115.587879 37.365657l-47.579798 30.125252c62.836364 7.369697 125.80202-6.723232 180.10505-41.115151 54.173737-34.262626 93.866667-85.20404 114.036364-145.066667l-47.579798 30.125253c-19.264646 35.038384-47.321212 65.680808-83.393939 88.565656z m0 0" p-id="3005"></path><path d="M136.213359 648.274747l139.765657-87.789899 1.680808-14.351515 23.272727 0.905051-5.042424 10.989899c20.040404 31.935354 33.616162 52.751515 40.59798 62.448485l-11.377778 13.834343-7.49899-12.024242-121.535354 76.412121 43.701011 69.430303c4.654545 8.921212 12.670707 9.567677 23.789899 1.810101l114.812121-72.145455c11.765657-6.723232 15.90303-14.351515 12.153535-23.272727-3.749495-8.791919-9.955556-20.816162-18.747475-36.20202l4.783839-2.973737c17.066667 27.151515 30.771717 38.270707 40.985858 33.357575 0.258586 13.187879-8.274747 24.436364-25.470707 33.874748l-133.042424 83.652525C245.853763 795.151515 235.251743 792.565657 227.235581 778.214141c-34.391919-54.820202-54.690909-86.367677-60.638383-94.513131l26.50505-6.593939-4.137374 10.343434 4.008081 6.335354 121.535354-76.412122-33.616162-53.527272L170.863864 633.276768c-8.274747 5.171717-15.515152 10.860606-21.462626 16.80808l-13.187879-1.810101z" p-id="3006"></path><path d="M244.81942 797.220202c-9.050505 0-16.678788-5.430303-22.626263-15.90303-34.133333-54.30303-54.432323-85.850505-60.379798-93.99596l-5.171717-6.981818 46.028283-11.507071-6.464647 16.290909 110.286869-69.30101-27.410101-43.70101-105.115151 66.068687c-7.886869 4.913131-14.739394 10.343434-20.428283 16.032323l-2.068687 2.068687-31.935354-4.266667 151.014142-94.90101 1.939394-16.937373 37.365656 1.551515-7.49899 16.032323c19.006061 30.254545 32.064646 50.294949 38.658586 59.474747l2.585859 3.620202-19.264647 23.531314-8.791919-13.834344L203.833561 700.767677 244.560834 765.672727c2.19798 4.008081 4.137374 4.008081 5.171717 4.008081 1.810101 0 4.913131-0.775758 10.084849-4.39596l0.258585-0.129292 115.070708-72.274748c13.187879-7.49899 10.731313-13.317172 9.567676-15.90303-3.620202-8.533333-9.826263-20.428283-18.359596-35.555556l-2.715151-4.783838 14.480808-9.050505 3.10303 4.913131c17.971717 28.70303 27.668687 31.676768 31.030303 31.676768 0.905051 0 1.680808-0.129293 2.456566-0.517172l8.145454-4.008081 0.129293 9.050505c0.387879 15.385859-9.179798 28.573737-28.315151 38.917172l-132.783839 83.393939c-5.818182 4.137374-11.507071 6.206061-17.066666 6.206061z m-68.654546-109.769697c9.309091 13.834343 28.056566 43.313131 55.983839 87.789899l0.129293 0.258586c5.688889 10.084848 10.860606 10.214141 12.541414 10.214141 3.10303 0 6.723232-1.422222 10.731313-4.137373l0.129293-0.129293 3.620202-2.327273c-3.361616 1.551515-6.464646 2.19798-9.567677 2.19798-4.525253 0-10.860606-1.810101-15.385858-10.084849L187.930531 696.888889l-5.559596-8.791919 1.034343-2.585859-7.240404 1.939394z m216.824243-21.333333c1.034343 2.19798 1.939394 4.266667 2.715151 6.20606 2.456566 5.688889 4.137374 16.032323-7.49899 25.729293l0.905051-0.517171c12.024242-6.593939 19.135354-13.705051 21.591919-21.850506-5.559596-0.517172-11.377778-3.620202-17.713131-9.567676z m-73.69697-51.717172l6.335354 10.084848 3.361616-4.137373c-7.49899-10.860606-20.040404-30.254545-38.270707-59.086869l-1.680808-2.715151 2.715151-5.947475-9.179798-0.387879-0.517172 4.137374 0.387879-0.258586 36.848485 58.311111zM439.146693 524.8l72.791919 115.846465-9.826263 13.963636c-6.723232-12.153535-12.929293-22.755556-18.618182-31.806061l-57.147474-91.022222c-1.810101 22.626263-5.818182 44.476768-12.153536 65.551515l-3.878788 0.258586c3.10303-19.006061 4.137374-41.244444 2.973738-66.456565-1.163636-25.212121-4.783838-50.424242-10.860606-75.636364l26.634343-2.19798-5.171717 8.791919c1.551515 25.082828 2.068687 43.70101 1.680808 55.725253l18.359596-2.585859-4.783838 9.567677zM586.152753 435.717172l13.575758 21.591919c4.39596 6.981818 8.791919 13.446465 13.446464 19.393939l-10.860606 12.412122-5.559596-8.79192-38.270707 24.048485c9.69697 16.937374 15.256566 33.486869 16.549495 49.777778 14.610101 0.517172 30.90101-1.939394 48.872727-7.240404s34.779798-12.541414 50.424243-21.721212l2.068687 3.232323c-8.921212 7.111111-12.8 14.351515-11.636364 21.850505-30.771717 11.894949-60.89697 17.066667-90.375757 15.515152-3.361616 11.765657-9.69697 24.307071-19.135354 37.624242-9.438384 13.317172-20.040404 26.246465-31.676768 38.787879l-3.878788-1.939394c11.636364-13.963636 21.20404-27.79798 28.703031-41.373738 7.49899-13.575758 11.765657-25.212121 12.8-34.779797-12.282828-2.585859-28.185859-8.662626-47.450505-18.101011l1.810101-3.361616c18.876768 5.947475 34.00404 9.438384 45.381818 10.472728-1.939394-12.929293-6.852525-26.505051-14.868687-40.727273L509.740632 535.272727l2.456566 4.008081-10.343435 13.187879c-4.783838-8.921212-10.343434-18.618182-16.808081-28.961616-6.464646-10.343434-13.187879-20.169697-19.781818-29.349495l17.454546-2.068687 37.365656-23.40202-14.610101-23.143435-33.486868 21.074748c-8.274747 5.171717-15.515152 10.860606-21.462627 16.808081l-13.187878-1.810101 65.034343-40.856566-6.981818-11.119192c-3.361616-5.30101-8.40404-12.541414-14.99798-21.721212l24.565657-5.430303-3.232324 9.826263L514.783056 433.131313l43.054546-27.022222 5.430303-16.808081 26.246464 3.490909-71.757575 45.123233 14.610101 23.143434 35.426262-22.238384 2.19798-11.377778 20.428283 0.517172-4.266667 7.757576z m-100.589899 61.026262l21.074748 33.486869 36.331313-22.884848c-9.050505-15.773737-15.773737-27.280808-20.169697-34.133334l-37.236364 23.531313z m49.777778-31.288889c4.654545 7.49899 11.377778 18.876768 20.169697 34.133334l38.270707-24.048485-21.074748-33.486869-37.365656 23.40202z" p-id="3007"></path><path d="M501.465884 665.6l-4.525252-8.145455c-6.852525-12.282828-12.929293-22.626263-18.488889-31.547474l-48.226263-76.8c-2.19798 17.066667-5.818182 33.745455-10.60202 49.90707l-1.163636 3.878788-15.127273 0.775758 1.163636-7.111111c3.10303-18.618182 4.008081-40.59798 2.844445-65.29293-1.163636-24.694949-4.783838-49.777778-10.60202-74.60202l-1.551515-6.593939 44.476767-3.749495-9.955555 16.937374c0.258586 5.430303 0.646465 10.60202 0.775757 15.385858l63.870707-40.080808-3.878788-6.20606c-3.232323-5.171717-8.016162-12.153535-14.739393-21.462627l-5.171718-7.240404 43.183839-9.567677-5.559596 16.937374 8.533333 13.575758 36.331313-22.884849 6.335354-19.393939 46.933333 6.335353-80.420202 50.553536 8.40404 13.317172 28.315152-17.842425 2.585859-13.834343 34.521212 0.90505-6.852526 13.446465 11.765657 18.747475c4.266667 6.723232 8.662626 13.187879 13.187879 18.876767l2.973737 3.749495-19.264646 21.850505-6.59394-10.472727-28.70303 17.971717c7.49899 14.092929 12.153535 28.185859 14.092929 42.020202 12.541414-0.129293 26.634343-2.585859 41.890909-7.111111 17.454545-5.171717 34.00404-12.282828 49.260606-21.074747l4.913132-2.844445 7.757576 12.412122-4.137374 3.232323c-7.240404 5.688889-10.343434 11.119192-9.567677 16.420202l0.646465 4.654545-4.39596 1.680808c-27.79798 10.731313-55.466667 16.161616-82.230303 16.161616-1.939394 0-4.008081 0-5.947475-0.129292-3.749495 10.989899-9.955556 22.755556-18.618182 34.90909-9.567677 13.575758-20.428283 26.763636-32.193939 39.434344l-2.973737 3.232323-8.791919-4.525252-14.480809 21.20404z m-73.696969-142.222222l60.638384 96.452525c4.39596 6.981818 9.050505 14.868687 14.222222 23.919192l2.327273-3.361616-72.404041-115.329293 1.292929-2.715152-6.076767 1.034344z m17.971717 1.034343l69.947475 111.321212c11.119192-13.446465 20.428283-26.892929 27.539394-39.822222 5.818182-10.472727 9.567677-19.781818 11.248484-27.668687-11.894949-3.232323-26.375758-8.921212-43.313131-17.195959l-0.775757-0.387879-9.567677 12.153535-4.137374-7.886868c-4.654545-8.921212-10.343434-18.488889-16.678788-28.573738-6.335354-10.084848-12.929293-19.781818-19.523232-29.090909l-5.818182-8.016162 25.987879-2.973737 31.288889-19.652525-8.404041-13.317172-28.573737 17.971717c-7.886869 4.913131-14.739394 10.343434-20.428283 16.032324l-2.068687 2.068686-21.591919-2.973737c0.387879 9.69697 0.517172 17.842424 0.517172 24.694949l22.496969-3.232323-8.145454 16.549495z m121.793939 35.038384l-0.646464 5.171717c-0.387879 3.232323-1.034343 6.593939-2.068687 10.084849 1.551515-3.620202 2.844444-7.111111 3.749495-10.60202l1.292929-4.39596h-0.258586l-0.387879-5.171717c-1.292929-15.256566-6.464646-31.030303-15.644444-46.933334l-0.258586 0.129293-2.973737-5.30101c-8.921212-15.515152-15.385859-26.634343-19.911111-33.745454l-20.686869-32.969697-14.351515-23.014142 0.90505-2.715151-6.076767 1.292929c4.266667 6.076768 7.628283 10.989899 10.084848 14.868687l24.565657 39.046465 3.10303 4.913131c4.266667 6.723232 10.860606 17.971717 20.040404 34.00404l0.258586-0.129293 2.973737 5.30101c8.40404 14.868687 13.575758 29.220202 15.644445 42.79596l1.034343 7.369697h-0.387879z m8.274748 0.517172c2.844444 0.129293 5.818182 0.258586 8.791919 0.258586 24.048485 0 49.00202-4.654545 74.214141-13.963637 0.129293-2.456566 0.646465-4.783838 1.680808-7.111111-11.119192 5.30101-22.755556 9.69697-34.779798 13.317172-18.359596 5.430303-35.038384 7.886869-49.90707 7.49899z m-58.052525-22.884849c14.222222 4.525253 26.246465 7.49899 35.943434 9.179798-1.939394-8.274747-5.30101-16.808081-9.826263-25.729293l-26.117171 16.549495z m-108.347475-76.412121c5.171717 23.40202 8.40404 46.933333 9.438384 70.206061 0.129293 4.008081 0.258586 8.016162 0.387878 11.894949 0.387879-3.749495 0.775758-7.49899 1.034344-11.377778l0.517172-6.981818-1.551516 0.258586 0.258586-6.981818c0.387879-11.765657-0.129293-30.383838-1.680808-55.208081l-0.129293-1.810101 0.387879-0.646465-8.662626 0.646465z m66.19798 37.882828c4.913131 6.981818 9.69697 14.222222 14.222222 21.59192 4.654545 7.49899 8.921212 14.610101 12.8 21.462626l2.456565-3.10303-25.470707-40.59798-4.00808 0.646464z m17.971717 0l14.868687 23.660606 26.763636-16.80808c-5.947475-10.343434-10.60202-18.230303-14.222222-24.177778l-27.410101 17.325252z m49.777778-31.288889c3.749495 6.076768 8.40404 14.092929 14.222222 24.177778l28.185858-17.713131-14.868687-23.660606-27.539393 17.195959z m58.440404 10.084849l1.292929 2.068687 2.585858-2.973738c-3.749495-5.042424-7.369697-10.343434-10.860606-16.032323L579.429521 436.105051l1.551515-2.973738-6.206061-0.129293-0.258586 1.034344 27.280809 43.313131z m-34.39192-82.10101l-1.680808 5.30101 7.240404-4.525253-5.559596-0.775757z" p-id="3008"></path><path d="M837.886086 411.280808c17.325253-9.309091 28.056566-15.515152 32.323233-18.618182 4.266667-3.10303 4.266667-8.016162-0.129293-14.99798L844.480026 336.937374l-64.129293 40.339394c21.462626 34.133333 34.391919 54.173737 39.046465 60.121212l-10.860606 14.610101c-18.488889-30.771717-31.935354-53.010101-40.727273-66.844445l-63.224243 39.69293c13.317172 31.030303 15.127273 63.741414 5.430303 98.00404l-3.878787 0.258586c1.680808-24.177778-0.517172-46.157576-6.723233-65.939394-6.206061-19.781818-18.747475-44.735354-37.494949-74.472727-18.747475-29.866667-31.418182-49.260606-38.141414-58.569697l19.393939-1.034344 136.921212-85.979798 1.163636-13.058586h21.333334l-3.620202 11.248485 87.789899 139.765657c9.050505 12.929293 7.369697 25.858586-5.042425 38.787879-6.981818-8.274747-20.816162-7.757576-41.632323 1.680808l-2.19798-4.266667z m-191.482828-83.523232l27.539394 43.959596 61.284849-38.529293-27.539394-43.959596-61.284849 38.529293z m30.642424 48.743434c13.446465 22.755556 21.591919 37.236364 24.69495 43.571717l63.224242-39.692929-26.634343-42.278788-61.284849 38.4z m43.054546-95.159596l27.539394 43.959596 64.129293-40.339394-27.539394-43.959596-64.129293 40.339394z m30.642424 48.743434l26.634344 42.278788 64.129292-40.339394-26.634343-42.278787-64.129293 40.339393z" p-id="3009"></path><path d="M700.059824 529.066667l0.517172-6.59394c1.680808-23.272727-0.517172-44.735354-6.464647-63.741414-6.076768-19.264646-18.488889-43.959596-36.848485-73.179798-18.488889-29.478788-31.288889-49.00202-37.882828-58.181818l-6.206061-8.662626 28.573738-1.551515 133.171717-83.652526 1.422222-15.385858h34.650505l-5.30101 16.290909 86.238384 137.309091c7.369697 10.60202 12.282828 27.151515-5.688889 46.028283l-4.525253 4.654545-4.137373-4.913131c-2.068687-2.456566-5.430303-3.749495-9.955556-3.749495-6.335354 0-14.739394 2.327273-24.953535 6.981818L838.015379 422.787879l-8.533333-13.575758 5.430303-2.973737c16.937374-9.179798 27.668687-15.385859 31.676768-18.230303 1.292929-0.905051 0.775758-3.361616-1.551515-7.111111l-22.49697-35.814142-54.30303 34.133334c19.393939 30.771717 31.418182 49.260606 35.684848 54.690909l2.715152 3.490909-18.618182 25.212121-4.525253-7.49899c-16.678788-27.927273-29.090909-48.226263-37.494949-61.80202l-54.044445 34.00404c12.024242 30.771717 13.317172 63.482828 3.878788 97.228283l-1.163636 4.008081-14.610101 0.517172z m-65.292929-199.886869c7.369697 10.860606 18.230303 27.668687 32.323232 50.165657 18.876768 30.125253 31.676768 55.59596 38.141414 75.894949 2.19798 7.111111 4.008081 14.480808 5.171717 22.238384-0.387879-16.937374-3.878788-33.486869-10.60202-49.389899l-0.517172 0.258586-2.844444-5.818182c-2.973737-6.076768-11.248485-20.557576-24.436364-43.054546L640.197198 328.921212l-5.430303 0.258586z m138.214141 52.880808c7.757576 12.412121 19.652525 31.935354 36.20202 59.345455l3.10303-4.137374c-6.076768-8.662626-18.230303-27.410101-36.848484-57.018182l-60.121213-95.676768-2.585858 1.680808 60.250505 95.806061z m-88.048485-3.749495c8.791919 14.99798 15.256566 26.246465 19.006061 33.357576l52.880808-33.228283-20.428283-32.452525-51.458586 32.323232zM867.62346 402.10101c5.30101 0 9.955556 1.163636 13.705051 3.490909 7.111111-9.309091 7.240404-18.10101 0.90505-27.280808l-0.129293-0.258586-89.212121-142.092929 1.939394-6.206061h-8.016162l-0.387878 3.878788 88.565656 140.929293c8.533333 13.575758 1.810101 20.428283-1.422222 22.884849-1.680808 1.163636-4.008081 2.715152-7.240404 4.654545h1.292929z m-108.864646-70.076768l20.428283 32.452526 54.30303-34.133334-20.428283-32.452525-54.30303 34.133333z m-104.339394-2.456565l21.462626 34.133333 51.458586-32.323232-21.462626-34.133334-51.458586 32.323233z m73.696969-46.286869l21.462627 34.133333 54.30303-34.133333-21.462626-34.133333-54.303031 34.133333z" p-id="3010"></path></svg>