<svg xml:space="preserve" viewBox="0 0 1024 1024" height="1024px" width="1024px" y="0px" x="0px" xmlns:xlink="http://www.w3.org/1999/xlink" xmlns="http://www.w3.org/2000/svg" id="Layer_1" version="1.1">
<g>
	<g opacity="0.65">
		<circle r="477.619" cy="512" cx="498.933" fill="#7FD0FF"></circle>
	</g>
	<g id="Layer_6">
		<g opacity="0.67">
			<path d="M132.296,350.643c18.24,0,33.027,14.785,33.027,33.029c0,18.236-14.787,33.027-33.027,33.027
				S99.27,401.908,99.27,383.671C99.27,365.427,114.057,350.643,132.296,350.643z" fill="#FFFFFF"></path>
		</g>
		<g opacity="0.67">
			<path d="M256.488,221.165c8.027,0,14.534,6.506,14.534,14.53c0,8.026-6.506,14.533-14.534,14.533
				c-8.024,0-14.53-6.506-14.53-14.533C241.958,227.671,248.464,221.165,256.488,221.165z" fill="#FFFFFF"></path>
		</g>
		<g>
			<circle r="27.747" cy="510.508" cx="800.834" fill="#FFFFFF"></circle>
		</g>
		<g>
			<circle r="21.138" cy="636.021" cx="786.298" fill="#FFFFFF"></circle>
		</g>
		<g>
			<circle r="15.853" cy="186.812" cx="440.143" fill="#FFFFFF"></circle>
		</g>
		<g>
			<circle r="14.537" cy="420.668" cx="861.609" fill="#FFFFFF"></circle>
		</g>
		<g opacity="0.67">
			<circle r="11.891" cy="600.353" cx="893.317" fill="#FFFFFF"></circle>
		</g>
		<g>
			<path d="M127.007,514.469c6.57,0,11.895,5.324,11.895,11.893c0,6.565-5.325,11.894-11.895,11.894
				c-6.568,0-11.893-5.328-11.893-11.894C115.114,519.793,120.439,514.469,127.007,514.469z" fill="#FFFFFF"></path>
		</g>
	</g>
	<g>
		<g>
			<path d="M722.706,862.744l-541.042-24.667c0,0,12.421,152.471,306.715,147.969
				C488.379,986.046,722.706,965.73,722.706,862.744z" fill="#FF7073"></path>
			<path d="M475.74,988.178c-0.007,0-0.018,0-0.025,0c-80.767-0.003-190.425-12.952-254.171-74.611
				c-38.376-37.12-41.779-73.782-41.905-75.323c-0.048-0.583,0.159-1.159,0.564-1.575c0.406-0.426,0.962-0.715,1.555-0.619
				l541.039,24.666c1.089,0.048,1.942,0.941,1.942,2.029c0,43.093-41.01,78.438-118.6,102.217
				c-58.114,17.807-116.996,23.06-117.584,23.11C484.116,988.144,479.916,988.178,475.74,988.178z M184.008,840.216
				c1.42,8.6,8.575,39.808,40.609,70.667c62.816,60.521,171.219,73.227,251.097,73.231c0.007,0,0.018,0,0.025,0
				c4.157,0,8.334-0.033,12.607-0.101c2.166-0.193,229.329-21.049,232.297-119.328L184.008,840.216z" fill="#6E6E96"></path>
		</g>
		<g>
			<path d="M696.172,663.265c-47.229-112.339-155.737-195.001-360.749-124.065c0,0-122.015,49.481-159.829,183.525
				c-25.815,53.347-17.865,111.041,79.94,155.405c199.065,90.288,616.518,66.181,470.191-45.825
				C676.293,774.154,673.562,713.662,696.172,663.265z" fill="#FF7073"></path>
			<path d="M559.992,935.358c-0.016,0-0.02,0-0.035,0c-112.988-0.003-229.958-21.225-305.263-55.38
				c-47.768-21.665-77.621-48.222-88.731-78.934c-8.666-23.953-6.04-50.601,7.802-79.205
				c37.523-133.124,159.667-184.025,160.895-184.522c50.866-17.604,98.149-26.513,140.637-26.513
				c131.402,0,193.661,82.479,222.75,151.674l0.342,0.813l-0.361,0.807c-25.064,55.863-14.727,115.062,29.108,166.726
				c25.068,19.232,35.067,36.993,29.717,52.778C748.376,908.624,692.199,935.358,559.992,935.358z M475.296,514.869
				c-42.034,0-88.871,8.833-139.208,26.252c-1.111,0.452-121.443,50.663-158.537,182.155c-13.475,27.914-16.045,53.502-7.767,76.387
				c10.725,29.641,39.857,55.419,86.588,76.617c74.811,33.928,191.137,55.011,303.584,55.014c0.007,0,0.027,0,0.031,0
				c107.179,0,182.93-19.229,193.018-48.996c4.739-13.989-4.855-30.269-28.515-48.378l-0.313-0.297
				c-44.809-52.713-55.526-113.189-30.22-170.378C665.202,595.356,603.955,514.869,475.296,514.869z" fill="#6E6E96"></path>
		</g>
		<g>
			<path d="M722.976,834.473c-32.599,40.554-119.874,52.946-218.549,43.275
				c-52.112-7.351-46.484-38.615-44.021-46.904l10.93-131.385l-80.932-14.934l-11.295,132.766c0,0-4.977,34.377-51.273,21.858
				c-23.225-8.017-45.648-17.062-66.685-27.104c-53.111-25.351-79.07-53.249-87.248-81.313
				c-44.441-6.257-47.373,97.012,78.028,146.826c131.312,66.499,382.904,106.901,493.901,12.528
				C770.189,874.612,746.095,819.772,722.976,834.473z" fill="#FFFFFF"></path>
			<path d="M549.878,947.756c-0.004,0,0,0-0.004,0c-99.519,0-216.828-26.842-298.862-68.383
				c-48.548-19.278-74.433-45.233-87.568-63.597c-15.158-21.194-22.111-44.805-18.6-63.161
				c3.196-16.695,14.527-25.997,29.344-23.896l1.3,0.183l0.367,1.263c8.741,29.994,37.732,56.927,86.171,80.046
				c20.451,9.762,42.816,18.852,66.473,27.018c6.428,1.734,12.504,2.631,17.924,2.631c26.946,0,30.536-21.928,30.675-22.864
				l11.47-134.874l84.945,15.676l-11.158,133.628c-1.25,4.2-3.464,15.053,2.938,25.016c6.437,10.023,19.699,16.514,39.42,19.296
				c20.955,2.054,41.43,3.098,60.766,3.098c76.886,0,132.259-16.209,155.913-45.636l0.492-0.439
				c2.917-1.854,5.986-2.795,9.118-2.795c12.075,0,21.487,13.449,25.119,25.945c3.564,12.262,3.021,28.128-9.197,35.893
				C703.965,928.349,635.744,947.756,549.878,947.756z M170.119,732.494c-10.823,0-18.778,7.808-21.281,20.887
				c-5.572,29.118,17.695,88.066,103.844,122.287c81.674,41.352,198.264,68.023,297.192,68.023
				c84.897,0.004,152.201-19.07,194.64-55.153c10.551-6.725,10.857-20.649,7.706-31.494c-3.327-11.438-11.683-23.016-21.218-23.016
				c-2.251,0-4.49,0.666-6.661,1.989c-24.56,30.23-80.951,46.88-158.862,46.88c-19.471,0-40.077-1.053-61.251-3.124
				c-21.028-2.966-35.252-10.075-42.355-21.135c-7.207-11.222-4.891-23.289-3.476-28.168l10.762-129.349l-76.918-14.191
				l-11.107,130.532c-0.052,0.385-4.18,26.461-34.71,26.461c-5.777,0-12.21-0.945-19.117-2.814
				c-23.935-8.253-46.442-17.402-67.03-27.232c-48.844-23.312-78.417-50.651-87.934-81.279
				C171.587,732.525,170.845,732.494,170.119,732.494z" fill="#6E6E96"></path>
		</g>
		<g>
			<path d="M596.401,759.17c57.84,4.514,113.625-22.516,158.981-44.821c11.917-5.854,24.69-19.256,29.788-23.312
				c26.802-13.997,16.282-20.071,18.086-57.241c0.753-15.764-17.253-34.734-32.337-29.872
				c-122.391,39.558-259.539-26.1-259.539-26.1c-85.144,5.352-39.351,75.104-17.078,94.603" fill="#FF7073"></path>
			<path d="M609.08,761.689c-4.271,0-8.55-0.158-12.838-0.496c-1.119-0.087-1.953-1.063-1.865-2.183
				c0.083-1.119,1.088-2.004,2.184-1.866c57.999,4.482,113.402-22.726,157.926-44.617c8.602-4.229,17.883-12.703,24.023-18.312
				c2.215-2.024,4.061-3.707,5.395-4.771c18.729-9.82,18.463-14.834,17.581-31.454c-0.333-6.304-0.75-14.147-0.258-24.294
				c0.381-7.972-4.743-17.665-12.465-23.576c-5.819-4.453-11.929-5.97-17.22-4.263c-118.091,38.18-251.393-21.733-260.551-25.973
				c-25.644,1.702-40.984,9.432-45.595,22.979c-7.703,22.623,15.898,55.475,30.244,68.034c0.845,0.739,0.929,2.021,0.191,2.866
				c-0.739,0.851-2.025,0.929-2.867,0.191c-15.062-13.183-39.739-47.957-31.417-72.402c5.225-15.346,21.948-24.015,49.706-25.758
				l0.528-0.032l0.476,0.227c1.365,0.651,137.82,64.847,258.039,26.001c6.581-2.132,14.028-0.389,20.938,4.902
				c8.854,6.776,14.498,17.629,14.049,26.997c-0.479,9.943-0.071,17.673,0.259,23.885c0.913,17.145,1.285,24.242-19.432,35.063
				c-0.957,0.81-2.731,2.434-4.862,4.379c-6.312,5.764-15.851,14.477-24.969,18.958C716.774,735.602,663.722,761.689,609.08,761.689
				z" fill="#6E6E96"></path>
		</g>
		<g>
			<g>
				<path d="M795.079,606.492c5.453-7.209,4.347-17.522-2.45-23.048c-6.787-5.534-16.691-4.16-22.146,3.025l0,0
					c-15.378,20.34-31.53,70.884,17.549,116.598l0,0c6.415,5.981,16.367,5.292,22.274-1.528c5.866-6.836,5.43-17.212-0.993-23.202
					l0,0c-38.528-35.881-16.76-68.392-14.144-71.973L795.079,606.492L795.079,606.492z" fill="#FFFFFF"></path>
				<path d="M798.314,709.172c-4.331,0-8.476-1.639-11.667-4.62c-50.124-46.683-33.551-98.457-17.784-119.31
					c3.489-4.597,8.686-7.229,14.267-7.229c3.958,0,7.689,1.334,10.786,3.854c7.625,6.201,8.876,17.8,2.782,25.85
					c-2.95,4.121-22.806,34.857,14.001,69.13c7.188,6.709,7.704,18.376,1.15,26.014
					C808.373,706.874,803.442,709.172,798.314,709.172z M783.13,582.079c-4.299,0-8.316,2.048-11.027,5.621
					c-15.001,19.836-30.685,69.173,17.315,113.879c2.441,2.274,5.598,3.529,8.896,3.529c3.949,0,7.761-1.787,10.454-4.898
					c5.15-6.003,4.776-15.148-0.841-20.388c-39.878-37.136-17.124-70.925-14.397-74.656l0,0c4.704-6.319,3.735-15.331-2.183-20.146
					C788.985,583.095,786.144,582.079,783.13,582.079z" fill="#6E6E96"></path>
			</g>
		</g>
		<g opacity="0.15">
			<path d="M692.036,742.735l85.576-50.612l-14.774-22.841c0,0-76.344,15.751-137.205,35.632
				c64.363-41.276,70.929-88.55,70.929-88.55l-11.646-11.644l-414.123-87.826c0,0,7.537,160.585,30.572,137.554
				c20.572-20.575,1.788,102.796,134.586,104.411c-6.078,12.79-43.177,112.919,68.483,118.896
				c142.444,7.614,218.553-43.271,218.553-43.271s-38.934-47.853-38.934-88.867L692.036,742.735z M672.546,826.945
				c0,0-176.86,61.14-176.86,0s-5.462-73.151-5.462-73.151c25.072-4.557,47.086-10.269,66.474-16.751
				c-0.031,0.048-30.406,59.333,56.893,44.051C700.928,765.806,672.546,826.945,672.546,826.945z" fill="#6E6E96"></path>
		</g>
		<g>
			<path d="M820.27,694.005c108.187-0.897,72.628-85.401,48.373-90.503c-16.562-3.473,3.78-5.188-5.685-28.553
				c-9.462-23.364-39.409-6.494-39.409-6.494c-0.343,0.365-0.676,0.811-1.016,1.247c-1.057,0.543-2.042,1.174-2.954,1.881
				c-30.947,24.334-37.751,36.274-22.849,90.114c2.282,8.229,6.692,14.477,12.432,18.843
				C811.449,688.845,815.062,694.049,820.27,694.005z" fill="#FF7073"></path>
			<path d="M820.206,696.037c-5.764,0-10.075-4.811-12.817-14.302c-6.13-4.848-10.374-11.401-12.616-19.495
				c-14.79-53.431-8.657-66.931,23.552-92.253c0.909-0.706,1.873-1.334,2.874-1.877c0.345-0.445,0.604-0.763,0.865-1.044
				l0.489-0.382c0.443-0.25,11.043-6.152,21.96-6.152c9.681,0,16.711,4.724,20.332,13.655c5.228,12.909,1.789,19.967-0.057,23.758
				c-0.365,0.746-0.864,1.771-0.864,2.096c0.149,0.028,0.849,0.571,5.136,1.473c13.814,2.906,29.287,27.1,26.984,50.155
				c-1.63,16.348-13.644,43.853-75.758,44.368H820.206z M824.831,570.07c-0.176,0.207-0.345,0.434-0.521,0.656l-0.849,0.781
				c-0.926,0.477-1.811,1.044-2.641,1.683c-34.65,27.247-35.131,40.994-22.134,87.963c2.067,7.455,6.006,13.433,11.706,17.771
				l0.548,0.413l0.183,0.662c1.5,5.463,4.299,11.973,9.082,11.973v2.032l0.047-2.032c58.94-0.488,70.25-25.715,71.747-40.708
				c2.163-21.658-13.064-43.522-23.774-45.773c-4.323-0.905-7.019-1.822-7.995-3.818c-0.893-1.822-0.023-3.612,0.901-5.51
				c1.791-3.672,4.49-9.222-0.06-20.452c-3.028-7.478-8.446-11.114-16.56-11.114C835.58,564.597,826.533,569.169,824.831,570.07z" fill="#6E6E96"></path>
		</g>
		<g>
			<path d="M831.893,625.542c-2.72,0-5.625-0.365-8.729-1.188c-1.083-0.286-1.731-1.401-1.444-2.484
				c0.286-1.08,1.386-1.747,2.485-1.445c24.865,6.566,35.368-19.867,35.802-20.995c0.4-1.048,1.584-1.568,2.623-1.171
				c1.049,0.401,1.572,1.576,1.172,2.624C863.697,601.16,854.082,625.542,831.893,625.542z" fill="#6E6E96"></path>
		</g>
		<g>
			<path d="M407.027,649.848c30.157-7.42,59.107-73.438-17.569-119.536c0,0-112.006,18.129-206.839-77.784
				c-11.694-11.818-37.6-2.846-44.519,12.194c-16.275,35.464-28.982,36.036-10.803,62.012c2.783,6.237,8.209,24.874,16.47,36.084
				c31.449,42.669,70.724,87.506,126.758,111.212" fill="#FF7073"></path>
			<path d="M270.525,676.062c-0.266,0-0.534-0.052-0.792-0.158c-58.143-24.601-98.735-72.712-127.602-111.879
				c-6.318-8.574-10.989-21.285-14.083-29.692c-1.042-2.839-1.909-5.204-2.607-6.769c-13.828-19.697-10.062-26.107-0.957-41.593
				c3.305-5.621,7.417-12.616,11.768-22.099c4.104-8.92,14.578-16.276,26.062-18.3c8.946-1.572,16.662,0.385,21.749,5.525
				c93.015,94.076,203.953,77.383,205.068,77.208l0.734-0.119l0.639,0.382c16.972,10.206,55.751,38.579,49.254,81.542
				c-3.072,20.329-16.634,37.87-32.247,41.709c-1.102,0.266-2.191-0.394-2.459-1.489c-0.268-1.087,0.396-2.19,1.486-2.457
				c12.078-2.973,25.987-17.104,29.2-38.369c4.29-28.371-12.73-56.436-46.715-77.082c-10.059,1.33-117.44,12.977-207.852-78.466
				c-4.12-4.16-10.559-5.716-18.154-4.378c-10.069,1.774-19.558,8.352-23.073,15.994c-4.437,9.666-8.606,16.759-11.959,22.46
				c-8.869,15.088-11.547,19.645,0.975,37.536c0.917,1.965,1.82,4.418,2.902,7.359c3.013,8.198,7.563,20.579,13.538,28.685
				c30.333,41.157,69.015,86.474,125.915,110.545c1.034,0.441,1.517,1.631,1.08,2.664
				C272.069,675.598,271.317,676.062,270.525,676.062z" fill="#6E6E96"></path>
		</g>
		<g>
			<path d="M110.021,505.395c7.458-1.278,14.581-4.978,20.678-11.543c39.876-42.919,39.287-57.329,22.233-94.913
				c-0.508-1.1-1.125-2.155-1.846-3.184c-0.097-0.548-0.19-1.132-0.341-1.644c0,0-19.73-30.165-39.815-12.988
				c-20.1,17.188-1.987,28.601-19.083,23.841c-25.048-6.97-98.938,54.542,1.346,107.6
				C98.009,515.111,103.878,512.023,110.021,505.395z" fill="#FF7073"></path>
			<path d="M96.777,515.485h-0.002c-1.595,0-3.122-0.377-4.533-1.123c-22.712-12.021-59.53-37.342-50.942-71.941
				c6.066-24.437,31.435-40.033,46.235-40.033c1.75,0,3.384,0.211,4.857,0.62c3.512,0.973,5.723,0.941,5.729,0.945
				c0.045-0.187,0.075-1.409,0.097-2.299c0.113-4.406,0.32-12.607,11.391-22.074c4.481-3.835,9.331-5.776,14.411-5.776
				c15.69,0,27.914,18.411,28.426,19.197l0.248,0.536c0.133,0.448,0.23,0.945,0.317,1.433c0.687,1.02,1.28,2.068,1.767,3.116
				c17.74,39.1,16.93,54.613-22.591,97.147c-6.004,6.467-13.113,10.516-21.144,12.043
				C105.867,512.723,101.07,515.485,96.777,515.485z M87.535,406.453c-13.185,0-36.778,14.739-42.29,36.949
				c-5.873,23.651,11.494,47.576,48.897,67.364c0.832,0.44,1.694,0.654,2.632,0.654c0.002,0,0.002,0,0.002,0
				c3.197,0,7.262-2.561,11.754-7.407l0.468-0.504l0.68-0.118c7.407-1.268,13.978-4.943,19.532-10.921
				c38.733-41.688,38.686-55.634,21.873-92.69c-0.446-0.964-0.99-1.901-1.662-2.858l-0.335-0.81
				c-0.083-0.477-0.144-0.834-0.217-1.147c-1.495-2.16-12.277-17.097-24.85-17.097c-4.084,0-8.044,1.615-11.768,4.799
				c-9.697,8.292-9.861,14.791-9.97,19.089c-0.067,2.667-0.161,6.323-4.753,6.327c-1.423,0-3.343-0.357-6.229-1.163
				C90.185,406.612,88.917,406.453,87.535,406.453z" fill="#6E6E96"></path>
		</g>
		<g>
			<path d="M124.591,446.28c-0.146,0-0.295-0.016-0.444-0.048c-30.018-6.704-26.466-41.013-26.425-41.358
				c0.125-1.116,1.119-1.925,2.246-1.79c1.114,0.126,1.916,1.135,1.792,2.246c-0.143,1.267-3.16,31.03,23.272,36.934
				c1.096,0.246,1.786,1.333,1.54,2.429C126.362,445.636,125.522,446.28,124.591,446.28z" fill="#6E6E96"></path>
		</g>
		<g>
			<path d="M709.304,472.189c0,0-6.518,20.689-29.446,21.873l-0.992-17.983L709.304,472.189z" fill="#F5F5F5"></path>
			<path d="M677.94,496.197l-1.206-21.892l35.464-4.533l-0.957,3.029c-0.067,0.218-7.221,22.051-31.281,23.29
				L677.94,496.197z M680.997,477.854l0.773,14.017c14.787-1.604,21.702-11.937,24.307-17.22L680.997,477.854z" fill="#6E6E96"></path>
		</g>
		<g>
			<path d="M824.834,433.561c-8.121,8.884-73.079-92.292-64.87-67.57c12.813,38.584-18.078,56.169-39.656,76.136
				c-55.479,51.318-142.929,48.96-195.335-5.256c-52.393-54.216-49.905-139.769,5.565-191.087
				c55.467-51.301,188.364-47.484,244.323,49.324C806.726,364.252,830.781,427.027,824.834,433.561z" fill="#FF7073"></path>
			<path d="M625.304,481.16c-38.918,0-75.068-15.228-101.792-42.875c-25.683-26.58-39.265-61.365-38.241-97.951
				c1.026-36.701,16.615-70.81,43.886-96.042c22.836-21.121,58.372-33.235,97.496-33.235c63.851,0,119.913,31.042,149.967,83.036
				c16.286,35.321,30.22,68.298,39.314,93.02c15.521,42.193,11.937,46.135,10.404,47.818c-0.73,0.798-1.706,1.219-2.831,1.219
				c-6.819,0-21.359-18.288-42.768-46.183c-6.713-8.752-14.104-18.383-18.355-23.079c10.159,33.106-11.456,51.549-30.562,67.852
				c-3.402,2.902-6.919,5.902-10.135,8.88c-26.171,24.206-60.396,37.536-96.377,37.54C625.312,481.16,625.308,481.16,625.304,481.16
				z M626.653,215.121c-38.112,0-72.644,11.721-94.733,32.156c-26.465,24.482-41.59,57.57-42.585,93.169
				c-0.993,35.484,12.182,69.226,37.099,95.012c25.953,26.85,61.067,41.633,98.87,41.637c0.008,0,0.004,0,0.008,0
				c34.956-0.003,68.201-12.952,93.615-36.46c3.278-3.033,6.827-6.058,10.257-8.988c19.324-16.49,39.307-33.539,28.852-65.017
				c-0.989-2.981-1.073-4.49-0.294-5.566c0.381-0.532,1.333-1.008,1.984-1.008c2.874,0,7.451,5.554,24.242,27.434
				c12.799,16.68,34.218,44.594,39.54,44.594c3.739-4.505-12.562-53.823-50.492-136.125
				C743.783,245.403,689.035,215.121,626.653,215.121z" fill="#6E6E96"></path>
		</g>
		<g>
			<path d="M653.175,652.741c-35.568,35.063-87.188,58.229-142.136,63.279
				c84.417-71.683-41.515,51.374-162.106-45.356c-30.056-21.11-25.979-49.374-28-100.668
				c-18.401,102.731-37.832,6.688-47.363-45.798c-1.504-67.912,20.983-117.237,59.017-154.758
				c71.115-70.143,187.099-106.226,294.157-8.586C710.043,436.836,724.285,582.606,653.175,652.741z" fill="#FFFFFF"></path>
			<path d="M511.039,718.052c-0.813,0-1.555-0.483-1.874-1.245c-0.345-0.818-0.118-1.763,0.56-2.335
				c7.369-6.26,13.14-11.035,17.447-14.604c1.159-0.96,2.247-1.862,3.243-2.688c-13.23,4.985-40.22,14.461-73.711,14.461
				c-39.769,0-76.458-13.254-109.044-39.394c-26.614-18.689-27.197-42.562-28.163-82.115c-0.019-0.857-0.041-1.723-0.062-2.6
				c-6.145,26.191-11.787,29.994-16.199,29.994c-10.501,0.004-19.674-26.93-31.667-92.968
				c-1.453-64.478,18.049-115.586,59.592-156.564c45.036-44.423,100.066-68.885,154.956-68.885
				c50.391,0,98.166,20.269,141.998,60.242c44.301,40.408,71.492,102.679,72.738,166.574c1.017,52.291-15.406,97.842-46.249,128.265
				c-36.032,35.516-88.291,58.793-143.377,63.854C511.162,718.049,511.099,718.052,511.039,718.052z M538.255,690.262
				c0.857,0,1.89,0.646,2.18,1.453c0.679,1.885,0.254,2.238-10.67,11.285c-3.264,2.699-7.364,6.098-12.366,10.305
				c51.743-6.148,100.402-28.549,134.351-62.013c30.041-29.628,46.035-74.123,45.039-125.287
				c-1.227-62.799-27.922-123.978-71.413-163.649c-43.058-39.27-89.911-59.181-139.258-59.181
				c-53.813,0-107.832,24.048-152.103,67.715c-40.7,40.148-59.808,90.283-58.412,153.265c13.419,73.763,22.438,89.312,27.633,89.309
				c2.358,0,8.611-4.271,15.696-43.825c0.183-1.023,1.115-1.734,2.142-1.671c1.034,0.071,1.85,0.913,1.89,1.949
				c0.282,7.137,0.445,13.83,0.597,20.118c0.935,38.274,1.499,61.377,26.541,78.967c31.949,25.623,67.781,38.576,106.603,38.576
				c35.008,0,62.863-10.611,74.755-15.141C535.794,690.785,537.215,690.262,538.255,690.262z" fill="#6E6E96"></path>
		</g>
		<g>
			<g>
				<g>
					<path d="M419.761,433.188c43.64,12.425,106.458,48.461,130.799,133.735c0.905,3.279,1.897,6.312,2.93,9.209
						c34.876-5.672,65.688-25.687,82.504-57.63c30.304-57.567,3.699-131.917-59.417-166.109
						c-63.132-34.18-138.862-15.231-169.169,42.321c-5.659,10.742-9.325,22.076-11.145,33.615
						C404.58,428.281,412.412,430.064,419.761,433.188z" fill="#FFBCAC"></path>
					<path d="M552.145,578.41l-0.568-1.596c-1.174-3.302-2.15-6.358-2.977-9.352
						c-26.771-93.797-99.408-123.784-129.394-132.322c-7.572-3.199-15.102-4.779-22.617-4.779h-2.377l0.046-2.351
						c1.895-12.02,5.714-23.54,11.353-34.246c19.626-37.264,59.869-60.414,105.029-60.414c22.92,0,46.055,5.965,66.907,17.255
						c63.981,34.661,91.01,110.405,60.246,168.841c-16.474,31.3-47.083,52.691-83.977,58.689L552.145,578.41z M398.659,426.345
						c7.539,0.29,14.811,1.96,21.898,4.973c30.401,8.638,104.618,39.271,131.957,135.044c0.671,2.422,1.433,4.88,2.326,7.479
						c34.872-6.16,63.731-26.604,79.356-56.284c29.731-56.479,3.449-129.77-58.588-163.378
						c-20.257-10.968-42.725-16.764-64.97-16.764c-43.647,0-82.514,22.319-101.432,58.248
						C404.137,405.286,400.594,415.594,398.659,426.345z" fill="#6E6E96"></path>
				</g>
			</g>
			<g>
				<g>
					<path d="M553.49,578.165c-0.85,0-1.624-0.532-1.914-1.351c-1.174-3.302-2.15-6.358-2.977-9.352
						c-26.771-93.797-99.408-123.784-129.394-132.322c-7.572-3.199-15.102-4.779-22.617-4.779c-0.595,0-1.321-0.263-1.708-0.711
						c-0.385-0.453-0.717-1.052-0.623-1.64c1.895-12.02,5.714-23.54,11.353-34.246c19.626-37.264,59.869-60.414,105.029-60.414
						c22.92,0,46.055,5.965,66.907,17.255c63.981,34.661,91.01,110.405,60.246,168.841c-16.474,31.3-47.083,52.691-83.977,58.689
						C553.709,578.157,553.598,578.165,553.49,578.165z M398.659,426.345c7.539,0.29,14.811,1.96,21.898,4.973
						c30.401,8.638,104.618,39.271,131.957,135.044c0.671,2.422,1.433,4.88,2.326,7.479c34.872-6.16,63.731-26.604,79.356-56.284
						c29.731-56.479,3.449-129.77-58.588-163.378c-20.257-10.968-42.725-16.764-64.97-16.764
						c-43.647,0-82.514,22.319-101.432,58.248C404.137,405.286,400.594,415.594,398.659,426.345z" fill="#6E6E96"></path>
				</g>
			</g>
		</g>
		<g>
			<path d="M511.063,408.35c-5.239,6.173-14.818,6.752-21.38,1.29c-6.56-5.454-7.627-14.886-2.38-21.066
				c5.246-6.176,14.817-6.744,21.386-1.29C515.248,392.746,516.319,402.178,511.063,408.35z" fill="#8383B3"></path>
			<path d="M499.936,415.42c-4.183,0-8.288-1.501-11.553-4.22c-3.709-3.08-5.975-7.355-6.381-12.031
				c-0.381-4.382,0.953-8.614,3.75-11.909c3.104-3.656,7.725-5.752,12.675-5.752c4.184,0,8.288,1.496,11.56,4.212
				c3.715,3.096,5.982,7.375,6.383,12.059c0.377,4.378-0.961,8.598-3.76,11.889C509.508,413.32,504.887,415.42,499.936,415.42z
				 M498.428,385.573c-3.755,0-7.245,1.572-9.575,4.315c-2.094,2.465-3.088,5.637-2.803,8.932c0.312,3.584,2.064,6.875,4.931,9.257
				c5.49,4.569,14.199,4.065,18.534-1.04c2.092-2.461,3.088-5.621,2.807-8.912c-0.31-3.592-2.061-6.887-4.934-9.281
				C504.847,386.736,501.664,385.573,498.428,385.573z" fill="#6E6E96"></path>
		</g>
		<g>
			<path d="M591.908,475.13c-5.526,6.506-15.609,7.114-22.508,1.373c-6.915-5.755-8.043-15.683-2.517-22.197
				c5.518-6.506,15.616-7.114,22.523-1.37C596.313,458.688,597.434,468.628,591.908,475.13z" fill="#8383B3"></path>
			<path d="M580.178,482.47c-4.375,0-8.662-1.563-12.076-4.401c-3.89-3.239-6.268-7.717-6.692-12.616
				c-0.396-4.585,0.997-9.011,3.927-12.46c3.247-3.831,8.086-6.025,13.277-6.025c4.379,0,8.674,1.563,12.092,4.405
				c3.887,3.235,6.256,7.717,6.681,12.616c0.397,4.589-1,9.011-3.93,12.46C590.205,480.275,585.366,482.47,580.178,482.47z
				 M578.613,451.032c-3.997,0-7.705,1.671-10.182,4.588c-2.219,2.62-3.275,5.986-2.973,9.479c0.333,3.811,2.194,7.304,5.243,9.841
				c5.812,4.839,15.049,4.295,19.657-1.124c2.22-2.616,3.279-5.982,2.978-9.479c-0.329-3.811-2.188-7.304-5.232-9.841
				C585.418,452.262,582.043,451.032,578.613,451.032z" fill="#6E6E96"></path>
		</g>
		<g>
			<path d="M509.142,580.522c0,0-61.752,48.278-112.765,3.645c-19.08-13.426-17.02-49.191-10.63-96.036
				L509.142,580.522z" fill="#FF7073"></path>
			<path d="M445.686,605.135c-18.867,0-35.907-6.543-50.647-19.44c-20.761-14.592-17.203-54.613-11.308-97.837
				c0.097-0.715,0.565-1.322,1.23-1.6c0.665-0.282,1.425-0.183,2.003,0.246l123.396,92.392c0.504,0.381,0.805,0.973,0.813,1.607
				c0.008,0.631-0.281,1.23-0.782,1.619C509.193,583.063,480.56,605.135,445.686,605.135z M387.297,491.831
				c-6.428,48.405-6.619,78.804,10.248,90.672c14.148,12.365,30.288,18.566,48.141,18.566c28.126,0,52.746-15.514,60.027-20.574
				L387.297,491.831z" fill="#6E6E96"></path>
		</g>
		<g>
			<path d="M528.172,504.981c-10.336,13.978-42.17,8.113-58.601-3.938c-16.418-12.044-21.364-33.138-11.027-47.115
				c10.325-13.977,32.013-15.549,48.438-3.497C523.417,462.467,538.501,491.012,528.172,504.981z" fill="#FFBCAC"></path>
			<path d="M507.153,515.14c-13.04,0-28.625-5.006-38.784-12.456c-9.15-6.713-15.299-16.49-16.868-26.827
				c-1.284-8.467,0.638-16.684,5.409-23.134c5.833-7.899,15.36-12.429,26.14-12.429c8.741,0,17.665,3.021,25.135,8.499
				c12.365,9.059,22.885,25.771,25.013,39.735c1.079,7.098-0.096,13.203-3.391,17.661
				C525.477,512.047,517.641,515.14,507.153,515.14z M483.05,444.358c-9.476,0-17.812,3.93-22.871,10.777
				c-4.126,5.577-5.78,12.723-4.658,20.114c1.408,9.273,6.966,18.077,15.253,24.155c9.517,6.982,24.137,11.669,36.379,11.669
				c6.379,0,14.921-1.266,19.384-7.299c2.679-3.625,3.568-8.546,2.64-14.637c-1.945-12.79-12.004-28.723-23.396-37.067
				C499.004,447.097,490.93,444.358,483.05,444.358z" fill="#6E6E96"></path>
		</g>
		<g>
			<path d="M642.782,309.494c77.748,63.88,112.95,148.901,78.604,189.906
				c-34.344,40.99-63.053-51.795-140.808-115.673c-77.752-63.876-175.138-74.668-140.804-115.654
				c24.455-29.182,77.527-28.198,134.126-2.183C573.91,265.886,618.361,287.351,642.782,309.494z" fill="#FFFFFF"></path>
			<path d="M703.992,511.54c-15.751,0-31.138-19.848-52.434-47.322c-18.581-23.976-41.712-53.815-72.27-78.919
				c-30.562-25.107-64.455-42.107-91.688-55.767c-31.021-15.559-53.433-26.8-56.581-41.994c-1.361-6.571,0.993-13.363,7.197-20.771
				c12.345-14.731,32.172-22.52,57.333-22.52c23.638,0,51.025,6.846,79.201,19.797l-0.036,0.08
				c6.442,2.61,47.561,24.034,69.433,43.863c52.537,43.165,87.826,97.973,92.02,142.972c1.861,19.995-2.708,37.195-13.22,49.747
				C716.839,507.994,710.639,511.54,703.992,511.54z M495.55,248.312c-23.92,0-42.668,7.285-54.216,21.066
				c-5.353,6.39-7.426,12.06-6.332,17.333c2.747,13.269,25.552,24.705,54.423,39.186c27.414,13.75,61.533,30.862,92.443,56.257
				c30.911,25.393,54.193,55.435,72.906,79.574c19.808,25.56,35.456,45.745,49.218,45.745c5.367,0,10.552-3.069,15.84-9.38
				c9.796-11.699,14.048-27.866,12.289-46.758c-4.097-43.959-38.823-97.707-90.629-140.273
				c-23.961-21.721-67.666-42.957-68.448-43.33C545.4,255.027,518.605,248.312,495.55,248.312z" fill="#6E6E96"></path>
		</g>
		<g>
			<path d="M857.521,451.599c-9.979,18.991-34.211,25.656-54.042,14.894c-19.88-10.762-27.867-34.86-17.879-53.828
				c9.979-18.99,34.194-25.647,54.069-14.894C859.528,408.532,867.523,432.648,857.521,451.599z" fill="#FFFFFF"></path>
			<path d="M823.517,473.669c-7.244,0-14.509-1.861-21.007-5.39c-20.809-11.262-29.2-36.636-18.709-56.562
				c6.848-13.024,20.567-21.118,35.806-21.118c7.245,0,14.517,1.861,21.031,5.386c20.812,11.278,29.191,36.651,18.681,56.562
				C852.472,465.576,838.752,473.669,823.517,473.669z M819.606,394.664c-13.724,0-26.063,7.26-32.209,18.946
				c-9.459,17.966-1.811,40.887,17.049,51.096c5.906,3.204,12.501,4.898,19.07,4.898c13.719,0,26.062-7.26,32.205-18.951
				c9.476-17.955,1.842-40.875-17.021-51.096C832.781,396.354,826.177,394.664,819.606,394.664z" fill="#6E6E96"></path>
		</g>
		<g>
			<path d="M761.631,364.085c-0.572,0-1.136-0.238-1.54-0.707l-33.043-38.311c-0.73-0.849-0.639-2.134,0.215-2.866
				c0.845-0.728,2.127-0.64,2.865,0.21l33.043,38.314c0.73,0.85,0.639,2.132-0.215,2.866
				C762.575,363.923,762.103,364.085,761.631,364.085z" fill="#6E6E96"></path>
		</g>
		<g opacity="0.15">
			<path d="M459.021,253.521c0,0-28.837,36.294,41.031,55.943c69.872,19.65,165.444,93.396,180.981,130.758
				c15.528,37.366,46.618-93.38-92.293-166.658c-138.904-73.269,115.411,29.353,138.911,94.849
				c23.5,65.506-45.349-108.157,0.938-76.418c46.292,31.743,72.071,100.602,59.178,31.743l28.081,69.089l-22.643,9.948
				l-13.659-25.624c0,0-18.375-19.995-18.375,18.383c0,38.382-30.296,37.361-30.296,37.361s-1.517,86.347-33.07,75.471
				c0,0-98.538-146.152-221.291-186.729C476.498,321.651,398.335,295.831,459.021,253.521z" fill="#6E6E96"></path>
		</g>
		<g opacity="0.1">
			<path d="M504.676,332.922c0,0,82.713,52.964,124.205,129.386c0,0-17.443,74.112-89.511,74.112l14.124,39.72
				c0,0,97.132-27.347,97.132-116.443C650.626,459.697,568.249,344.186,504.676,332.922z" fill="#6E6E96"></path>
		</g>
		<g opacity="0.1">
			<path d="M458.556,453.933c0,0,62.86,67.443,55.643,2.938c0,0,54.598,64.137-33.1,50.577
				C481.1,507.443,436.004,476.48,458.556,453.933z" fill="#6E6E96"></path>
		</g>
		<g opacity="0.15">
			<path d="M383.068,560.834c0,0,9.293-51.191,49.294-11.188c40.009,40.007,47.961,53.086,5.988,53.086
				l70.799-22.202l-123.408-92.388L383.068,560.834z" fill="#6E6E96"></path>
		</g>
		<g opacity="0.15">
			<path d="M645.171,494.395l30.403,30.403c0,0,5.705,94.726-85.989,110.005
				c-91.708,15.282-232.976,92.447-254.142-95.604c0,0-22.957-36.469-29.708,0c0,0-20.833-35.146-12.617-107.643
				c0.362-3.196,0.78-6.467,1.265-9.813c11.356-79.146-58.357,121.592,10.194,193.541l16.373-45.288
				c0,0-43.096,189.76,212.123,124.009l-22.016,22.016c0,0,199.479-21.189,186.749-207.648l-47.171-48.68L645.171,494.395z" fill="#6E6E96"></path>
		</g>
		<g>
			<g>
				<path d="M158.878,443.262l-0.016-0.154c0.687,4.593-7.243,32.88-47.933,60.167l0,0
					c-8.864,2.466-14.296,11.929-12.113,21.118c2.188,9.194,11.126,14.647,19.991,12.175l0,0
					c67.741-18.867,77.135-73.71,72.636-100.069l0,0c-1.61-9.324-10.174-15.378-19.169-13.52
					C163.281,424.86,157.283,433.923,158.878,443.262L158.878,443.262z" fill="#FFFFFF"></path>
				<path d="M114.497,539.195c-8.388,0-15.65-5.895-17.657-14.33c-2.403-10.119,3.514-20.562,13.221-23.457
					c39.768-26.762,47.026-54.148,46.807-57.848c-1.746-10.356,4.97-20.475,14.989-22.57c1.217-0.25,2.451-0.378,3.672-0.378
					c8.826,0,16.362,6.534,17.917,15.542c4.606,26.989-4.95,83.115-74.092,102.371C117.76,538.969,116.126,539.195,114.497,539.195z
					 M160.874,442.807c0.621,4.155-5.74,33.272-48.812,62.155l-0.588,0.27c-7.819,2.176-12.611,10.56-10.68,18.692
					c1.571,6.598,7.205,11.207,13.703,11.207c1.261,0,2.527-0.175,3.765-0.52c66.35-18.483,75.571-72.037,71.178-97.771
					c-1.383-8.019-8.973-13.469-16.755-11.874c-7.878,1.652-13.164,9.639-11.821,17.843L160.874,442.807z" fill="#6E6E96"></path>
			</g>
		</g>
		<g opacity="0.15">
			<path d="M152.928,521.328c0,0,18.303,79.844,148.432,133.124c0,0,29.475,27.294-17.47,45.856
				c-46.942,18.562-82.961-38.33-82.961-38.33l15.271-27.188c0,0-86.471-68.178-86.471-101.784L152.928,521.328z" fill="#6E6E96"></path>
		</g>
		<g opacity="0.15">
			<path d="M109.203,477.604c0,0-34.934,0.051-34.934-34.937c0-34.992,25.474-9.52,25.474-9.52
				s-3.983-42.173-25.474-25.473c-21.486,16.7-77.455,66.146,25.691,105.15l26.911-26.914L109.203,477.604z" fill="#6E6E96"></path>
		</g>
		<g opacity="0.15">
			<path d="M790.449,650.085c0,0,42.579,18.555,61.14,0c18.554-18.558,25.548-40.842,33.187-33.192
				c7.646,7.645,38.655,91.482-64.506,77.112L790.449,650.085z" fill="#6E6E96"></path>
		</g>
	</g>
</g>
</svg>
