<svg viewBox="0 0 1024 1024" height="1024" width="1024" xmlns:xlink="http://www.w3.org/1999/xlink" xmlns="http://www.w3.org/2000/svg">
  <defs>
    <linearGradient gradientUnits="objectBoundingBox" y2="1" x2="0.5" x1="0.5" id="linear-gradient">
      <stop stop-color="#e1e1e1" offset="0"></stop>
      <stop stop-opacity="0" stop-color="#fff" offset="1"></stop>
    </linearGradient>
    <linearGradient gradientUnits="objectBoundingBox" y2="1" x2="0.5" x1="0.5" id="linear-gradient-2">
      <stop stop-color="#e2e2e2" offset="0"></stop>
      <stop stop-color="#bcbcbc" offset="1"></stop>
    </linearGradient>
    <linearGradient gradientUnits="objectBoundingBox" y2="0.354" x2="1" y1="0.272" id="linear-gradient-5">
      <stop stop-color="#bebbbb" offset="0"></stop>
      <stop stop-color="#dfdfdf" offset="1"></stop>
    </linearGradient>
    <linearGradient gradientUnits="objectBoundingBox" y2="0.556" x2="1" y1="0.245" id="linear-gradient-6">
      <stop stop-color="#ececec" offset="0"></stop>
      <stop stop-color="#c9c6c6" offset="1"></stop>
    </linearGradient>
    <linearGradient gradientUnits="objectBoundingBox" y2="0.425" x2="1" y1="0.536" id="linear-gradient-7">
      <stop stop-color="#bcbbbb" offset="0"></stop>
      <stop stop-color="#dbdada" offset="1"></stop>
    </linearGradient>
    <linearGradient gradientUnits="objectBoundingBox" y2="0.835" x2="0.346" y1="0.174" x1="0.522" id="linear-gradient-8">
      <stop stop-color="#fefefe" offset="0"></stop>
      <stop stop-color="#c4bfbf" offset="1"></stop>
    </linearGradient>
    <linearGradient gradientUnits="objectBoundingBox" y2="0.885" x2="0.623" y1="0.14" x1="0.385" id="linear-gradient-9">
      <stop stop-color="#fff" offset="0"></stop>
      <stop stop-color="#c7c7c7" offset="1"></stop>
    </linearGradient>
    <linearGradient gradientUnits="objectBoundingBox" y2="1" x2="0.5" x1="0.5" id="linear-gradient-10">
      <stop stop-color="#e1e1e1" offset="0"></stop>
      <stop stop-color="#b1aeae" offset="1"></stop>
    </linearGradient>
    <clipPath id="clip-暂无数据">
      <rect height="1024" width="1024"></rect>
    </clipPath>
  </defs>
  <g clip-path="url(#clip-暂无数据)" id="暂无数据">
    <rect fill="#fff" height="1024" width="1024"></rect>
    <g transform="translate(-160 -6.678)" id="暂无数据-2">
      <ellipse fill="url(#linear-gradient)" transform="translate(160 578.835)" ry="225.922" rx="512" cy="225.922" cx="512" id="椭圆_1"></ellipse>
      <g transform="translate(333.195 503.505)" id="组_2">
        <rect fill="#c5c5c5" transform="translate(38.022 107.413)" height="66.841" width="8.021" id="矩形_4"></rect>
        <path fill="url(#linear-gradient-2)" transform="translate(0 6)" d="M42.27-6S84.54,41.1,84.54,64.45A42.27,42.27,0,0,1,0,64.45C0,41.1,42.27-6,42.27-6Z" id="路径_3"></path>
      </g>
      <g transform="translate(928.489 549.082)" id="组_3">
        <rect fill="#c5c5c5" transform="translate(30.926 91.246)" height="56.146" width="8.021" id="矩形_4-2"></rect>
        <path fill="url(#linear-gradient-2)" transform="translate(0 6)" d="M36.094-6S72.188,34.233,72.188,54.173A36.094,36.094,0,1,1,0,54.173C0,34.233,36.094-6,36.094-6Z" id="路径_3-2"></path>
      </g>
      <g transform="translate(1024.181 632.556)" id="组_4">
        <rect fill="#c5c5c5" transform="translate(16.892 51.943)" height="31.797" width="5.299" id="矩形_4-3"></rect>
        <path fill="url(#linear-gradient-2)" transform="translate(0 6)" d="M20.37-6s20.37,22.7,20.37,33.955A20.37,20.37,0,0,1,0,27.955C0,16.7,20.37-6,20.37-6Z" id="路径_3-3"></path>
      </g>
      <g transform="translate(395.688 305.242)" id="组_14">
        <path fill="#d9d7d7" transform="translate(-706.896 -264.004)" d="M766.274,298.341V586.65l203-49.032V264.02Z" id="路径_31"></path>
        <path fill="url(#linear-gradient-5)" transform="translate(-539.748 -1330.3)" d="M1023.75,1647.072,1026.613,1367l-225.475-36.7v271.641Z" id="路径_32"></path>
        <path fill="url(#linear-gradient-6)" transform="translate(-684.85 -1304.735)" d="M744.266,1339.08l-.04,290.214,221.625,66.683V1409.632Z" id="路径_33"></path>
        <path fill="url(#linear-gradient-7)" transform="translate(-525.4 -1303.047)" d="M1012.337,1624.655l-206.4,69.555.422-286.257,205.992-68.221Z" id="路径_34"></path>
        <path fill="url(#linear-gradient-8)" opacity="0.51" transform="translate(-729.146 -1304.893)" d="M788.645,1339.3l-59.5,65.918,226.972,84.15,54.042-79.516Z" id="路径_35"></path>
        <path fill="url(#linear-gradient-9)" opacity="0.59" transform="translate(-527.287 -1303.37)" d="M807.81,1408.05l65.451,73.875,186.828-68.712-45.593-73.137Z" id="路径_36"></path>
      </g>
      <path fill="url(#linear-gradient-10)" transform="translate(732.027 139.785) rotate(17)" d="M41.591,74.661,0,49.323,125.989,0l-22.06,113.48L50.254,79.1,98.232,27.311Zm9.026,13.678v29.113L68.4,99.395Z" id="发布色块_1_"></path>
      <path stroke-dasharray="8 2" stroke-width="3" stroke="#afafaf" fill="none" transform="translate(308.514 -995.042)" d="M417.488,1248.64s-67.213,17.517-88.77,42.823" id="路径_37"></path>
    </g>
  </g>
</svg>
