<?xml version="1.0" standalone="no"?><!DOCTYPE svg PUBLIC "-//W3C//DTD SVG 1.1//EN" "http://www.w3.org/Graphics/SVG/1.1/DTD/svg11.dtd"><svg height="540" node-id="1" sillyvg="true" template-height="540" template-width="960" version="1.1" viewBox="0 0 960 540" width="960" xmlns="http://www.w3.org/2000/svg" xmlns:xlink="http://www.w3.org/1999/xlink"><defs node-id="56"></defs><g node-id="161"><g node-id="164"><path d="M 820.00 509.90 L 819.70 495.70 L 818.90 481.80 L 817.50 468.10 L 815.50 454.60 L 813.10 441.30 L 810.10 428.10 L 806.60 415.10 L 802.60 402.30 L 798.20 389.80 L 793.30 377.50 L 787.90 365.40 L 782.00 353.60 L 775.80 342.00 L 769.10 330.70 L 761.90 319.80 L 754.40 309.00 L 746.50 298.60 L 738.20 288.60 L 729.50 278.80 L 720.40 269.40 L 711.00 260.40 L 701.30 251.70 L 691.20 243.40 L 680.80 235.50 L 670.10 227.90 L 659.10 220.80 L 647.80 214.10 L 636.30 207.80 L 624.50 202.00 L 612.30 196.60 L 600.10 191.60 L 587.50 187.20 L 574.80 183.20 L 561.80 179.80 L 548.50 176.80 L 535.20 174.30 L 521.70 172.40 L 508.00 171.00 L 494.10 170.10 L 480.00 169.90 L 465.90 170.10 L 452.00 171.00 L 438.30 172.40 L 424.80 174.30 L 411.50 176.80 L 398.20 179.80 L 385.20 183.20 L 372.50 187.20 L 359.90 191.60 L 347.70 196.60 L 335.50 202.00 L 323.70 207.80 L 312.20 214.10 L 300.90 220.80 L 289.90 227.90 L 279.20 235.50 L 268.80 243.40 L 258.70 251.70 L 249.00 260.40 L 239.60 269.40 L 230.50 278.80 L 221.80 288.60 L 213.50 298.60 L 205.60 309.00 L 198.10 319.80 L 190.90 330.70 L 184.20 342.00 L 178.00 353.60 L 172.10 365.40 L 166.70 377.50 L 161.80 389.80 L 157.40 402.30 L 153.40 415.10 L 149.90 428.10 L 146.90 441.30 L 144.50 454.60 L 142.50 468.10 L 141.10 481.80 L 140.30 495.70 L 140.00 509.90" fill="#69baf9" fill-opacity="0.2" fill-rule="nonzero" group-id="1,4" id="路径_1806" node-id="3" stroke="none" target-height="340" target-width="680" target-x="140" target-y="169.9"></path></g><g node-id="165"><path d="M 727.60 509.90 L 727.30 498.10 L 726.50 486.50 L 725.20 475.20 L 723.40 464.00 L 721.10 453.00 L 718.20 442.10 L 715.00 431.50 L 711.20 421.10 L 707.10 410.90 L 702.40 400.90 L 697.40 391.10 L 691.90 381.70 L 686.10 372.50 L 679.80 363.60 L 673.20 354.90 L 666.20 346.60 L 658.90 338.60 L 651.20 330.90 L 643.20 323.60 L 634.80 316.60 L 626.20 309.90 L 617.30 303.70 L 608.10 297.80 L 598.60 292.40 L 588.80 287.30 L 578.90 282.70 L 568.70 278.50 L 558.30 274.80 L 547.60 271.50 L 536.70 268.70 L 525.70 266.40 L 514.60 264.50 L 503.20 263.20 L 491.70 262.40 L 479.90 262.10 L 468.10 262.40 L 456.60 263.20 L 445.20 264.50 L 434.10 266.40 L 423.10 268.70 L 412.20 271.50 L 401.50 274.80 L 391.10 278.50 L 380.90 282.70 L 371.00 287.30 L 361.20 292.40 L 351.70 297.80 L 342.50 303.70 L 333.60 309.90 L 325.00 316.60 L 316.60 323.60 L 308.60 330.90 L 300.90 338.60 L 293.60 346.60 L 286.60 354.90 L 280.00 363.60 L 273.70 372.50 L 267.90 381.70 L 262.40 391.10 L 257.40 400.90 L 252.70 410.90 L 248.60 421.10 L 244.80 431.50 L 241.60 442.10 L 238.70 453.00 L 236.40 464.00 L 234.60 475.20 L 233.30 486.50 L 232.50 498.10 L 232.20 509.90" fill="#69baf9" fill-opacity="0.5" fill-rule="nonzero" group-id="1,5" id="路径_1807" node-id="4" stroke="none" target-height="247.79999" target-width="495.39996" target-x="232.2" target-y="262.1"></path></g><path d="M 635.60 509.90 L 635.40 501.20 L 634.70 492.80 L 633.60 484.60 L 632.10 476.50 L 630.20 468.60 L 627.80 460.70 L 625.00 453.10 L 621.90 445.60 L 618.50 438.40 L 614.60 431.40 L 609.30 422.90 L 603.50 414.90 L 597.20 407.20 L 590.40 399.90 L 583.20 393.10 L 575.50 386.80 L 567.50 380.90 L 559.00 375.60 L 552.00 371.70 L 544.90 368.20 L 537.50 365.00 L 529.80 362.20 L 522.00 359.80 L 514.10 357.80 L 506.00 356.30 L 497.80 355.20 L 489.30 354.40 L 480.70 354.20 L 472.10 354.40 L 463.70 355.10 L 455.40 356.20 L 447.40 357.70 L 439.40 359.60 L 431.60 362.00 L 423.90 364.70 L 416.50 367.90 L 409.30 371.30 L 402.30 375.20 L 393.80 380.50 L 385.70 386.30 L 378.10 392.60 L 370.80 399.40 L 364.00 406.60 L 357.70 414.20 L 351.80 422.30 L 346.50 430.70 L 342.60 437.70 L 339.00 444.90 L 335.90 452.30 L 333.10 459.90 L 330.70 467.80 L 328.70 475.70 L 327.20 483.80 L 326.00 492.00 L 325.30 500.40 L 325.10 509.90" fill="#69baf9" fill-opacity="0.7" fill-rule="nonzero" group-id="1,6" id="路径_1808" node-id="5" stroke="none" target-height="155.69998" target-width="310.49997" target-x="325.1" target-y="354.2"></path></g><g node-id="162"><path d="M 735.00 510.00 L 471.00 510.00 L 469.60 509.80 L 467.50 508.50 L 466.20 506.40 L 466.00 505.00 L 466.70 502.50 L 468.50 500.70 L 469.60 500.20 L 735.00 500.00 L 736.40 500.20 L 738.50 501.50 L 739.80 503.60 L 740.00 505.00 L 739.80 506.40 L 738.50 508.50 L 736.40 509.80 L 735.00 510.00 Z" fill="#3d3d63" fill-rule="nonzero" group-id="2" node-id="73" stroke="none" target-height="10" target-width="274" target-x="466" target-y="500"></path><path d="M 814.00 510.00 L 754.60 509.80 L 753.50 509.30 L 751.70 507.50 L 751.00 505.00 L 751.70 502.50 L 753.50 500.70 L 754.60 500.20 L 815.40 500.20 L 816.50 500.70 L 818.30 502.50 L 819.00 505.00 L 818.80 506.40 L 817.50 508.50 L 815.40 509.80 L 814.00 510.00 Z" fill="#3d3d63" fill-rule="nonzero" group-id="2" node-id="75" stroke="none" target-height="9.799988" target-width="68" target-x="751" target-y="500.2"></path><path d="M 419.00 510.00 L 357.60 509.80 L 356.50 509.30 L 354.70 507.50 L 354.00 505.00 L 354.70 502.50 L 356.50 500.70 L 357.60 500.20 L 420.40 500.20 L 421.50 500.70 L 423.30 502.50 L 424.00 505.00 L 423.80 506.40 L 422.50 508.50 L 420.40 509.80 L 419.00 510.00 Z" fill="#3d3d63" fill-rule="nonzero" group-id="2" node-id="77" stroke="none" target-height="9.799988" target-width="70" target-x="354" target-y="500.2"></path><path d="M 324.00 510.00 L 146.00 510.00 L 144.60 509.80 L 142.50 508.50 L 141.20 506.40 L 141.00 505.00 L 141.70 502.50 L 143.50 500.70 L 144.60 500.20 L 324.00 500.00 L 325.40 500.20 L 327.50 501.50 L 328.80 503.60 L 329.00 505.00 L 328.80 506.40 L 327.50 508.50 L 325.40 509.80 L 324.00 510.00 Z" fill="#3d3d63" fill-rule="nonzero" group-id="2" node-id="79" stroke="none" target-height="10" target-width="188" target-x="141" target-y="500"></path><path d="M 447.00 505.00 L 446.30 507.00 L 445.50 507.80 L 444.00 508.70 L 442.00 509.00 L 440.00 508.70 L 438.50 507.80 L 437.20 506.10 L 437.00 505.00 L 437.70 503.00 L 438.50 502.20 L 440.00 501.30 L 442.00 501.00 L 444.00 501.30 L 445.50 502.20 L 446.30 503.00 L 447.00 505.00 Z" fill="#3d3d63" fill-rule="nonzero" group-id="2" id="椭圆_336" node-id="11" stroke="none" target-height="8" target-width="10" target-x="437" target-y="501"></path></g><path d="M 680.00 280.00 L 679.80 289.50 L 679.10 298.80 L 678.10 308.00 L 676.60 317.00 L 674.70 325.90 L 671.80 336.80 L 668.30 347.50 L 664.30 357.90 L 659.70 368.00 L 654.50 377.80 L 648.80 387.20 L 642.70 396.30 L 636.10 405.10 L 628.90 413.50 L 621.40 421.40 L 613.50 428.90 L 605.10 436.10 L 596.30 442.70 L 587.20 448.80 L 577.80 454.50 L 568.00 459.70 L 557.90 464.30 L 547.50 468.30 L 536.80 471.80 L 525.90 474.70 L 517.00 476.60 L 508.00 478.10 L 498.80 479.10 L 489.50 479.80 L 480.00 480.00 L 470.50 479.80 L 461.20 479.10 L 452.00 478.10 L 443.00 476.60 L 434.10 474.70 L 423.20 471.80 L 412.50 468.30 L 402.10 464.30 L 392.00 459.70 L 382.20 454.50 L 372.80 448.80 L 363.70 442.70 L 354.90 436.10 L 346.50 428.90 L 338.60 421.40 L 331.10 413.50 L 323.90 405.10 L 317.30 396.30 L 311.20 387.20 L 305.50 377.80 L 300.30 368.00 L 295.70 357.90 L 291.70 347.50 L 288.20 336.80 L 285.30 325.90 L 283.40 317.00 L 281.90 308.00 L 280.90 298.80 L 280.20 289.50 L 280.00 280.00 L 280.20 270.50 L 280.90 261.20 L 281.90 252.00 L 283.40 243.00 L 285.30 234.10 L 288.20 223.20 L 291.70 212.50 L 295.70 202.10 L 300.30 192.00 L 305.50 182.20 L 311.20 172.80 L 317.30 163.70 L 323.90 154.90 L 331.10 146.50 L 338.60 138.60 L 346.50 131.10 L 354.90 123.90 L 363.70 117.30 L 372.80 111.20 L 382.20 105.50 L 392.00 100.30 L 402.10 95.70 L 412.50 91.70 L 423.20 88.20 L 434.10 85.30 L 443.00 83.40 L 452.00 81.90 L 461.20 80.90 L 470.50 80.20 L 480.00 80.00 L 489.50 80.20 L 498.80 80.90 L 508.00 81.90 L 517.00 83.40 L 525.90 85.30 L 536.80 88.20 L 547.50 91.70 L 557.90 95.70 L 568.00 100.30 L 577.80 105.50 L 587.20 111.20 L 596.30 117.30 L 605.10 123.90 L 613.50 131.10 L 621.40 138.60 L 628.90 146.50 L 636.10 154.90 L 642.70 163.70 L 648.80 172.80 L 654.50 182.20 L 659.70 192.00 L 664.30 202.10 L 668.30 212.50 L 671.80 223.20 L 674.70 234.10 L 676.60 243.00 L 678.10 252.00 L 679.10 261.20 L 679.80 270.50 L 680.00 280.00 Z" fill="#e39a6d" fill-rule="nonzero" node-id="83" stroke="none" target-height="400" target-width="400" target-x="280" target-y="80"></path><path d="M 480.00 480.00 L 470.50 479.80 L 461.20 479.10 L 452.00 478.10 L 443.00 476.60 L 434.20 474.70 L 423.20 471.80 L 412.60 468.30 L 402.20 464.30 L 392.10 459.60 L 382.30 454.50 L 372.80 448.80 L 363.70 442.70 L 355.00 436.00 L 346.60 428.90 L 338.60 421.40 L 331.10 413.40 L 324.00 405.00 L 317.30 396.30 L 311.20 387.20 L 305.50 377.70 L 300.40 367.90 L 295.70 357.80 L 291.70 347.40 L 288.20 336.80 L 285.30 325.80 L 283.40 317.00 L 281.90 308.00 L 280.90 298.80 L 280.20 289.50 L 280.00 280.00 L 280.20 270.50 L 280.90 261.20 L 281.90 252.00 L 283.40 243.00 L 285.30 234.20 L 288.20 223.20 L 291.70 212.60 L 295.70 202.20 L 300.40 192.10 L 305.50 182.30 L 311.20 172.80 L 317.30 163.70 L 324.00 155.00 L 331.10 146.60 L 338.60 138.60 L 346.60 131.10 L 355.00 124.00 L 363.70 117.30 L 372.80 111.20 L 382.30 105.50 L 392.10 100.40 L 402.20 95.70 L 412.60 91.70 L 423.20 88.20 L 434.20 85.30 L 443.00 83.40 L 452.00 81.90 L 461.20 80.90 L 470.50 80.20 L 480.00 80.00 L 489.50 80.20 L 498.80 80.90 L 508.00 81.90 L 517.00 83.40 L 525.80 85.30 L 536.80 88.20 L 547.40 91.70 L 557.80 95.70 L 567.90 100.40 L 577.70 105.50 L 587.20 111.20 L 596.30 117.30 L 605.00 124.00 L 613.40 131.10 L 621.40 138.60 L 628.90 146.60 L 636.00 155.00 L 642.70 163.70 L 648.80 172.80 L 654.50 182.30 L 659.60 192.10 L 664.30 202.20 L 668.30 212.60 L 671.80 223.20 L 674.70 234.20 L 676.60 243.00 L 678.10 252.00 L 679.10 261.20 L 679.80 270.50 L 680.00 280.00 L 679.80 289.50 L 679.10 298.80 L 678.10 308.00 L 676.60 317.00 L 674.70 325.80 L 671.80 336.80 L 668.30 347.40 L 664.30 357.80 L 659.60 367.90 L 654.50 377.70 L 648.80 387.20 L 642.70 396.30 L 636.00 405.00 L 628.90 413.40 L 621.40 421.40 L 613.40 428.90 L 605.00 436.00 L 596.30 442.70 L 587.20 448.80 L 577.70 454.50 L 567.90 459.60 L 557.80 464.30 L 547.40 468.30 L 536.80 471.80 L 525.80 474.70 L 517.00 476.60 L 508.00 478.10 L 498.80 479.10 L 489.50 479.80 L 480.00 480.00 Z M 480.00 106.00 L 470.40 106.30 L 460.90 107.00 L 451.70 108.30 L 442.70 110.00 L 433.80 112.20 L 425.00 114.90 L 416.50 118.00 L 408.20 121.50 L 400.10 125.40 L 392.20 129.80 L 384.60 134.50 L 377.30 139.60 L 370.20 145.10 L 363.50 150.90 L 357.00 157.00 L 350.90 163.50 L 345.10 170.20 L 339.60 177.30 L 334.50 184.60 L 329.80 192.20 L 325.40 200.10 L 321.50 208.20 L 318.00 216.50 L 314.90 225.00 L 312.20 233.80 L 310.00 242.70 L 308.30 251.70 L 307.00 260.90 L 306.30 270.40 L 306.00 280.00 L 306.30 289.60 L 307.00 299.10 L 308.30 308.30 L 310.00 317.30 L 312.20 326.20 L 314.90 335.00 L 318.00 343.50 L 321.50 351.80 L 325.40 359.90 L 329.80 367.80 L 334.50 375.40 L 339.60 382.70 L 345.10 389.80 L 350.90 396.50 L 357.00 403.00 L 363.50 409.10 L 370.20 414.90 L 377.30 420.40 L 384.60 425.50 L 392.20 430.20 L 400.10 434.60 L 408.20 438.50 L 416.50 442.00 L 425.00 445.10 L 433.80 447.80 L 442.70 450.00 L 451.70 451.70 L 460.90 453.00 L 470.40 453.70 L 480.00 454.00 L 489.60 453.70 L 499.10 453.00 L 508.30 451.70 L 517.30 450.00 L 526.20 447.80 L 535.00 445.10 L 543.50 442.00 L 551.80 438.50 L 559.90 434.60 L 567.80 430.20 L 575.40 425.50 L 582.70 420.40 L 589.80 414.90 L 596.50 409.10 L 603.00 403.00 L 609.10 396.50 L 614.90 389.80 L 620.40 382.70 L 625.50 375.40 L 630.20 367.80 L 634.60 359.90 L 638.50 351.80 L 642.00 343.50 L 645.10 335.00 L 647.80 326.20 L 650.00 317.30 L 651.70 308.30 L 653.00 299.10 L 653.70 289.60 L 654.00 280.00 L 653.70 270.40 L 653.00 260.90 L 651.70 251.70 L 650.00 242.70 L 647.80 233.80 L 645.10 225.00 L 642.00 216.50 L 638.50 208.20 L 634.60 200.10 L 630.20 192.20 L 625.50 184.60 L 620.40 177.30 L 614.90 170.20 L 609.10 163.50 L 603.00 157.00 L 596.50 150.90 L 589.80 145.10 L 582.70 139.60 L 575.40 134.50 L 567.80 129.80 L 559.90 125.40 L 551.80 121.50 L 543.50 118.00 L 535.00 114.90 L 526.20 112.20 L 517.30 110.00 L 508.30 108.30 L 499.10 107.00 L 489.60 106.30 L 480.00 106.00 Z" fill="#3d3d63" fill-rule="nonzero" node-id="85" stroke="none" target-height="400" target-width="400" target-x="280" target-y="80"></path><path d="M 423.00 371.50 L 422.80 374.70 L 422.20 377.80 L 421.20 380.60 L 419.80 383.40 L 416.10 388.10 L 411.40 391.80 L 408.60 393.20 L 405.80 394.20 L 402.70 394.80 L 399.50 395.00 L 396.30 394.80 L 393.20 394.20 L 390.40 393.20 L 385.10 390.10 L 380.90 385.90 L 379.20 383.40 L 376.80 377.80 L 376.20 374.70 L 376.00 371.50 L 376.20 368.30 L 376.80 365.20 L 377.80 362.40 L 380.90 357.10 L 385.10 352.90 L 390.40 349.80 L 393.20 348.80 L 396.30 348.20 L 399.50 348.00 L 402.70 348.20 L 405.80 348.80 L 408.60 349.80 L 411.40 351.20 L 416.10 354.90 L 419.80 359.60 L 421.20 362.40 L 422.20 365.20 L 422.80 368.30 L 423.00 371.50 Z" fill="#fbd45c" fill-rule="nonzero" id="椭圆_492" node-id="14" stroke="none" target-height="47" target-width="47" target-x="376" target-y="348"></path><path d="M 604.00 204.50 L 603.70 207.90 L 602.80 211.00 L 601.50 213.80 L 599.60 216.40 L 597.40 218.60 L 594.80 220.50 L 592.00 221.80 L 588.90 222.70 L 585.50 223.00 L 582.10 222.70 L 579.00 221.80 L 576.20 220.50 L 573.60 218.60 L 571.40 216.40 L 569.50 213.80 L 568.20 211.00 L 567.30 207.90 L 567.00 204.50 L 567.30 201.10 L 568.20 198.00 L 569.50 195.20 L 571.40 192.60 L 573.60 190.40 L 576.20 188.50 L 579.00 187.20 L 582.10 186.30 L 585.50 186.00 L 588.90 186.30 L 592.00 187.20 L 594.80 188.50 L 597.40 190.40 L 599.60 192.60 L 601.50 195.20 L 602.80 198.00 L 603.70 201.10 L 604.00 204.50 Z" fill="#fbd45c" fill-rule="nonzero" id="椭圆_496" node-id="15" stroke="none" target-height="37" target-width="37" target-x="567" target-y="186"></path><path d="M 393.00 239.50 L 392.70 242.50 L 392.00 245.30 L 390.70 247.80 L 389.10 250.10 L 387.10 252.10 L 384.80 253.70 L 382.30 255.00 L 379.50 255.70 L 376.50 256.00 L 373.50 255.70 L 370.70 255.00 L 368.20 253.70 L 365.90 252.10 L 363.90 250.10 L 362.30 247.80 L 361.00 245.30 L 360.30 242.50 L 360.00 239.50 L 360.30 236.50 L 361.00 233.70 L 362.30 231.20 L 363.90 228.90 L 365.90 226.90 L 368.20 225.30 L 370.70 224.00 L 373.50 223.30 L 376.50 223.00 L 379.50 223.30 L 382.30 224.00 L 384.80 225.30 L 387.10 226.90 L 389.10 228.90 L 390.70 231.20 L 392.00 233.70 L 392.70 236.50 L 393.00 239.50 Z" fill="#70626f" fill-rule="nonzero" id="椭圆_493" node-id="16" stroke="none" target-height="33" target-width="33" target-x="360" target-y="223"></path><path d="M 461.00 361.50 L 460.70 364.50 L 460.00 367.30 L 458.70 369.80 L 457.10 372.10 L 455.10 374.10 L 452.80 375.70 L 450.30 377.00 L 447.50 377.70 L 444.50 378.00 L 441.50 377.70 L 438.70 377.00 L 436.20 375.70 L 433.90 374.10 L 431.90 372.10 L 430.30 369.80 L 429.00 367.30 L 428.30 364.50 L 428.00 361.50 L 428.30 358.50 L 429.00 355.70 L 430.30 353.20 L 431.90 350.90 L 433.90 348.90 L 436.20 347.30 L 438.70 346.00 L 441.50 345.30 L 444.50 345.00 L 447.50 345.30 L 450.30 346.00 L 452.80 347.30 L 455.10 348.90 L 457.10 350.90 L 458.70 353.20 L 460.00 355.70 L 460.70 358.50 L 461.00 361.50 Z" fill="#70626f" fill-rule="nonzero" id="椭圆_494" node-id="17" stroke="none" target-height="33" target-width="33" target-x="428" target-y="345"></path><path d="M 654.00 280.00 L 653.70 289.70 L 653.00 299.10 L 651.70 308.30 L 650.00 317.40 L 647.80 326.20 L 645.20 335.00 L 642.10 343.60 L 638.60 351.90 L 634.70 359.90 L 630.40 367.80 L 625.60 375.40 L 620.50 382.70 L 615.10 389.80 L 609.30 396.50 L 603.20 403.00 L 596.70 409.10 L 590.00 414.90 L 583.00 420.30 L 575.70 425.40 L 568.00 430.20 L 560.20 434.50 L 552.20 438.40 L 543.90 442.00 L 535.30 445.10 L 526.50 447.70 L 517.70 450.00 L 508.60 451.70 L 499.40 452.90 L 490.00 453.70 L 480.00 454.00 L 491.50 450.10 L 502.50 446.00 L 512.80 441.50 L 522.50 436.80 L 532.20 431.50 L 541.30 426.10 L 549.90 420.50 L 565.90 408.60 L 573.30 402.40 L 586.80 389.90 L 595.20 381.00 L 602.80 372.40 L 609.70 363.80 L 616.20 355.00 L 627.10 338.50 L 636.20 322.60 L 644.60 305.30 L 650.90 289.50 L 654.00 280.00 Z" fill="#c57d51" fill-rule="nonzero" id="路径_2279" node-id="18" stroke="none" target-height="174" target-width="174" target-x="480" target-y="280"></path><path d="M 353.80 445.20 L 343.70 445.00 L 334.20 444.30 L 325.40 443.30 L 317.10 441.90 L 309.40 440.20 L 301.60 437.90 L 294.40 435.20 L 287.80 432.30 L 281.80 429.00 L 276.30 425.40 L 271.10 421.20 L 266.40 416.80 L 262.40 412.00 L 258.80 406.80 L 255.80 401.40 L 253.40 395.70 L 251.60 389.90 L 250.30 383.90 L 249.70 377.60 L 249.60 371.00 L 250.10 364.60 L 251.10 358.00 L 252.70 351.10 L 254.90 343.90 L 257.80 336.50 L 261.00 329.40 L 264.80 322.20 L 269.20 314.80 L 274.30 307.10 L 280.10 299.10 L 283.50 296.00 L 287.60 294.30 L 292.00 294.10 L 294.20 294.60 L 296.30 295.40 L 298.30 296.70 L 300.10 298.30 L 301.50 300.10 L 303.10 304.20 L 303.30 308.60 L 302.00 312.90 L 290.30 330.00 L 286.30 337.00 L 283.00 343.60 L 280.00 350.60 L 277.90 357.20 L 276.40 363.30 L 275.70 369.00 L 275.50 373.70 L 275.80 378.20 L 276.50 382.30 L 277.60 386.30 L 279.10 390.00 L 281.30 393.80 L 284.00 397.30 L 287.20 400.70 L 291.00 403.80 L 295.40 406.80 L 299.90 409.20 L 304.90 411.40 L 310.50 413.40 L 316.60 415.20 L 323.50 416.70 L 331.80 417.90 L 340.90 418.80 L 350.90 419.20 L 361.80 419.10 L 373.50 418.40 L 385.60 417.10 L 398.30 415.30 L 411.50 412.80 L 424.40 409.90 L 437.70 406.50 L 451.20 402.50 L 465.10 397.90 L 478.70 392.90 L 492.50 387.40 L 506.30 381.40 L 520.30 374.80 L 534.10 367.80 L 547.40 360.60 L 560.10 353.20 L 572.50 345.60 L 584.60 337.50 L 596.20 329.30 L 607.00 321.00 L 617.30 312.60 L 627.40 303.70 L 636.60 294.80 L 645.10 286.00 L 652.90 277.20 L 659.70 268.70 L 665.50 260.60 L 670.40 253.00 L 674.50 245.60 L 677.60 239.30 L 680.00 233.30 L 681.90 227.70 L 683.20 222.40 L 684.10 217.40 L 684.50 212.10 L 684.30 207.20 L 683.70 202.60 L 682.50 198.30 L 680.90 194.20 L 678.70 190.40 L 675.90 186.70 L 672.60 183.30 L 668.60 180.00 L 664.40 177.30 L 659.60 174.70 L 654.20 172.40 L 648.20 170.30 L 642.20 168.70 L 635.60 167.30 L 618.20 165.10 L 616.00 164.30 L 612.40 161.80 L 609.80 158.20 L 609.00 156.20 L 608.50 154.00 L 608.50 151.60 L 608.90 149.20 L 609.60 147.10 L 612.20 143.40 L 615.70 140.90 L 617.80 140.00 L 620.00 139.60 L 622.40 139.60 L 632.70 140.60 L 642.10 142.10 L 650.90 144.10 L 659.00 146.50 L 665.50 149.00 L 671.50 151.70 L 677.00 154.60 L 682.00 157.80 L 686.70 161.20 L 691.10 165.00 L 695.00 169.10 L 698.50 173.40 L 701.60 178.00 L 704.30 182.90 L 706.40 187.90 L 708.20 193.20 L 709.40 198.50 L 710.20 204.10 L 710.50 209.80 L 710.40 215.80 L 709.60 222.70 L 708.20 229.90 L 706.10 237.40 L 703.30 245.20 L 699.70 253.40 L 695.80 261.00 L 691.20 268.80 L 685.90 276.90 L 679.70 285.30 L 672.80 294.00 L 664.40 303.50 L 655.20 313.00 L 645.20 322.60 L 634.80 331.80 L 623.70 340.90 L 611.90 349.90 L 599.80 358.60 L 587.10 367.10 L 573.80 375.30 L 560.20 383.20 L 546.20 390.80 L 531.70 398.20 L 517.00 405.10 L 502.30 411.40 L 487.80 417.20 L 473.00 422.60 L 458.50 427.40 L 444.30 431.60 L 429.90 435.30 L 415.90 438.50 L 402.20 441.00 L 388.50 443.00 L 375.30 444.30 L 362.70 445.10 L 353.80 445.20 Z" fill="#3d3d63" fill-rule="nonzero" node-id="92" stroke="none" target-height="305.6" target-width="460.9" target-x="249.6" target-y="139.6"></path><path d="M 640.00 342.00 L 639.80 346.70 L 639.10 351.10 L 638.00 355.40 L 636.50 359.50 L 634.50 363.50 L 632.30 367.20 L 629.70 370.60 L 626.80 373.80 L 623.60 376.70 L 620.20 379.30 L 616.50 381.50 L 612.50 383.50 L 608.40 385.00 L 604.10 386.10 L 599.70 386.80 L 595.00 387.00 L 590.30 386.80 L 585.90 386.10 L 581.60 385.00 L 577.50 383.50 L 573.50 381.50 L 569.80 379.30 L 566.40 376.70 L 563.20 373.80 L 560.30 370.60 L 557.70 367.20 L 555.50 363.50 L 553.50 359.50 L 552.00 355.40 L 550.90 351.10 L 550.20 346.70 L 550.00 342.00 L 550.20 337.30 L 550.90 332.90 L 552.00 328.60 L 553.50 324.50 L 555.50 320.50 L 557.70 316.80 L 560.30 313.40 L 563.20 310.20 L 566.40 307.30 L 569.80 304.70 L 573.50 302.50 L 577.50 300.50 L 581.60 299.00 L 585.90 297.90 L 590.30 297.20 L 595.00 297.00 L 599.70 297.20 L 604.10 297.90 L 608.40 299.00 L 612.50 300.50 L 616.50 302.50 L 620.20 304.70 L 623.60 307.30 L 626.80 310.20 L 629.70 313.40 L 632.30 316.80 L 634.50 320.50 L 636.50 324.50 L 638.00 328.60 L 639.10 332.90 L 639.80 337.30 L 640.00 342.00 Z" fill="#70626f" fill-rule="nonzero" node-id="94" stroke="none" target-height="90" target-width="90" target-x="550" target-y="297"></path><path d="M 595.00 387.00 L 590.30 386.70 L 585.90 386.10 L 581.60 385.00 L 577.50 383.50 L 573.50 381.50 L 569.80 379.30 L 566.40 376.70 L 563.20 373.80 L 560.30 370.60 L 557.70 367.20 L 555.50 363.50 L 553.50 359.50 L 552.00 355.40 L 550.90 351.10 L 550.30 346.70 L 550.00 342.00 L 550.30 337.30 L 550.90 332.90 L 552.00 328.60 L 553.50 324.50 L 555.50 320.50 L 557.70 316.80 L 560.30 313.40 L 563.20 310.20 L 566.40 307.30 L 569.80 304.70 L 573.50 302.50 L 577.50 300.50 L 581.60 299.00 L 585.90 297.90 L 590.30 297.30 L 595.00 297.00 L 599.70 297.30 L 604.10 297.90 L 608.40 299.00 L 612.50 300.50 L 616.50 302.50 L 620.20 304.70 L 623.60 307.30 L 626.80 310.20 L 629.70 313.40 L 632.30 316.80 L 634.50 320.50 L 636.50 324.50 L 638.00 328.60 L 639.10 332.90 L 639.70 337.30 L 640.00 342.00 L 639.70 346.70 L 639.10 351.10 L 638.00 355.40 L 636.50 359.50 L 634.50 363.50 L 632.30 367.20 L 629.70 370.60 L 626.80 373.80 L 623.60 376.70 L 620.20 379.30 L 616.50 381.50 L 612.50 383.50 L 608.40 385.00 L 604.10 386.10 L 599.70 386.70 L 595.00 387.00 Z M 595.00 317.00 L 591.60 317.20 L 588.30 317.90 L 585.30 319.00 L 582.40 320.40 L 579.70 322.20 L 577.30 324.30 L 575.20 326.70 L 573.40 329.40 L 572.00 332.30 L 570.90 335.30 L 570.20 338.60 L 570.00 342.00 L 570.20 345.40 L 570.90 348.70 L 572.00 351.70 L 573.40 354.60 L 575.20 357.30 L 577.30 359.70 L 579.70 361.80 L 582.40 363.60 L 585.30 365.00 L 588.30 366.10 L 591.60 366.80 L 595.00 367.00 L 598.40 366.80 L 601.70 366.10 L 604.70 365.00 L 607.60 363.60 L 610.30 361.80 L 612.70 359.70 L 614.80 357.30 L 616.60 354.60 L 618.00 351.70 L 619.10 348.70 L 619.80 345.40 L 620.00 342.00 L 619.80 338.60 L 619.10 335.30 L 618.00 332.30 L 616.60 329.40 L 614.80 326.70 L 612.70 324.30 L 610.30 322.20 L 607.60 320.40 L 604.70 319.00 L 601.70 317.90 L 598.40 317.20 L 595.00 317.00 Z" fill="#3d3d63" fill-rule="nonzero" node-id="96" stroke="none" target-height="90" target-width="90" target-x="550" target-y="297"></path><path d="M 577.00 408.00 L 576.40 411.50 L 575.60 413.00 L 573.50 415.60 L 570.50 417.40 L 567.00 418.00 L 563.50 417.40 L 560.50 415.60 L 558.40 413.00 L 557.20 409.80 L 557.20 406.20 L 557.60 404.50 L 559.40 401.50 L 562.00 399.40 L 563.50 398.60 L 567.00 398.00 L 570.50 398.60 L 572.00 399.40 L 574.60 401.50 L 576.40 404.50 L 577.00 408.00 Z" fill="#70626f" fill-rule="nonzero" id="椭圆_495" node-id="22" stroke="none" target-height="20" target-width="19.799988" target-x="557.2" target-y="398"></path><path d="M 527.00 265.00 L 522.80 264.80 L 518.60 264.20 L 514.60 263.10 L 510.70 261.70 L 507.00 259.90 L 500.30 255.40 L 494.60 249.70 L 490.10 243.00 L 488.30 239.30 L 486.90 235.40 L 485.80 231.40 L 485.20 227.30 L 485.00 218.10 L 477.70 217.80 L 473.20 216.50 L 469.10 214.10 L 467.30 212.50 L 464.40 208.60 L 462.60 204.30 L 462.00 199.50 L 462.60 194.70 L 464.50 190.30 L 467.40 186.40 L 471.30 183.50 L 475.70 181.60 L 480.50 181.00 L 483.40 181.20 L 486.10 181.90 L 488.80 183.00 L 491.20 184.40 L 493.30 186.10 L 498.10 192.10 L 505.70 186.80 L 509.60 184.80 L 513.70 183.20 L 518.00 182.00 L 522.40 181.20 L 527.00 181.00 L 531.20 181.20 L 535.40 181.80 L 539.40 182.90 L 543.30 184.30 L 547.00 186.10 L 553.70 190.60 L 559.40 196.30 L 563.90 203.00 L 565.70 206.70 L 567.10 210.60 L 568.20 214.60 L 568.80 218.80 L 569.00 223.00 L 568.80 227.20 L 568.20 231.40 L 567.10 235.40 L 565.70 239.30 L 563.90 243.00 L 559.40 249.70 L 556.70 252.70 L 553.70 255.40 L 547.00 259.90 L 543.30 261.70 L 539.40 263.10 L 535.40 264.20 L 531.20 264.80 L 527.00 265.00 Z" fill="#736574" fill-rule="nonzero" node-id="99" stroke="none" target-height="84" target-width="107" target-x="462" target-y="181"></path><path d="M 527.00 260.00 L 534.50 259.20 L 541.40 257.10 L 545.70 254.90 L 549.60 252.30 L 553.20 249.20 L 556.30 245.60 L 558.90 241.70 L 561.10 237.40 L 563.20 230.50 L 564.00 223.00 L 563.20 215.50 L 561.10 208.60 L 558.90 204.30 L 556.30 200.40 L 553.20 196.80 L 549.60 193.70 L 545.70 191.10 L 541.40 188.90 L 534.50 186.80 L 530.80 186.20 L 527.00 186.00 L 523.00 186.20 L 519.20 186.80 L 515.40 187.80 L 511.80 189.20 L 508.40 191.00 L 503.10 194.30 L 501.20 195.00 L 499.10 195.20 L 496.90 194.90 L 494.80 194.20 L 492.90 193.00 L 488.20 188.40 L 486.50 187.40 L 482.60 186.20 L 478.00 186.20 L 475.80 186.80 L 473.70 187.80 L 470.20 190.80 L 467.80 194.80 L 467.20 197.00 L 467.00 199.50 L 467.20 201.90 L 467.80 204.10 L 468.80 206.20 L 471.70 209.70 L 475.60 212.10 L 477.80 212.70 L 482.00 213.20 L 483.70 213.70 L 485.20 214.40 L 487.10 216.00 L 488.70 218.00 L 489.80 221.20 L 490.80 230.50 L 492.90 237.40 L 495.10 241.70 L 497.70 245.60 L 500.80 249.20 L 504.40 252.30 L 508.30 254.90 L 512.60 257.10 L 519.50 259.20 L 527.00 260.00 M 527.00 270.00 L 522.10 269.70 L 517.50 269.00 L 513.00 267.90 L 508.70 266.30 L 504.60 264.30 L 500.70 262.00 L 497.10 259.30 L 493.80 256.20 L 490.70 252.90 L 488.00 249.30 L 485.70 245.40 L 483.70 241.30 L 482.10 237.00 L 481.00 232.50 L 480.30 227.90 L 480.00 223.00 L 473.80 222.00 L 468.40 219.60 L 465.90 217.90 L 461.80 213.70 L 458.80 208.50 L 457.20 202.70 L 457.00 199.50 L 457.20 196.30 L 457.80 193.20 L 460.20 187.60 L 463.90 182.90 L 468.60 179.20 L 474.20 176.80 L 477.30 176.20 L 480.50 176.00 L 484.30 176.30 L 487.80 177.10 L 491.00 178.50 L 494.10 180.30 L 496.80 182.50 L 499.10 185.20 L 503.20 182.50 L 507.50 180.20 L 512.10 178.40 L 516.80 177.10 L 521.80 176.30 L 527.00 176.00 L 531.90 176.30 L 536.50 177.00 L 541.00 178.10 L 545.30 179.70 L 549.40 181.70 L 553.30 184.00 L 556.90 186.70 L 560.20 189.80 L 563.30 193.10 L 566.00 196.70 L 568.30 200.60 L 570.30 204.70 L 571.90 209.00 L 573.00 213.50 L 573.70 218.10 L 574.00 223.00 L 573.70 227.90 L 573.00 232.50 L 571.90 237.00 L 570.30 241.30 L 568.30 245.40 L 566.00 249.30 L 563.30 252.90 L 560.20 256.20 L 556.90 259.30 L 553.30 262.00 L 549.40 264.30 L 545.30 266.30 L 541.00 267.90 L 536.50 269.00 L 531.90 269.70 L 527.00 270.00 Z" fill="#3d3d63" fill-rule="nonzero" node-id="101" stroke="none" target-height="94" target-width="117" target-x="457" target-y="176"></path><g node-id="163"><g node-id="167"><path d="M 689.70 100.30 L 657.00 100.30 L 655.40 100.00 L 654.10 99.20 L 653.30 97.90 L 653.00 96.30 L 653.30 94.80 L 654.10 93.50 L 655.40 92.70 L 657.00 92.30 L 689.70 92.30 L 691.20 92.70 L 692.50 93.50 L 693.30 94.80 L 693.70 96.30 L 693.30 97.90 L 692.50 99.20 L 691.20 100.00 L 689.70 100.30 Z" fill="#1663ed" fill-rule="nonzero" group-id="3,7" node-id="105" stroke="none" target-height="8" target-width="40.700012" target-x="653" target-y="92.3"></path><path d="M 673.30 116.70 L 671.70 116.40 L 670.50 115.50 L 669.60 114.30 L 669.30 112.70 L 669.30 80.00 L 669.60 78.40 L 670.50 77.20 L 671.70 76.30 L 673.30 76.00 L 674.90 76.30 L 676.10 77.20 L 677.00 78.40 L 677.30 80.00 L 677.30 112.70 L 677.00 114.30 L 676.10 115.50 L 674.90 116.40 L 673.30 116.70 Z" fill="#1663ed" fill-rule="nonzero" group-id="3,7" node-id="107" stroke="none" target-height="40.699997" target-width="8" target-x="669.3" target-y="76"></path></g><g node-id="168"><g node-id="173"><g node-id="174"><path d="M 644.90 251.70 L 643.30 251.40 L 642.10 250.50 L 641.20 249.30 L 640.90 247.70 L 640.90 240.40 L 641.20 238.80 L 642.10 237.60 L 643.30 236.70 L 644.90 236.40 L 646.50 236.70 L 647.70 237.60 L 648.60 238.80 L 648.90 240.40 L 648.90 247.70 L 648.60 249.30 L 647.70 250.50 L 646.50 251.40 L 644.90 251.70 Z" fill="#1663ed" fill-rule="nonzero" group-id="3,8,13,14" node-id="113" stroke="none" target-height="15.300003" target-width="8" target-x="640.9" target-y="236.4"></path><path d="M 644.90 219.00 L 643.30 218.70 L 642.10 217.80 L 641.20 216.60 L 640.90 215.00 L 640.90 207.70 L 641.20 206.10 L 642.10 204.90 L 643.30 204.00 L 644.90 203.70 L 646.50 204.00 L 647.70 204.90 L 648.60 206.10 L 648.90 207.70 L 648.90 215.00 L 648.60 216.60 L 647.70 217.80 L 646.50 218.70 L 644.90 219.00 Z" fill="#1663ed" fill-rule="nonzero" group-id="3,8,13,14" node-id="115" stroke="none" target-height="15.300003" target-width="8" target-x="640.9" target-y="203.7"></path></g><g node-id="175"><path d="M 632.20 231.70 L 624.90 231.70 L 623.30 231.40 L 622.10 230.50 L 621.20 229.30 L 620.90 227.70 L 621.20 226.10 L 622.10 224.90 L 623.30 224.00 L 624.90 223.70 L 632.20 223.70 L 633.80 224.00 L 635.10 224.90 L 635.90 226.10 L 636.20 227.70 L 635.90 229.30 L 635.10 230.50 L 633.80 231.40 L 632.20 231.70 Z" fill="#1663ed" fill-rule="nonzero" group-id="3,8,13,15" node-id="119" stroke="none" target-height="8" target-width="15.299988" target-x="620.9" target-y="223.7"></path><path d="M 664.90 231.70 L 657.60 231.70 L 656.00 231.40 L 654.80 230.50 L 653.90 229.30 L 653.60 227.70 L 653.90 226.10 L 654.80 224.90 L 656.00 224.00 L 657.60 223.70 L 664.90 223.70 L 666.50 224.00 L 667.70 224.90 L 668.60 226.10 L 668.90 227.70 L 668.60 229.30 L 667.70 230.50 L 666.50 231.40 L 664.90 231.70 Z" fill="#1663ed" fill-rule="nonzero" group-id="3,8,13,15" node-id="121" stroke="none" target-height="8" target-width="15.300049" target-x="653.6" target-y="223.7"></path></g><g node-id="176"><path d="M 630.80 245.90 L 629.30 245.60 L 627.90 244.70 L 627.10 243.30 L 626.80 241.90 L 627.00 240.40 L 627.90 239.00 L 633.10 233.80 L 634.40 233.00 L 635.90 232.70 L 637.40 233.00 L 638.80 233.80 L 639.70 235.20 L 639.90 236.70 L 639.70 238.20 L 638.80 239.50 L 633.60 244.70 L 632.30 245.60 L 630.80 245.90 Z" fill="#1663ed" fill-rule="nonzero" group-id="3,8,13,16" node-id="125" stroke="none" target-height="13.199997" target-width="13.100037" target-x="626.8" target-y="232.7"></path><path d="M 653.90 222.70 L 652.40 222.40 L 651.00 221.60 L 650.20 220.20 L 649.90 218.70 L 650.20 217.20 L 651.00 215.90 L 656.20 210.70 L 657.60 209.80 L 659.10 209.60 L 660.60 209.80 L 661.90 210.70 L 662.80 212.10 L 663.10 213.60 L 662.80 215.10 L 661.90 216.40 L 656.70 221.60 L 655.40 222.40 L 653.90 222.70 Z" fill="#1663ed" fill-rule="nonzero" group-id="3,8,13,16" node-id="127" stroke="none" target-height="13.099991" target-width="13.199951" target-x="649.9" target-y="209.6"></path></g><g node-id="177"><path d="M 659.10 245.90 L 657.60 245.60 L 656.20 244.70 L 651.00 239.50 L 650.20 238.20 L 649.90 236.70 L 650.20 235.20 L 651.00 233.80 L 652.40 233.00 L 653.90 232.70 L 655.40 233.00 L 656.70 233.80 L 661.90 239.00 L 662.80 240.40 L 663.10 241.90 L 662.80 243.30 L 661.90 244.70 L 660.50 245.60 L 659.10 245.90 Z" fill="#1663ed" fill-rule="nonzero" group-id="3,8,13,17" node-id="131" stroke="none" target-height="13.199997" target-width="13.199951" target-x="649.9" target-y="232.7"></path><path d="M 635.90 222.70 L 634.40 222.40 L 633.10 221.60 L 627.90 216.40 L 627.00 215.00 L 626.80 213.60 L 627.00 212.10 L 627.90 210.70 L 629.30 209.80 L 630.80 209.60 L 632.30 209.80 L 633.60 210.70 L 638.80 215.90 L 639.70 217.20 L 639.90 218.70 L 639.70 220.20 L 638.80 221.60 L 637.40 222.40 L 635.90 222.70 Z" fill="#1663ed" fill-rule="nonzero" group-id="3,8,13,17" node-id="133" stroke="none" target-height="13.099991" target-width="13.100037" target-x="626.8" target-y="209.6"></path></g></g></g><g node-id="169"><path d="M 765.90 286.80 L 769.00 287.10 L 771.90 287.80 L 774.50 289.10 L 776.90 290.80 L 778.90 292.80 L 780.60 295.20 L 781.80 297.80 L 782.60 300.60 L 782.90 303.70 L 782.60 306.80 L 781.80 309.70 L 780.60 312.30 L 778.90 314.70 L 776.90 316.70 L 774.50 318.40 L 771.90 319.60 L 769.00 320.40 L 765.90 320.70 L 762.80 320.40 L 760.00 319.60 L 757.40 318.40 L 755.00 316.70 L 753.00 314.70 L 751.30 312.30 L 750.00 309.70 L 749.30 306.80 L 749.00 303.70 L 749.30 300.60 L 750.00 297.80 L 751.30 295.20 L 753.00 292.80 L 755.00 290.80 L 757.40 289.10 L 760.00 287.80 L 762.80 287.10 L 765.90 286.80 Z" fill="none" group-id="3,9" node-id="139" stroke="none" target-height="33.900024" target-width="33.900024" target-x="749" target-y="286.8"></path><path d="M 765.90 294.80 L 763.50 295.10 L 761.40 296.00 L 759.60 297.40 L 758.20 299.20 L 757.30 301.30 L 757.00 303.70 L 757.30 306.10 L 758.20 308.20 L 759.60 310.00 L 761.40 311.40 L 763.50 312.30 L 765.90 312.70 L 768.30 312.30 L 770.40 311.40 L 772.30 310.00 L 773.70 308.20 L 774.60 306.10 L 774.90 303.70 L 774.60 301.30 L 773.70 299.20 L 772.30 297.40 L 770.40 296.00 L 768.30 295.10 L 765.90 294.80 M 765.90 286.80 L 769.00 287.10 L 771.90 287.80 L 774.50 289.10 L 776.90 290.80 L 778.90 292.80 L 780.60 295.20 L 781.80 297.80 L 782.60 300.60 L 782.90 303.70 L 782.60 306.80 L 781.80 309.70 L 780.60 312.30 L 778.90 314.70 L 776.90 316.70 L 774.50 318.40 L 771.90 319.60 L 769.00 320.40 L 765.90 320.70 L 762.80 320.40 L 760.00 319.60 L 757.40 318.40 L 755.00 316.70 L 753.00 314.70 L 751.30 312.30 L 750.00 309.70 L 749.30 306.80 L 749.00 303.70 L 749.30 300.60 L 750.00 297.80 L 751.30 295.20 L 753.00 292.80 L 755.00 290.80 L 757.40 289.10 L 760.00 287.80 L 762.80 287.10 L 765.90 286.80 Z" fill="#1663ed" fill-rule="nonzero" group-id="3,9" node-id="141" stroke="none" target-height="33.900024" target-width="33.900024" target-x="749" target-y="286.8"></path></g><g node-id="170"><path d="M 672.30 448.30 L 674.90 448.50 L 677.20 449.20 L 679.40 450.20 L 681.40 451.60 L 683.10 453.30 L 684.50 455.30 L 685.50 457.50 L 686.20 459.80 L 686.40 462.40 L 686.20 465.00 L 685.50 467.40 L 684.50 469.60 L 683.10 471.50 L 681.40 473.20 L 679.40 474.60 L 677.20 475.70 L 674.90 476.30 L 672.30 476.50 L 669.70 476.30 L 667.40 475.70 L 665.20 474.60 L 663.20 473.20 L 661.50 471.50 L 660.10 469.60 L 659.10 467.40 L 658.40 465.00 L 658.20 462.40 L 658.40 459.80 L 659.10 457.50 L 660.10 455.30 L 661.50 453.30 L 663.20 451.60 L 665.20 450.20 L 667.40 449.20 L 669.70 448.50 L 672.30 448.30 Z" fill="none" group-id="3,10" node-id="145" stroke="none" target-height="28.200012" target-width="28.200012" target-x="658.2" target-y="448.3"></path><path d="M 672.30 456.30 L 670.60 456.50 L 669.20 457.10 L 668.00 458.10 L 667.00 459.30 L 666.40 460.80 L 666.20 462.40 L 666.40 464.10 L 667.00 465.50 L 669.20 467.70 L 670.60 468.30 L 672.30 468.50 L 674.00 468.30 L 675.40 467.70 L 676.60 466.80 L 677.60 465.50 L 678.40 462.40 L 678.20 460.80 L 676.60 458.10 L 675.40 457.10 L 674.00 456.50 L 672.30 456.30 M 672.30 448.30 L 674.90 448.50 L 677.20 449.20 L 679.40 450.20 L 681.40 451.60 L 683.10 453.30 L 684.50 455.30 L 685.50 457.50 L 686.20 459.80 L 686.40 462.40 L 686.20 465.00 L 685.50 467.40 L 684.50 469.60 L 683.10 471.50 L 681.40 473.20 L 679.40 474.60 L 677.20 475.70 L 674.90 476.30 L 672.30 476.50 L 669.70 476.30 L 667.40 475.70 L 665.20 474.60 L 663.20 473.20 L 661.50 471.50 L 660.10 469.60 L 659.10 467.40 L 658.40 465.00 L 658.20 462.40 L 658.40 459.80 L 659.10 457.50 L 660.10 455.30 L 661.50 453.30 L 663.20 451.60 L 665.20 450.20 L 667.40 449.20 L 669.70 448.50 L 672.30 448.30 Z" fill="#1663ed" fill-rule="nonzero" group-id="3,10" node-id="147" stroke="none" target-height="28.200012" target-width="28.200012" target-x="658.2" target-y="448.3"></path></g><g node-id="171"><path d="M 241.30 173.70 L 245.00 174.00 L 248.40 175.00 L 251.60 176.50 L 254.40 178.50 L 256.80 180.90 L 258.90 183.80 L 260.40 186.90 L 261.30 190.30 L 261.60 194.00 L 261.30 197.80 L 260.40 201.20 L 258.90 204.30 L 256.80 207.20 L 254.40 209.60 L 251.60 211.60 L 248.40 213.10 L 245.00 214.10 L 241.30 214.40 L 237.60 214.10 L 234.20 213.10 L 231.00 211.60 L 228.20 209.60 L 225.70 207.20 L 223.70 204.30 L 222.20 201.20 L 221.30 197.80 L 220.90 194.00 L 221.30 190.30 L 222.20 186.90 L 223.70 183.80 L 225.70 180.90 L 228.20 178.50 L 231.00 176.50 L 234.20 175.00 L 237.60 174.00 L 241.30 173.70 Z" fill="none" group-id="3,11" node-id="151" stroke="none" target-height="40.699997" target-width="40.700012" target-x="220.9" target-y="173.7"></path><path d="M 241.30 181.70 L 237.00 182.50 L 233.30 184.60 L 230.60 187.80 L 229.70 189.70 L 228.90 194.00 L 229.70 198.40 L 231.80 202.00 L 235.00 204.70 L 239.00 206.20 L 241.30 206.40 L 243.50 206.20 L 245.60 205.60 L 249.20 203.50 L 251.90 200.30 L 252.90 198.40 L 253.60 194.00 L 252.90 189.70 L 250.70 186.10 L 247.50 183.40 L 245.60 182.50 L 241.30 181.70 M 241.30 173.70 L 245.00 174.00 L 248.40 175.00 L 251.60 176.50 L 254.40 178.50 L 256.80 180.90 L 258.90 183.80 L 260.40 186.90 L 261.30 190.30 L 261.60 194.00 L 261.30 197.80 L 260.40 201.20 L 258.90 204.30 L 256.80 207.20 L 254.40 209.60 L 251.60 211.60 L 248.40 213.10 L 245.00 214.10 L 241.30 214.40 L 237.60 214.10 L 234.20 213.10 L 231.00 211.60 L 228.20 209.60 L 225.70 207.20 L 223.70 204.30 L 222.20 201.20 L 221.30 197.80 L 220.90 194.00 L 221.30 190.30 L 222.20 186.90 L 223.70 183.80 L 225.70 180.90 L 228.20 178.50 L 231.00 176.50 L 234.20 175.00 L 237.60 174.00 L 241.30 173.70 Z" fill="#1663ed" fill-rule="nonzero" group-id="3,11" node-id="153" stroke="none" target-height="40.699997" target-width="40.700012" target-x="220.9" target-y="173.7"></path></g><g node-id="172"><path d="M 201.70 419.80 L 177.00 419.80 L 175.40 419.50 L 174.20 418.60 L 173.30 417.30 L 173.00 415.80 L 173.30 414.20 L 174.20 412.90 L 175.40 412.10 L 177.00 411.80 L 201.70 411.80 L 203.30 412.10 L 204.50 412.90 L 205.40 414.20 L 205.70 415.80 L 205.40 417.30 L 204.50 418.60 L 203.30 419.50 L 201.70 419.80 Z" fill="#1663ed" fill-rule="nonzero" group-id="3,12" node-id="157" stroke="none" target-height="8" target-width="32.699997" target-x="173" target-y="411.8"></path><path d="M 189.40 431.20 L 187.80 430.90 L 186.50 430.00 L 185.70 428.70 L 185.40 427.20 L 185.40 402.50 L 185.70 400.90 L 186.50 399.60 L 187.80 398.80 L 189.40 398.50 L 190.90 398.80 L 192.20 399.60 L 193.00 400.90 L 193.40 402.50 L 193.40 427.20 L 193.00 428.70 L 192.20 430.00 L 190.90 430.90 L 189.40 431.20 Z" fill="#1663ed" fill-rule="nonzero" group-id="3,12" node-id="159" stroke="none" target-height="32.700012" target-width="8" target-x="185.4" target-y="398.5"></path></g></g></svg>